<?xml version="1.0" standalone="no"?>
<!DOCTYPE svg PUBLIC "-//W3C//DTD SVG 1.1//EN" "http://www.w3.org/Graphics/SVG/1.1/DTD/svg11.dtd">
<svg xmlns="http://www.w3.org/2000/svg">
<defs >
<font id="FiraCode" horiz-adv-x="1201" ><font-face
    font-family="Fira Code Light"
    units-per-em="2000"
    panose-1="2 11 8 9 5 0 0 2 0 4"
    ascent="1980"
    descent="-644"
    alphabetic="0" />
<glyph unicode=" " horiz-adv-x="1200" />
<glyph unicode="!" horiz-adv-x="1200" d="M719 1380L693 475H503L475 1380H719ZM599 276Q664 276 707 232T751 125Q751 62 708 18T599 -27Q536 -27 492 17T448 125Q448 187 492 231T599 276Z" />
<glyph unicode="&quot;" horiz-adv-x="1200" d="M335 945L301 1480H545L512 945H335ZM688 945L654 1480H899L865 945H688Z" />
<glyph unicode="#" horiz-adv-x="1200" d="M942 905L886 480H1034V320H864L823 0H635L677 320H424L382 0H194L236 320H93V480H257L315 905H167V1066H336L377 1380H566L522 1066H776L818 1380H1006L963 1066H1108V905H942ZM445 480H698L755 905H501L445 480Z" />
<glyph unicode="$" horiz-adv-x="1200" d="M694 1702V1403Q815 1392 910 1348T1071 1244L949 1117Q893 1167 829 1196T694 1233V818Q807 780 896 727T1038 593T1091 390Q1091 289 1046 202T913 57T694 -19V-313H549V-25Q405 -15 296 41T117 164L237 299Q302 238
378 198T549 151V652Q358 716 264 809T169 1043Q169 1134 212 1211T341 1339T549 1403V1702H694ZM694 599V159Q867 195 867 374Q867 449 830 502T694 599ZM549 1230Q475 1217 431 1173T387 1059Q387 997 419 954T549 868V1230Z" />
<glyph unicode="%" horiz-adv-x="1200" d="M949 1421L1080 1351L233 -47L104 23L949 1421ZM885 492Q830 492 799 446T768 307Q768 219 799 170T885 120Q941 120 971 166T1002 307Q1002 404 972 448T885 492ZM317 1274Q262 1274 231 1228T200 1090Q200 1002 231
953T317 903Q373 903 403 949T434 1090Q434 1187 404 1230T317 1274ZM317 1408Q409 1408 473 1366T572 1251T607 1090Q607 1001 573 929T474 814T317 771Q226 771 161 813T61 928T26 1090Q26 1178 60 1250T160 1365T317 1408ZM885 625Q977 625 1041 583T1140 468T1175
307Q1175 218 1141 146T1042 31T885 -12Q794 -12 729 31T629 146T594 307Q594 395 628 467T728 582T885 625Z" />
<glyph unicode="&amp;" horiz-adv-x="1200" d="M558 1406Q660 1406 745 1375T913 1254L786 1141Q737 1195 689 1220T571 1246Q478 1246 431 1195T384 1060Q384 1003 413 955T492 878T607 849H1150V690H989V154Q955 114 899 72T758 2T556 -27Q400 -27 298 32T145
186T95 392Q95 551 176 647T405 775V782Q319 803 267 845T190 947T166 1075Q166 1166 215 1241T352 1361T558 1406ZM784 690H585Q490 690 431 647T343 538T314 404Q314 334 341 275T423 180T566 144Q637 144 693 167T784 231V690Z" />
<glyph unicode="&apos;" horiz-adv-x="1200" d="M511 945L478 1480H722L688 945H511Z" />
<glyph unicode="(" horiz-adv-x="1200" d="M462 700Q462 508 504 363T637 91T871 -173L747 -293Q586 -159 471 -16T293 302T231 700Q231 925 293 1099T470 1416T747 1693L871 1573Q766 1472 689 1377T561 1180T486 962T462 700Z" />
<glyph unicode=")" horiz-adv-x="1200" d="M738 700Q738 845 714 962T640 1180T512 1376T329 1573L453 1693Q614 1560 729 1417T907 1099T969 700Q969 476 907 302T730 -15T453 -293L329 -173Q472 -36 562 91T695 363T738 700Z" />
<glyph unicode="*" horiz-adv-x="1200" d="M490 1168L515 773L148 917L81 711L463 612L212 306L387 180L600 512L813 180L988 306L737 612L1119 711L1052 917L685 773L710 1168H490Z" />
<glyph unicode="+" horiz-adv-x="1200" d="M697 1116V713H1094V533H697V131H500V533H106V713H500V1116H697Z" />
<glyph unicode="," horiz-adv-x="1200" d="M600 360Q679 360 731 308T783 179Q783 134 770 89T726 -23L571 -377H397L495 29Q459 54 439 93T419 180Q419 255 471 307T600 360Z" />
<glyph unicode="-" horiz-adv-x="1200" d="M187 534V718H1013V534H187Z" />
<glyph unicode="." horiz-adv-x="1200" d="M406 167Q406 221 431 264T501 334T599 360Q654 360 698 334T767 265T793 167Q793 114 768 70T698 -1T599 -27Q545 -27 501 -1T432 69T406 167Z" />
<glyph unicode="/" horiz-adv-x="1200" d="M265 -213L87 -133L937 1624L1113 1541L265 -213Z" />
<glyph unicode="0" horiz-adv-x="1200" d="M600 1408Q832 1408 951 1221T1070 692Q1070 349 951 161T600 -27Q367 -27 249 161T130 692Q130 1034 248 1221T600 1408ZM600 1237Q481 1237 417 1111T353 692Q353 485 378 365T457 195T600 144Q680 144 735 198T818
374T847 692Q847 897 823 1016T744 1186T600 1237ZM786 1190L844 1033L432 192L358 319L786 1190Z" />
<glyph unicode="1" horiz-adv-x="1200" d="M784 1380V40H562V1150L258 963L162 1120L586 1380H784ZM1060 176V0H225V176H1060Z" />
<glyph unicode="2" horiz-adv-x="1200" d="M544 1408Q685 1408 782 1356T931 1215T983 1018Q983 928 952 841T851 659T667 447T388 180H1015L989 0H131V170Q280 312 386 420T563 611T675 760T733 885T751 1004Q751 1108 692 1168T528 1228Q434 1228 372 1194T249
1084L103 1195Q184 1298 289 1353T544 1408Z" />
<glyph unicode="3" horiz-adv-x="1200" d="M540 1408Q677 1408 776 1360T928 1233T981 1059Q981 974 945 907T847 796T707 734Q794 725 866 686T981 575T1025 394Q1025 276 964 181T790 29T525 -27Q395 -27 278 21T78 166L215 286Q274 217 353 184T515 151Q643
151 718 217T793 402Q793 492 760 544T666 620T527 643H408L434 808H518Q583 808 638 831T726 904T760 1026Q760 1127 692 1181T522 1235Q436 1235 369 1204T236 1111L117 1238Q208 1325 314 1366T540 1408Z" />
<glyph unicode="4" horiz-adv-x="1200" d="M520 1408L709 1333L357 492H1076V318H123V474L520 1408ZM912 861V0H697L695 460L724 861H912Z" />
<glyph unicode="5" horiz-adv-x="1200" d="M995 1380L966 1212H436V828Q495 859 550 870T662 882Q772 882 858 830T993 680T1043 443Q1043 305 982 199T809 33T548 -27Q413 -27 309 21T125 154L259 280Q317 216 386 184T539 151Q665 151 737 227T810 444Q810 546
781 605T700 691T585 717Q533 717 488 706T387 671H222V1380H995Z" />
<glyph unicode="6" horiz-adv-x="1200" d="M682 1408Q767 1408 837 1386T966 1324L879 1180Q835 1209 785 1223T683 1238Q584 1238 513 1173T403 988T365 702L367 625Q367 378 423 261T617 143Q732 143 788 229T845 456Q845 616 788 678T635 741Q544 741 470 688T348
548L344 716Q411 818 497 863T682 909Q789 909 877 860T1019 712T1072 466Q1072 319 1013 208T850 35T616 -27Q486 -27 395 22T246 161T163 373T136 642Q136 873 201 1045T389 1312T682 1408Z" />
<glyph unicode="7" horiz-adv-x="1200" d="M486 -24L275 41L804 1204H172V1380H1031V1219L486 -24Z" />
<glyph unicode="8" horiz-adv-x="1200" d="M1031 1051Q1031 952 973 880T801 744Q938 684 1012 590T1086 372Q1086 261 1028 171T861 27T595 -27Q440 -27 332 26T169 168T114 367Q114 491 187 578T382 721Q274 779 222 851T169 1039Q169 1132 206 1200T305 1315T444
1385T601 1408Q686 1408 763 1386T900 1319T996 1207T1031 1051ZM857 371Q857 455 818 505T704 589T527 659Q477 633 435 595T368 502T343 374Q343 268 407 206T598 143Q726 143 791 209T857 371ZM386 1038Q386 970 417 928T507 858T650 800Q735 853 774 906T814
1040Q814 1133 759 1189T601 1245Q499 1245 443 1191T386 1038Z" />
<glyph unicode="9" horiz-adv-x="1200" d="M584 1406Q741 1406 846 1337T1003 1143T1056 847Q1056 642 1011 495T871 244T630 71T280 -49L231 115Q420 166 547 237T742 416T822 679L824 779Q825 942 802 1043T726 1190T583 1236Q468 1236 406 1161T344 936Q344
790 404 726T565 662Q655 662 723 709T854 840L852 681Q786 598 704 547T509 495Q396 495 307 548T167 701T116 936Q116 1085 178 1190T347 1350T584 1406Z" />
<glyph unicode=":" horiz-adv-x="1200" d="M419 154Q419 227 471 279T599 332Q676 332 727 280T779 154Q779 79 728 26T599 -27Q523 -27 471 26T419 154ZM419 864Q419 938 471 990T599 1043Q676 1043 727 991T779 864Q779 790 728 737T599 683Q523 683 471 736T419 864Z" />
<glyph unicode=";" horiz-adv-x="1200" d="M599 355Q676 355 727 303T779 176Q779 133 766 88T723 -23L570 -373H398L494 28Q419 80 419 177Q419 252 471 303T599 355ZM599 1043Q676 1043 727 991T779 864Q779 790 728 737T599 683Q523 683 471 736T419 864Q419
938 471 990T599 1043Z" />
<glyph unicode="&lt;" horiz-adv-x="1200" d="M936 1202L1039 1040L355 627L1039 214L929 53L162 531V723L936 1202Z" />
<glyph unicode="=" horiz-adv-x="1200" d="M1014 911V728H186V911H1014ZM1014 516V333H186V516H1014Z" />
<glyph unicode="&gt;" horiz-adv-x="1200" d="M266 1202L1039 724V531L272 53L162 211L847 627L162 1037L266 1202Z" />
<glyph unicode="?" horiz-adv-x="1200" d="M596 1408Q731 1408 824 1363T967 1245T1016 1089Q1016 993 979 932T888 830T780 750T688 662T651 534V475H437V544Q437 643 471 707T558 816T661 895T747 972T782 1072Q782 1147 723 1186T575 1226Q505 1226 434 1193T304
1089L154 1203Q241 1305 351 1356T596 1408ZM548 276Q613 276 657 232T701 125Q701 62 657 18T548 -27Q485 -27 442 17T398 125Q398 187 441 231T548 276Z" />
<glyph unicode="@" horiz-adv-x="1200" d="M570 1408Q720 1408 826 1365T1001 1244T1110 1061T1165 833T1181 578Q1181 326 1157 157T1068 -98T879 -184Q819 -184 775 -157T702 -88T659 4T642 98H634Q614 50 579 6T490 -66T358 -94Q246 -94 178 -35T79 129T48
364Q48 619 152 753T453 888Q527 888 599 871T756 808V214Q756 119 771 67T812 -5T873 -25Q913 -25 935 16T968 134T980 322T982 570Q982 718 966 841T905 1055T778 1194T565 1243Q464 1243 353 1205T118 1059L10 1184Q146 1302 285 1355T570 1408ZM456 736Q341
736 299 647T257 364Q257 268 269 200T311 96T392 60Q453 60 487 88T538 154T564 222V710Q513 736 456 736Z" />
<glyph unicode="A" horiz-adv-x="1200" d="M842 332H349L253 0H17L456 1380H744L1184 0H938L842 332ZM397 511H793L596 1200L397 511Z" />
<glyph unicode="B" horiz-adv-x="1200" d="M861 399Q861 492 825 543T728 614T591 635H394V180H581Q631 180 680 188T771 220T836 287T861 399ZM808 1012Q808 1116 743 1161T560 1206H394V807H574Q690 807 749 855T808 1012ZM1103 398Q1103 283 1058 206T937 83T764
19T566 0H162V1380H539Q636 1380 726 1364T887 1307T1001 1200T1043 1031Q1043 944 1007 883T913 785T788 731Q863 719 935 685T1055 581T1103 398Z" />
<glyph unicode="C" horiz-adv-x="1200" d="M716 1408Q856 1408 952 1372T1132 1267L1011 1123Q949 1175 878 1200T727 1225Q624 1225 537 1173T398 1004T345 692Q345 501 395 384T532 214T727 161Q838 161 911 197T1040 280L1152 137Q1083 70 977 22T719 -27Q544
-27 405 55T185 298T104 692Q104 924 187 1083T409 1325T716 1408Z" />
<glyph unicode="D" horiz-adv-x="1200" d="M878 697Q878 862 846 962T759 1114T638 1184T502 1202H375V176H503Q575 176 642 199T762 279T847 437T878 697ZM1122 697Q1122 483 1066 346T917 134T710 30T481 0H143V1380H458Q584 1380 702 1353T915 1253T1066 1046T1122
697Z" />
<glyph unicode="E" horiz-adv-x="1200" d="M458 1204V789H958V613H458V176H1067V0H226V1380H1056L1030 1204H458Z" />
<glyph unicode="F" horiz-adv-x="1200" d="M486 1204V765H1005V589H486V0H254V1380H1103L1077 1204H486Z" />
<glyph unicode="G" horiz-adv-x="1200" d="M636 -27Q460 -27 334 53T141 294T74 692Q74 869 122 1003T254 1227T446 1362T676 1408Q817 1408 911 1366T1087 1249L957 1114Q894 1172 829 1199T682 1227Q609 1227 544 1199T427 1108T347 943T317 691Q317 499 354
381T464 208T647 154Q710 154 767 169T875 212V592H641L616 769H1100V100Q1002 45 892 9T636 -27Z" />
<glyph unicode="H" horiz-adv-x="1200" d="M825 0V627H375V0H143V1380H375V818H825V1380H1057V0H825Z" />
<glyph unicode="I" horiz-adv-x="1200" d="M1015 1380V1203H717V178H1015V0H185V178H483V1203H185V1380H1015Z" />
<glyph unicode="J" horiz-adv-x="1200" d="M1016 1380V473Q1016 374 988 284T900 125T744 15T513 -26Q399 -26 302 7T120 101L215 249Q297 195 366 176T504 157Q634 157 709 240T785 478V1202H370V1380H1016Z" />
<glyph unicode="K" horiz-adv-x="1200" d="M407 0H175V1380H407V0ZM417 737L897 1380H1152L669 753L1190 0H912L417 737Z" />
<glyph unicode="L" horiz-adv-x="1200" d="M239 0V1380H471V194H1089L1064 0H239Z" />
<glyph unicode="M" horiz-adv-x="1200" d="M1071 1380L1149 0H937L904 672Q901 748 900 819T898 955T899 1075T903 1176L700 243H498L280 1176Q283 1133 285 1076T288 952T289 814T286 670L259 0H51L129 1380H407L604 455L792 1380H1071Z" />
<glyph unicode="N" horiz-adv-x="1200" d="M755 0L316 1174Q319 1143 324 1086T335 954T345 795T349 627V0H143V1380H444L884 205Q879 247 872 328T858 518T851 751V1380H1057V0H755Z" />
<glyph unicode="O" horiz-adv-x="1200" d="M1125 690Q1125 477 1066 316T890 64T600 -27Q428 -27 311 61T134 310T75 688Q75 902 134 1063T310 1316T600 1408Q773 1408 890 1319T1066 1069T1125 690ZM885 690Q885 958 819 1092T600 1227Q448 1227 382 1092T315
688Q315 421 383 288T600 154Q754 154 819 288T885 690Z" />
<glyph unicode="P" horiz-adv-x="1200" d="M885 945Q885 1040 849 1097T746 1180T589 1206H423V669H592Q679 669 745 695T848 781T885 945ZM1129 947Q1129 786 1061 686T870 539T590 492H423V0H191V1380H574Q834 1380 981 1274T1129 947Z" />
<glyph unicode="Q" horiz-adv-x="1200" d="M1123 690Q1123 476 1060 313T835 63Q937 44 1009 7T1131 -96T1216 -267L1001 -346Q959 -241 907 -169T778 -59T580 -22Q416 -22 305 65T138 311T81 688Q81 902 139 1063T313 1316T602 1408Q775 1408 890 1319T1064 1069T1123
690ZM882 690Q882 957 819 1091T602 1226Q449 1226 386 1091T322 688Q322 421 387 288T602 154Q755 154 818 288T882 690Z" />
<glyph unicode="R" horiz-adv-x="1200" d="M1093 981Q1093 879 1052 804T939 678T779 601L1170 0H900L553 568H402V0H170V1380H555Q821 1380 957 1281T1093 981ZM850 981Q850 1101 781 1154T568 1208H402V738H573Q706 738 778 794T850 981Z" />
<glyph unicode="S" horiz-adv-x="1200" d="M1097 390Q1097 268 1035 174T855 26T571 -27Q403 -27 277 23T63 158L190 300Q264 233 357 195T570 156Q648 156 713 180T817 254T856 379Q856 440 831 482T745 558T573 624Q427 668 328 722T179 851T128 1035Q128 1147
189 1231T358 1361T602 1408Q752 1408 864 1365T1064 1242L942 1104Q869 1168 786 1197T616 1226Q546 1226 489 1206T399 1147T366 1048Q366 995 395 957T495 887T689 817Q805 783 897 733T1043 602T1097 390Z" />
<glyph unicode="T" horiz-adv-x="1200" d="M713 1193V0H481V1193H67V1380H1137L1113 1193H713Z" />
<glyph unicode="U" horiz-adv-x="1200" d="M1078 1380V453Q1078 312 1022 204T858 35T599 -27Q445 -27 339 33T178 202T122 453V1380H354V495Q354 327 412 243T599 158Q728 158 786 242T845 495V1380H1078Z" />
<glyph unicode="V" horiz-adv-x="1200" d="M605 220L935 1380H1170L733 0H467L30 1380H278L605 220Z" />
<glyph unicode="W" horiz-adv-x="1200" d="M1196 1380L1005 0H734L598 1021L457 0H180L4 1380H228L337 224L483 1220H722L860 224L989 1380H1196Z" />
<glyph unicode="X" horiz-adv-x="1200" d="M76 1380H333L600 883L870 1380H1117L735 746L1159 0H902L596 587L289 0H41L459 735L76 1380Z" />
<glyph unicode="Y" horiz-adv-x="1200" d="M717 527V0H483V525L23 1380H278L605 726L934 1380H1177L717 527Z" />
<glyph unicode="Z" horiz-adv-x="1200" d="M383 192H1081L1055 0H118V180L820 1192H190V1380H1076V1198L383 192Z" />
<glyph unicode="[" horiz-adv-x="1200" d="M347 -236V1636H892V1457H558V-59H892V-236H347Z" />
<glyph unicode="\" horiz-adv-x="1200" d="M87 1541L264 1624L1113 -133L935 -213L87 1541Z" />
<glyph unicode="]" horiz-adv-x="1200" d="M853 1636V-236H308V-59H642V1457H308V1636H853Z" />
<glyph unicode="^" horiz-adv-x="1200" d="M701 1682L1079 1054H849L598 1499L351 1054H121L499 1682H701Z" />
<glyph unicode="_" horiz-adv-x="1200" d="M100 -366V-181H1100V-366H100Z" />
<glyph unicode="`" horiz-adv-x="1200" d="M782 1244L352 1431L455 1610L849 1362L782 1244Z" />
<glyph unicode="a" horiz-adv-x="1200" d="M985 259Q985 197 1004 169T1065 126L1015 -26Q937 -17 881 17T796 120Q738 47 649 10T459 -27Q299 -27 206 63T112 301Q112 468 242 558T614 648H765V717Q765 819 704 864T530 909Q478 909 404 896T249 854L194 1012Q293
1049 388 1066T564 1084Q776 1084 880 990T985 730V259ZM527 138Q595 138 660 174T765 275V508H641Q483 508 415 456T347 311Q347 227 392 183T527 138Z" />
<glyph unicode="b" horiz-adv-x="1200" d="M402 930Q457 1002 530 1043T692 1084Q831 1084 917 1016T1044 823T1085 530Q1085 369 1037 243T896 45T665 -27Q488 -27 387 104L375 0H178V1480L402 1505V930ZM609 144Q723 144 785 237T848 529Q848 664 823 748T750
872T631 911Q556 911 499 866T402 760V266Q439 209 491 177T609 144Z" />
<glyph unicode="c" horiz-adv-x="1200" d="M687 157Q761 157 825 182T947 249L1051 105Q982 46 884 10T680 -27Q518 -27 403 41T227 234T166 523Q166 684 227 810T405 1010T684 1084Q792 1084 883 1052T1050 957L947 816Q885 859 821 881T688 904Q563 904 484
812T404 523Q404 391 440 311T541 194T687 157Z" />
<glyph unicode="d" horiz-adv-x="1200" d="M798 1505L1022 1480V0H825L809 130Q755 55 680 14T512 -27Q376 -27 288 42T158 237T115 528Q115 689 165 814T308 1012T532 1084Q615 1084 681 1055T798 969V1505ZM591 912Q478 912 415 819T352 528Q352 393 378 309T453
185T571 145Q647 145 703 189T798 295V795Q759 851 707 881T591 912Z" />
<glyph unicode="e" horiz-adv-x="1200" d="M364 456Q371 348 410 280T512 179T652 147Q730 147 796 171T929 239L1026 105Q952 45 853 9T641 -27Q477 -27 364 43T191 238T132 527Q132 686 190 811T356 1010T614 1084Q755 1084 856 1020T1013 839T1069 556Q1069
529 1068 503T1064 456H364ZM616 918Q511 918 443 843T363 609H852Q849 758 789 838T616 918Z" />
<glyph unicode="f" horiz-adv-x="1200" d="M820 1505Q917 1505 993 1489T1135 1444L1069 1289Q1016 1311 959 1321T842 1331Q738 1331 688 1292T638 1167V980H991L967 815H638V0H415V815H175V980H415V1169Q415 1269 465 1344T607 1462T820 1505Z" />
<glyph unicode="g" horiz-adv-x="1200" d="M1067 1190L1127 1004Q1064 983 989 976T820 969Q915 927 963 862T1011 701Q1011 598 961 517T818 390T595 344Q549 344 516 348T450 361Q430 347 417 324T403 274Q403 242 429 219T535 195H719Q832 195 918 157T1054
52T1104 -99Q1104 -257 968 -344T576 -431Q395 -431 292 -394T147 -284T105 -105H306Q306 -160 327 -196T408 -250T578 -268Q689 -268 754 -250T849 -197T879 -114Q879 -50 823 -15T673 20H492Q342 20 273 81T203 223Q203 277 233 327T321 414Q226 464 183 535T139
709Q139 821 195 905T350 1036T580 1083Q707 1083 792 1096T940 1135T1067 1190ZM582 929Q475 929 421 869T367 711Q367 611 422 551T585 490Q684 490 736 548T789 713Q789 821 737 875T582 929Z" />
<glyph unicode="h" horiz-adv-x="1200" d="M402 1502V927Q466 1005 552 1044T729 1084Q878 1084 951 1002T1024 770V0H800V735Q800 830 764 871T648 913Q598 913 553 891T469 832T402 755V0H178V1478L402 1502Z" />
<glyph unicode="i" horiz-adv-x="1200" d="M755 1056V164H1042V0H215V164H531V892H225V1056H755ZM599 1573Q665 1573 705 1533T746 1433Q746 1373 706 1332T599 1291Q535 1291 494 1332T453 1433Q453 1493 494 1533T599 1573Z" />
<glyph unicode="j" horiz-adv-x="1200" d="M911 1056V222Q911 25 830 -105T591 -312T208 -431L172 -259Q329 -229 445 -176T624 -31T687 207V892H270V1056H911ZM736 1573Q801 1573 842 1533T883 1433Q883 1373 842 1332T736 1291Q671 1291 631 1332T590 1433Q590
1493 630 1533T736 1573Z" />
<glyph unicode="k" horiz-adv-x="1200" d="M1108 1056L681 584L1153 0H879L425 578L847 1056H1108ZM409 1505V0H185V1480L409 1505Z" />
<glyph unicode="l" horiz-adv-x="1200" d="M642 1480V288Q642 215 686 185T802 154Q848 154 889 164T969 189L1026 33Q979 9 911 -9T754 -27Q595 -27 507 62T418 308V1315H99V1480H642Z" />
<glyph unicode="m" horiz-adv-x="1200" d="M906 1084Q966 1084 1014 1058T1089 967T1117 785V0H918V754Q918 837 907 873T847 909Q809 909 770 886T691 805V0H510V754Q510 837 499 873T439 909Q400 909 362 886T283 805V0H83V1056H252L267 942Q312 1005 365 1044T493
1084Q553 1084 602 1054T674 949Q718 1009 774 1046T906 1084Z" />
<glyph unicode="n" horiz-adv-x="1200" d="M178 0V1056H371L388 919Q454 1000 544 1042T729 1084Q877 1084 950 1002T1024 770V0H800V659Q800 751 789 807T746 888T649 913Q598 913 552 891T468 834T402 758V0H178Z" />
<glyph unicode="o" horiz-adv-x="1200" d="M601 1084Q756 1084 862 1015T1022 822T1077 530Q1077 363 1022 238T860 43T600 -27Q447 -27 341 40T179 233T123 528Q123 693 178 818T341 1013T601 1084ZM601 910Q480 910 419 818T358 528Q358 332 418 239T600 146Q721
146 781 239T842 530Q842 725 782 817T601 910Z" />
<glyph unicode="p" horiz-adv-x="1200" d="M693 1084Q833 1084 917 1016T1039 823T1077 530Q1077 369 1031 243T895 45T670 -27Q504 -27 402 90V-406L178 -431V1056H373L387 920Q447 1002 526 1043T693 1084ZM631 911Q556 911 499 866T402 760V266Q440 209 492
179T611 148Q724 148 783 239T842 529Q842 664 819 748T749 872T631 911Z" />
<glyph unicode="q" horiz-adv-x="1200" d="M533 1084Q623 1084 693 1051T815 953L829 1056H1022V-431L798 -406V116Q745 46 673 10T511 -27Q372 -27 286 42T162 236T123 528Q123 689 170 814T309 1012T533 1084ZM591 912Q476 912 417 819T358 528Q358 393 382
310T454 187T571 148Q646 148 702 190T798 295V795Q761 851 709 881T591 912Z" />
<glyph unicode="r" horiz-adv-x="1200" d="M188 0V160H343V897H188V1056H514L555 811Q614 944 701 1013T927 1083Q974 1083 1011 1076T1086 1056L1019 864Q987 873 959 877T897 882Q782 882 699 796T567 552V160H780V0H188ZM888 667V927L916 1056H1086L1048 667H888Z" />
<glyph unicode="s" horiz-adv-x="1200" d="M562 145Q667 145 729 182T791 286Q791 329 773 359T701 415T537 469Q433 496 355 533T233 629T190 781Q190 872 241 940T387 1046T612 1084Q745 1084 844 1049T1013 962L919 821Q857 862 784 888T618 914Q511 914 465
882T418 797Q418 758 441 732T523 683T687 630Q790 602 866 564T985 464T1028 301Q1028 187 963 115T791 8T562 -27Q415 -27 308 15T128 122L247 258Q309 208 389 177T562 145Z" />
<glyph unicode="t" horiz-adv-x="1200" d="M1060 56Q1002 19 921 -4T752 -27Q568 -27 473 68T377 320V893H142V1056H377V1292L601 1319V1056H957L932 893H601V322Q601 237 643 196T783 154Q841 154 890 168T979 204L1060 56Z" />
<glyph unicode="u" horiz-adv-x="1200" d="M402 1056V318Q402 224 439 184T553 144Q625 144 692 187T798 292V1056H1022V0H829L815 135Q756 56 666 15T482 -27Q329 -27 254 57T178 290V1056H402Z" />
<glyph unicode="v" horiz-adv-x="1200" d="M1103 1056L731 0H469L97 1056H337L605 186L874 1056H1103Z" />
<glyph unicode="w" horiz-adv-x="1200" d="M1004 0H724L605 750L477 0H203L24 1056H240L350 139L497 922H721L858 139L968 1056H1176L1004 0Z" />
<glyph unicode="x" horiz-adv-x="1200" d="M334 0H86L465 557L128 1056H386L602 684L818 1056H1064L734 566L1114 0H851L592 431L334 0Z" />
<glyph unicode="y" horiz-adv-x="1200" d="M1102 1056L738 -4Q697 -124 633 -215T469 -363T221 -432L192 -264Q299 -247 362 -215T463 -129T530 0H454L98 1056H336L602 156L872 1056H1102Z" />
<glyph unicode="z" horiz-adv-x="1200" d="M451 180H1016L992 0H182V164L744 876H227V1056H1009V892L451 180Z" />
<glyph unicode="{" horiz-adv-x="1200" d="M914 1674V1509Q846 1509 793 1496T711 1451T688 1362L725 995Q735 901 710 841T628 747T491 700Q575 686 631 655T711 563T725 405L688 38Q682 -19 710 -51T792 -96T914 -109V-274Q810 -274 726 -258T583 -203T498 -101T481
59L518 404Q525 475 500 520T408 588T226 610V790Q341 790 407 811T499 878T518 995L481 1340Q471 1436 497 1501T582 1603T725 1657T914 1674Z" />
<glyph unicode="|" horiz-adv-x="1200" d="M701 1616V-206H497V1616H701Z" />
<glyph unicode="}" horiz-adv-x="1200" d="M286 1674Q390 1674 474 1658T617 1603T703 1501T719 1341L682 995Q675 924 703 879T799 812T974 790V610Q866 610 799 588T704 521T682 404L719 60Q729 -36 703 -101T618 -203T475 -257T286 -274V-109Q354 -109 407
-97T489 -52T512 38L475 405Q465 503 490 563T575 654T723 699Q634 713 575 746T491 840T475 995L512 1362Q518 1419 490 1451T408 1496T286 1509V1674Z" />
<glyph unicode="~" horiz-adv-x="1200" d="M409 824Q484 824 537 794T632 724T713 654T798 624Q858 624 903 669T988 788L1130 720Q1096 649 1051 586T943 483T791 443Q720 443 668 473T573 543T490 613T402 643Q340 643 296 597T212 478L70 545Q105 614 149 677T257
782T409 824Z" />
<glyph unicode="&#xa0;" horiz-adv-x="1200" />
<glyph unicode="&#xa1;" horiz-adv-x="1200" d="M691 505L724 -400H475L506 505H691ZM599 1007Q663 1007 707 962T751 854Q751 793 707 749T599 704Q536 704 492 748T448 854Q448 917 492 962T599 1007Z" />
<glyph unicode="&#xa2;" horiz-adv-x="1200" d="M761 1373V1073Q828 1065 890 1039T1009 965L905 823Q843 870 791 887T684 904Q564 904 497 812T429 523Q429 324 498 241T684 157Q741 157 791 176T904 242L1009 92Q952 45 890 19T761 -17V-312H581V-14Q390 16
291 158T191 523Q191 667 236 783T368 974T583 1071V1373H761Z" />
<glyph unicode="&#xa3;" horiz-adv-x="1200" d="M698 1408Q817 1408 912 1364T1076 1224L932 1117Q885 1178 833 1204T711 1230Q615 1230 564 1175T512 1009V786H907V651H512V439Q512 359 489 292T387 180H1054L1027 0H124V171Q203 196 237 232T280 320T289 437V651H132V786H289V1021Q289
1132 337 1219T476 1357T698 1408Z" />
<glyph unicode="&#xa4;" horiz-adv-x="1200" d="M187 1221L359 1048Q410 1079 471 1095T602 1112Q670 1112 731 1096T842 1048L1013 1219L1134 1098L966 929Q999 880 1017 818T1036 684Q1036 611 1017 549T964 436L1134 268L1013 147L840 316Q791 286 731 270T602
254Q533 254 471 270T358 316L187 145L66 266L238 438Q206 488 188 550T170 684Q170 755 187 817T236 928L66 1100L187 1221ZM602 946Q487 946 428 877T368 684Q368 560 427 491T602 421Q717 421 775 490T834 684Q834 807 776 876T602 946Z" />
<glyph unicode="&#xa5;" horiz-adv-x="1200" d="M1145 1380L770 696H993V561H715V403H993V268H715V0H486V268H212V403H486V561H212V696H429L55 1380H300L603 771H611L911 1380H1145Z" />
<glyph unicode="&#xa6;" horiz-adv-x="1200" d="M701 1616V899H497V1616H701ZM701 511V-206H497V511H701Z" />
<glyph unicode="&#xa7;" horiz-adv-x="1200" d="M635 1408Q745 1408 831 1378T989 1299L896 1158Q836 1198 774 1219T634 1240Q554 1240 508 1206T461 1116Q461 1076 479 1048T549 995T702 936Q858 886 933 818T1008 628Q1008 544 961 480T848 374Q902 333 933
279T965 153Q965 61 914 -7T770 -112T557 -150Q443 -150 354 -120T197 -39L288 105Q350 63 413 41T556 19Q637 19 689 52T741 142Q741 182 723 210T652 263T497 322Q342 373 267 441T191 631Q191 714 239 777T353 882Q298 925 267 980T236 1103Q236 1195 288 1263T430
1370T635 1408ZM480 816Q440 780 420 740T400 661Q400 609 426 578T521 517T720 442Q758 478 779 519T800 599Q800 649 774 679T679 739T480 816Z" />
<glyph unicode="&#xa8;" horiz-adv-x="1200" d="M384 1288Q328 1288 291 1324T253 1415Q253 1469 290 1505T384 1542Q439 1542 476 1506T513 1415Q513 1361 476 1325T384 1288ZM815 1288Q761 1288 724 1324T686 1415Q686 1469 723 1505T815 1542Q871 1542 908
1506T946 1415Q946 1361 909 1325T815 1288Z" />
<glyph unicode="&#xa9;" horiz-adv-x="1200" d="M602 1502Q779 1502 902 1416T1091 1185T1157 862Q1157 686 1092 541T903 310T602 224Q424 224 299 310T109 541T43 862Q43 1040 109 1185T300 1416T602 1502ZM613 1248Q689 1248 742 1228T846 1164L765 1058Q731
1086 697 1099T625 1112Q554 1112 506 1055T458 864Q458 737 504 679T625 621Q674 621 712 638T782 685L856 575Q813 536 755 508T615 479Q467 479 375 578T283 864Q283 988 327 1074T447 1204T613 1248ZM602 1388Q457 1388 363 1317T222 1127T176 862Q176 718
222 600T362 411T602 340Q746 340 840 410T980 599T1026 862Q1026 1008 980 1127T841 1317T602 1388Z" />
<glyph unicode="&#xaa;" horiz-adv-x="1200" d="M581 1505Q764 1505 848 1430T932 1216V846Q932 802 948 781T996 748L950 613Q878 621 833 648T763 731Q714 674 643 643T495 612Q358 612 274 686T190 882Q190 1017 304 1090T624 1163H737V1210Q737 1289 690 1320T552
1351Q512 1351 448 1340T312 1304L259 1445Q349 1478 431 1491T581 1505ZM1008 176V0H207V176H1008ZM737 1031H641Q515 1031 459 995T403 890Q403 824 441 790T548 756Q602 756 652 784T737 862V1031Z" />
<glyph unicode="&#xab;" horiz-adv-x="1200" d="M620 165L489 81L142 506V657L489 1083L620 999L365 582L620 165ZM1057 165L925 81L576 506V657L925 1083L1057 999L802 582L1057 165Z" />
<glyph unicode="&#xac;" horiz-adv-x="1200" d="M994 719V246H799V538H206V719H994Z" />
<glyph unicode="&#xad;" horiz-adv-x="1200" d="M281 534V718H919V534H281Z" />
<glyph unicode="&#xae;" horiz-adv-x="1200" d="M601 1502Q747 1502 865 1432T1052 1243T1122 978Q1122 832 1053 714T865 527T601 457Q454 457 335 526T146 714T76 978Q76 1124 146 1243T335 1432T601 1502ZM601 1394Q486 1394 395 1338T252 1188T200 978Q200
863 252 770T395 621T601 566Q716 566 805 621T946 769T998 978Q998 1094 947 1188T806 1338T601 1394ZM567 1271Q821 1271 821 1100Q821 1038 785 999T694 942L859 706H714L573 919H520V706H396V1271H567ZM574 1176H520V1017H577Q632 1017 662 1036T693 1101Q693
1176 574 1176Z" />
<glyph unicode="&#xaf;" horiz-adv-x="1200" d="M882 1338H317V1501H882V1338Z" />
<glyph unicode="&#xb0;" horiz-adv-x="1200" d="M472 1505Q557 1505 634 1468T760 1358T809 1183Q809 1080 760 1008T634 897T472 859Q388 859 311 897T184 1008T135 1184Q135 1287 184 1358T310 1467T472 1505ZM472 1362Q406 1362 357 1318T308 1184Q308 1095
357 1049T472 1003Q539 1003 587 1049T635 1183Q635 1271 587 1316T472 1362Z" />
<glyph unicode="&#xb1;" horiz-adv-x="1200" d="M700 1091V787H994V609H700V334H500V609H206V787H500V1091H700ZM994 181V0H206V181H994Z" />
<glyph unicode="&#xb2;" horiz-adv-x="1200" d="M876 1073Q876 1012 847 965T748 871T558 768H897L877 630H317V751Q472 842 552 894T661 983T691 1059Q691 1099 664 1122T587 1146Q542 1146 500 1127T418 1059L301 1146Q422 1284 603 1284Q736 1284 806 1224T876 1073Z" />
<glyph unicode="&#xb3;" horiz-adv-x="1200" d="M615 1284Q742 1284 812 1235T882 1106Q882 1051 850 1018T741 970Q827 957 869 924T911 819Q911 729 828 674T595 618Q511 618 429 644T286 732L392 821Q438 783 488 766T595 748Q662 748 695 770T728 830Q728
872 698 891T602 910H504L523 1012H596Q647 1012 675 1028T704 1080Q704 1155 598 1155Q546 1155 499 1140T400 1086L309 1181Q377 1236 453 1260T615 1284Z" />
<glyph unicode="&#xb4;" horiz-adv-x="1200" d="M762 1623L856 1443L418 1267L352 1383L762 1623Z" />
<glyph unicode="&#xb5;" horiz-adv-x="1200" d="M998 1056V351Q998 248 1012 159T1042 0L835 -25Q823 2 812 50T795 139Q750 64 680 19T533 -26Q462 -26 421 -4T339 73Q357 13 367 -39T378 -148V-406L160 -431V1056H384V461Q384 364 393 296T434 191T535 155Q614
155 673 197T774 297V1056H998Z" />
<glyph unicode="&#xb6;" horiz-adv-x="1200" d="M1132 1380V-409L936 -431V1212H733V-409L537 -431V559Q382 565 277 618T120 762T67 967Q67 1084 124 1177T294 1325T574 1380H1132Z" />
<glyph unicode="&#xb7;" horiz-adv-x="1200" d="M406 684Q406 738 431 781T501 851T599 877Q654 877 698 851T767 782T793 684Q793 631 768 587T698 516T599 490Q545 490 501 516T432 586T406 684Z" />
<glyph unicode="&#xb8;" horiz-adv-x="1200" d="M665 -284Q665 -236 619 -221T488 -206L509 32H647V-107Q748 -117 794 -167T841 -286Q841 -352 806 -399T711 -470T576 -495Q512 -495 455 -480T357 -441L419 -326Q448 -341 483 -350T551 -359Q602 -359 633 -342T665
-284Z" />
<glyph unicode="&#xb9;" horiz-adv-x="1200" d="M644 630V1087L466 991L382 1107L674 1272H817V630H644Z" />
<glyph unicode="&#xba;" horiz-adv-x="1200" d="M600 1505Q730 1505 824 1449T969 1293T1020 1060Q1020 928 969 827T823 669T600 612Q470 612 376 668T230 824T179 1060Q179 1190 230 1290T377 1447T600 1505ZM1001 176V0H200V176H1001ZM600 1351Q502 1351 445
1282T388 1060Q388 907 445 837T600 767Q698 767 754 837T811 1060Q811 1212 755 1281T600 1351Z" />
<glyph unicode="&#xbb;" horiz-adv-x="1200" d="M832 582L576 999L708 1083L1057 657V506L708 81L576 165L832 582ZM397 582L142 999L273 1083L620 657V506L273 81L142 165L397 582Z" />
<glyph unicode="&#xbc;" horiz-adv-x="1200" d="M247 738V1195L69 1099L-15 1215L277 1380H420V738H247ZM98 361L28 485L1098 997L1166 873L98 361ZM1113 112V0H944V112H585V221L845 661L993 606L776 242H945L964 409H1113V242H1215V112H1113Z" />
<glyph unicode="&#xbd;" horiz-adv-x="1200" d="M241 738V1195L63 1099L-21 1215L271 1380H414V738H241ZM90 361L20 485L1090 997L1158 873L90 361ZM1199 443Q1199 382 1170 335T1071 241T881 138H1220L1200 0H640V121Q795 212 875 264T984 353T1014 429Q1014
469 987 492T910 516Q865 516 823 497T741 429L624 516Q745 654 926 654Q1059 654 1129 594T1199 443Z" />
<glyph unicode="&#xbe;" horiz-adv-x="1200" d="M316 1392Q443 1392 513 1343T583 1214Q583 1159 551 1126T442 1078Q528 1065 570 1032T612 927Q612 837 529 782T296 726Q212 726 130 752T-13 840L93 929Q139 891 189 874T296 856Q363 856 396 878T429 938Q429
980 399 999T303 1018H205L224 1120H297Q348 1120 376 1136T405 1188Q405 1263 299 1263Q247 1263 200 1248T101 1194L10 1289Q78 1344 154 1368T316 1392ZM114 361L44 485L1114 997L1182 873L114 361ZM1113 112V0H944V112H585V221L845 661L993 606L776 242H945L964
409H1113V242H1215V112H1113Z" />
<glyph unicode="&#xbf;" horiz-adv-x="1200" d="M642 1007Q706 1007 750 962T795 854Q795 793 751 749T642 704Q579 704 536 748T492 854Q492 917 535 962T642 1007ZM755 505V429Q755 330 721 266T635 158T532 79T445 2T410 -98Q410 -172 469 -212T618 -252Q688
-252 758 -219T888 -116L1039 -229Q953 -330 842 -381T595 -433Q462 -433 369 -388T226 -270T177 -115Q177 -19 213 42T304 144T413 225T504 315T541 446V505H755Z" />
<glyph unicode="&#xc0;" horiz-adv-x="1200" d="M842 332H349L253 0H17L456 1380H744L1184 0H938L842 332ZM397 511H793L596 1200L397 511ZM711 1852L1104 1624L1043 1508L608 1673L711 1852Z" />
<glyph unicode="&#xc1;" horiz-adv-x="1200" d="M842 332H349L253 0H17L456 1380H744L1184 0H938L842 332ZM397 511H793L596 1200L397 511ZM762 1847L854 1669L409 1508L352 1624L762 1847Z" />
<glyph unicode="&#xc2;" horiz-adv-x="1200" d="M842 332H349L253 0H17L456 1380H744L1184 0H938L842 332ZM397 511H793L596 1200L397 511ZM673 1846L946 1613L858 1512L600 1676L344 1512L253 1613L529 1846H673Z" />
<glyph unicode="&#xc3;" horiz-adv-x="1200" d="M842 332H349L253 0H17L456 1380H744L1184 0H938L842 332ZM397 511H793L596 1200L397 511ZM971 1542Q916 1542 878 1565T807 1612T740 1636Q705 1636 682 1613T634 1545L508 1608Q543 1688 600 1745T738 1802Q796
1802 834 1779T903 1732T970 1708Q1001 1708 1025 1729T1076 1795L1202 1733Q1163 1643 1104 1593T971 1542Z" />
<glyph unicode="&#xc4;" horiz-adv-x="1200" d="M842 332H349L253 0H17L456 1380H744L1184 0H938L842 332ZM397 511H793L596 1200L397 511ZM640 1531Q584 1531 547 1567T509 1658Q509 1712 546 1748T640 1785Q695 1785 732 1749T769 1658Q769 1604 732 1568T640
1531ZM1071 1531Q1017 1531 980 1567T942 1658Q942 1712 979 1748T1071 1785Q1127 1785 1164 1749T1202 1658Q1202 1604 1165 1568T1071 1531Z" />
<glyph unicode="&#xc5;" horiz-adv-x="1200" d="M842 332H349L253 0H17L456 1380H744L1184 0H938L842 332ZM397 511H793L596 1200L397 511ZM855 1921Q965 1921 1032 1855T1099 1694Q1099 1632 1069 1581T984 1499T855 1468Q783 1468 729 1498T644 1580T613 1694Q613
1788 680 1854T855 1921ZM855 1802Q810 1802 783 1774T755 1694Q755 1642 782 1614T855 1586Q902 1586 929 1614T957 1694Q957 1746 930 1774T855 1802Z" />
<glyph unicode="&#xc6;" horiz-adv-x="1200" d="M647 334H287L205 0H-24L359 1380H1131L1106 1209H675L763 786H1113V614H795L886 172H1212V0H711L647 334ZM329 509H615L484 1212L329 509Z" />
<glyph unicode="&#xc7;" horiz-adv-x="1200" d="M716 1408Q856 1408 952 1372T1132 1267L1011 1123Q949 1175 878 1200T727 1225Q624 1225 537 1173T398 1004T345 692Q345 501 395 384T532 214T727 161Q838 161 911 197T1040 280L1152 137Q1083 70 977 22T719
-27Q544 -27 405 55T185 298T104 692Q104 924 187 1083T409 1325T716 1408ZM766 -284Q766 -236 720 -221T589 -206L610 32H748V-107Q849 -117 895 -167T942 -286Q942 -352 907 -399T812 -470T677 -495Q613 -495 556 -480T458 -441L520 -326Q549 -341 584 -350T652
-359Q703 -359 734 -342T766 -284Z" />
<glyph unicode="&#xc8;" horiz-adv-x="1200" d="M458 1204V789H958V613H458V176H1067V0H226V1380H1056L1030 1204H458ZM496 1852L889 1624L828 1508L393 1673L496 1852Z" />
<glyph unicode="&#xc9;" horiz-adv-x="1200" d="M458 1204V789H958V613H458V176H1067V0H226V1380H1056L1030 1204H458ZM803 1847L895 1669L450 1508L393 1624L803 1847Z" />
<glyph unicode="&#xca;" horiz-adv-x="1200" d="M458 1204V789H958V613H458V176H1067V0H226V1380H1056L1030 1204H458ZM714 1846L987 1613L899 1512L641 1676L385 1512L294 1613L570 1846H714Z" />
<glyph unicode="&#xcb;" horiz-adv-x="1200" d="M458 1204V789H958V613H458V176H1067V0H226V1380H1056L1030 1204H458ZM425 1531Q369 1531 332 1567T294 1658Q294 1712 331 1748T425 1785Q480 1785 517 1749T554 1658Q554 1604 517 1568T425 1531ZM856 1531Q802
1531 765 1567T727 1658Q727 1712 764 1748T856 1785Q912 1785 949 1749T987 1658Q987 1604 950 1568T856 1531Z" />
<glyph unicode="&#xcc;" horiz-adv-x="1200" d="M1015 1380V1203H717V178H1015V0H185V178H483V1203H185V1380H1015ZM711 1852L1104 1624L1043 1508L608 1673L711 1852Z" />
<glyph unicode="&#xcd;" horiz-adv-x="1200" d="M1015 1380V1203H717V178H1015V0H185V178H483V1203H185V1380H1015ZM762 1847L854 1669L409 1508L352 1624L762 1847Z" />
<glyph unicode="&#xce;" horiz-adv-x="1200" d="M1015 1380V1203H717V178H1015V0H185V178H483V1203H185V1380H1015ZM673 1846L946 1613L858 1512L600 1676L344 1512L253 1613L529 1846H673Z" />
<glyph unicode="&#xcf;" horiz-adv-x="1200" d="M1015 1380V1203H717V178H1015V0H185V178H483V1203H185V1380H1015ZM640 1531Q584 1531 547 1567T509 1658Q509 1712 546 1748T640 1785Q695 1785 732 1749T769 1658Q769 1604 732 1568T640 1531ZM1071 1531Q1017
1531 980 1567T942 1658Q942 1712 979 1748T1071 1785Q1127 1785 1164 1749T1202 1658Q1202 1604 1165 1568T1071 1531Z" />
<glyph unicode="&#xd0;" horiz-adv-x="1200" d="M684 785V627H32V785H684ZM900 697Q900 862 867 962T780 1114T660 1184T524 1202H397V176H525Q597 176 664 199T784 279T868 437T900 697ZM1143 697Q1143 483 1088 346T939 134T732 30T503 0H165V1380H480Q605 1380
723 1353T937 1253T1087 1046T1143 697Z" />
<glyph unicode="&#xd1;" horiz-adv-x="1200" d="M755 0L316 1174Q319 1143 324 1086T335 954T345 795T349 627V0H143V1380H444L884 205Q879 247 872 328T858 518T851 751V1380H1057V0H755ZM720 1542Q665 1542 627 1565T556 1612T489 1636Q454 1636 431 1613T383
1545L257 1608Q292 1688 349 1745T487 1802Q545 1802 583 1779T652 1732T719 1708Q750 1708 774 1729T825 1795L951 1733Q912 1643 853 1593T720 1542Z" />
<glyph unicode="&#xd2;" horiz-adv-x="1200" d="M1125 690Q1125 477 1066 316T890 64T600 -27Q428 -27 311 61T134 310T75 688Q75 902 134 1063T310 1316T600 1408Q773 1408 890 1319T1066 1069T1125 690ZM885 690Q885 958 819 1092T600 1227Q448 1227 382 1092T315
688Q315 421 383 288T600 154Q754 154 819 288T885 690ZM711 1852L1104 1624L1043 1508L608 1673L711 1852Z" />
<glyph unicode="&#xd3;" horiz-adv-x="1200" d="M1125 690Q1125 477 1066 316T890 64T600 -27Q428 -27 311 61T134 310T75 688Q75 902 134 1063T310 1316T600 1408Q773 1408 890 1319T1066 1069T1125 690ZM885 690Q885 958 819 1092T600 1227Q448 1227 382 1092T315
688Q315 421 383 288T600 154Q754 154 819 288T885 690ZM762 1847L854 1669L409 1508L352 1624L762 1847Z" />
<glyph unicode="&#xd4;" horiz-adv-x="1200" d="M1125 690Q1125 477 1066 316T890 64T600 -27Q428 -27 311 61T134 310T75 688Q75 902 134 1063T310 1316T600 1408Q773 1408 890 1319T1066 1069T1125 690ZM885 690Q885 958 819 1092T600 1227Q448 1227 382 1092T315
688Q315 421 383 288T600 154Q754 154 819 288T885 690ZM673 1846L946 1613L858 1512L600 1676L344 1512L253 1613L529 1846H673Z" />
<glyph unicode="&#xd5;" horiz-adv-x="1200" d="M1125 690Q1125 477 1066 316T890 64T600 -27Q428 -27 311 61T134 310T75 688Q75 902 134 1063T310 1316T600 1408Q773 1408 890 1319T1066 1069T1125 690ZM885 690Q885 958 819 1092T600 1227Q448 1227 382 1092T315
688Q315 421 383 288T600 154Q754 154 819 288T885 690ZM971 1542Q916 1542 878 1565T807 1612T740 1636Q705 1636 682 1613T634 1545L508 1608Q543 1688 600 1745T738 1802Q796 1802 834 1779T903 1732T970 1708Q1001 1708 1025 1729T1076 1795L1202 1733Q1163
1643 1104 1593T971 1542Z" />
<glyph unicode="&#xd6;" horiz-adv-x="1200" d="M1125 690Q1125 477 1066 316T890 64T600 -27Q428 -27 311 61T134 310T75 688Q75 902 134 1063T310 1316T600 1408Q773 1408 890 1319T1066 1069T1125 690ZM885 690Q885 958 819 1092T600 1227Q448 1227 382 1092T315
688Q315 421 383 288T600 154Q754 154 819 288T885 690ZM640 1531Q584 1531 547 1567T509 1658Q509 1712 546 1748T640 1785Q695 1785 732 1749T769 1658Q769 1604 732 1568T640 1531ZM1071 1531Q1017 1531 980 1567T942 1658Q942 1712 979 1748T1071 1785Q1127
1785 1164 1749T1202 1658Q1202 1604 1165 1568T1071 1531Z" />
<glyph unicode="&#xd7;" horiz-adv-x="1200" d="M840 986L971 854L730 614L971 374L840 243L600 484L360 243L229 374L470 614L229 854L360 986L600 744L840 986Z" />
<glyph unicode="&#xd8;" horiz-adv-x="1200" d="M600 1408Q769 1408 886 1319T1064 1069T1125 690Q1125 477 1066 316T890 64T600 -27Q431 -27 314 61T136 310T75 688Q75 902 134 1063T310 1316T600 1408ZM781 1606L959 1557L881 1308L809 1172L510 141L489 9L420
-219L243 -170L325 91L397 226L696 1255L715 1380L781 1606ZM600 1228Q446 1228 379 1093T311 688Q311 495 341 377T435 206T600 153Q756 153 822 287T889 690Q889 883 860 1002T768 1174T600 1228Z" />
<glyph unicode="&#xd9;" horiz-adv-x="1200" d="M1078 1380V453Q1078 312 1022 204T858 35T599 -27Q445 -27 339 33T178 202T122 453V1380H354V495Q354 327 412 243T599 158Q728 158 786 242T845 495V1380H1078ZM711 1852L1104 1624L1043 1508L608 1673L711 1852Z" />
<glyph unicode="&#xda;" horiz-adv-x="1200" d="M1078 1380V453Q1078 312 1022 204T858 35T599 -27Q445 -27 339 33T178 202T122 453V1380H354V495Q354 327 412 243T599 158Q728 158 786 242T845 495V1380H1078ZM762 1847L854 1669L409 1508L352 1624L762 1847Z" />
<glyph unicode="&#xdb;" horiz-adv-x="1200" d="M1078 1380V453Q1078 312 1022 204T858 35T599 -27Q445 -27 339 33T178 202T122 453V1380H354V495Q354 327 412 243T599 158Q728 158 786 242T845 495V1380H1078ZM673 1846L946 1613L858 1512L600 1676L344 1512L253
1613L529 1846H673Z" />
<glyph unicode="&#xdc;" horiz-adv-x="1200" d="M1078 1380V453Q1078 312 1022 204T858 35T599 -27Q445 -27 339 33T178 202T122 453V1380H354V495Q354 327 412 243T599 158Q728 158 786 242T845 495V1380H1078ZM640 1531Q584 1531 547 1567T509 1658Q509 1712
546 1748T640 1785Q695 1785 732 1749T769 1658Q769 1604 732 1568T640 1531ZM1071 1531Q1017 1531 980 1567T942 1658Q942 1712 979 1748T1071 1785Q1127 1785 1164 1749T1202 1658Q1202 1604 1165 1568T1071 1531Z" />
<glyph unicode="&#xdd;" horiz-adv-x="1200" d="M717 527V0H483V525L23 1380H278L605 726L934 1380H1177L717 527ZM766 1847L858 1669L413 1508L356 1624L766 1847Z" />
<glyph unicode="&#xde;" horiz-adv-x="1200" d="M410 1380V1151H575Q836 1151 981 1043T1127 709Q1127 548 1060 446T873 296T591 248H410V0H178V1380H410ZM591 977H410V424H597Q683 424 748 449T848 536T884 706Q884 850 805 913T591 977Z" />
<glyph unicode="&#xdf;" horiz-adv-x="1200" d="M589 1505Q758 1505 858 1421T958 1209Q958 1151 937 1111T885 1039T822 981T770 926T749 860Q749 810 787 774T882 701T996 619T1092 505T1131 335Q1131 218 1079 138T940 15T746 -27Q668 -27 606 -10T490 39L570
191Q605 172 644 161T722 150Q806 150 853 194T901 328Q901 389 875 431T808 507T721 570T634 634T567 715T541 826Q541 883 561 923T612 994T672 1054T722 1116T743 1193Q743 1229 728 1262T678 1316T585 1338Q488 1338 439 1277T389 1077V0H165V1065Q165 1278
275 1391T589 1505Z" />
<glyph unicode="&#xe0;" horiz-adv-x="1200" d="M985 259Q985 197 1004 169T1065 126L1015 -26Q937 -17 881 17T796 120Q738 47 649 10T459 -27Q299 -27 206 63T112 301Q112 468 242 558T614 648H765V717Q765 819 704 864T530 909Q478 909 404 896T249 854L194
1012Q293 1049 388 1066T564 1084Q776 1084 880 990T985 730V259ZM527 138Q595 138 660 174T765 275V508H641Q483 508 415 456T347 311Q347 227 392 183T527 138ZM1023 1244L593 1431L696 1610L1090 1362L1023 1244Z" />
<glyph unicode="&#xe1;" horiz-adv-x="1200" d="M985 259Q985 197 1004 169T1065 126L1015 -26Q937 -17 881 17T796 120Q738 47 649 10T459 -27Q299 -27 206 63T112 301Q112 468 242 558T614 648H765V717Q765 819 704 864T530 909Q478 909 404 896T249 854L194
1012Q293 1049 388 1066T564 1084Q776 1084 880 990T985 730V259ZM527 138Q595 138 660 174T765 275V508H641Q483 508 415 456T347 311Q347 227 392 183T527 138ZM1003 1623L1097 1443L659 1267L593 1383L1003 1623Z" />
<glyph unicode="&#xe2;" horiz-adv-x="1200" d="M985 259Q985 197 1004 169T1065 126L1015 -26Q937 -17 881 17T796 120Q738 47 649 10T459 -27Q299 -27 206 63T112 301Q112 468 242 558T614 648H765V717Q765 819 704 864T530 909Q478 909 404 896T249 854L194
1012Q293 1049 388 1066T564 1084Q776 1084 880 990T985 730V259ZM527 138Q595 138 660 174T765 275V508H641Q483 508 415 456T347 311Q347 227 392 183T527 138ZM588 1245L494 1345L770 1598H914L1187 1345L1097 1245L842 1428L588 1245Z" />
<glyph unicode="&#xe3;" horiz-adv-x="1200" d="M985 259Q985 197 1004 169T1065 126L1015 -26Q937 -17 881 17T796 120Q738 47 649 10T459 -27Q299 -27 206 63T112 301Q112 468 242 558T614 648H765V717Q765 819 704 864T530 909Q478 909 404 896T249 854L194
1012Q293 1049 388 1066T564 1084Q776 1084 880 990T985 730V259ZM527 138Q595 138 660 174T765 275V508H641Q483 508 415 456T347 311Q347 227 392 183T527 138ZM956 1299Q901 1299 863 1322T792 1369T725 1393Q690 1393 667 1370T619 1302L493 1365Q528 1445
585 1502T723 1559Q781 1559 819 1536T888 1489T955 1465Q986 1465 1010 1486T1061 1552L1187 1490Q1148 1400 1089 1350T956 1299Z" />
<glyph unicode="&#xe4;" horiz-adv-x="1200" d="M985 259Q985 197 1004 169T1065 126L1015 -26Q937 -17 881 17T796 120Q738 47 649 10T459 -27Q299 -27 206 63T112 301Q112 468 242 558T614 648H765V717Q765 819 704 864T530 909Q478 909 404 896T249 854L194
1012Q293 1049 388 1066T564 1084Q776 1084 880 990T985 730V259ZM527 138Q595 138 660 174T765 275V508H641Q483 508 415 456T347 311Q347 227 392 183T527 138ZM625 1288Q569 1288 532 1324T494 1415Q494 1469 531 1505T625 1542Q680 1542 717 1506T754 1415Q754
1361 717 1325T625 1288ZM1056 1288Q1002 1288 965 1324T927 1415Q927 1469 964 1505T1056 1542Q1112 1542 1149 1506T1187 1415Q1187 1361 1150 1325T1056 1288Z" />
<glyph unicode="&#xe5;" horiz-adv-x="1200" d="M985 259Q985 197 1004 169T1065 126L1015 -26Q937 -17 881 17T796 120Q738 47 649 10T459 -27Q299 -27 206 63T112 301Q112 468 242 558T614 648H765V717Q765 819 704 864T530 909Q478 909 404 896T249 854L194
1012Q293 1049 388 1066T564 1084Q776 1084 880 990T985 730V259ZM527 138Q595 138 660 174T765 275V508H641Q483 508 415 456T347 311Q347 227 392 183T527 138ZM840 1678Q950 1678 1017 1612T1084 1451Q1084 1389 1054 1338T969 1256T840 1225Q768 1225 714 1255T629
1337T598 1451Q598 1545 665 1611T840 1678ZM840 1559Q795 1559 768 1531T740 1451Q740 1399 767 1371T840 1343Q887 1343 914 1371T942 1451Q942 1503 915 1531T840 1559Z" />
<glyph unicode="&#xe6;" horiz-adv-x="1200" d="M864 1084Q1047 1084 1127 945T1208 556Q1208 502 1204 460H687Q701 295 751 217T900 139Q955 139 998 158T1090 213L1183 81Q1124 33 1054 3T892 -27Q784 -27 709 19T580 156Q519 59 455 16T290 -27Q151 -27 70
64T-12 303Q-12 469 93 557T408 646H495V717Q495 825 448 874T314 923Q263 923 220 911T114 870L59 1015Q129 1047 197 1065T336 1084Q450 1084 512 1040T606 921Q639 996 704 1040T864 1084ZM495 509H426Q299 509 250 456T200 314Q200 226 234 179T327 132Q385
132 428 173T513 295Q505 345 500 399T495 509ZM857 922Q778 922 738 853T687 607H1016Q1014 764 981 843T857 922Z" />
<glyph unicode="&#xe7;" horiz-adv-x="1200" d="M687 157Q761 157 825 182T947 249L1051 105Q982 46 884 10T680 -27Q518 -27 403 41T227 234T166 523Q166 684 227 810T405 1010T684 1084Q792 1084 883 1052T1050 957L947 816Q885 859 821 881T688 904Q563 904
484 812T404 523Q404 391 440 311T541 194T687 157ZM743 -284Q743 -236 697 -221T566 -206L587 32H725V-107Q826 -117 872 -167T919 -286Q919 -352 884 -399T789 -470T654 -495Q590 -495 533 -480T435 -441L497 -326Q526 -341 561 -350T629 -359Q680 -359 711 -342T743
-284Z" />
<glyph unicode="&#xe8;" horiz-adv-x="1200" d="M364 456Q371 348 410 280T512 179T652 147Q730 147 796 171T929 239L1026 105Q952 45 853 9T641 -27Q477 -27 364 43T191 238T132 527Q132 686 190 811T356 1010T614 1084Q755 1084 856 1020T1013 839T1069 556Q1069
529 1068 503T1064 456H364ZM616 918Q511 918 443 843T363 609H852Q849 758 789 838T616 918ZM800 1244L370 1431L473 1610L867 1362L800 1244Z" />
<glyph unicode="&#xe9;" horiz-adv-x="1200" d="M364 456Q371 348 410 280T512 179T652 147Q730 147 796 171T929 239L1026 105Q952 45 853 9T641 -27Q477 -27 364 43T191 238T132 527Q132 686 190 811T356 1010T614 1084Q755 1084 856 1020T1013 839T1069 556Q1069
529 1068 503T1064 456H364ZM616 918Q511 918 443 843T363 609H852Q849 758 789 838T616 918ZM780 1623L874 1443L436 1267L370 1383L780 1623Z" />
<glyph unicode="&#xea;" horiz-adv-x="1200" d="M364 456Q371 348 410 280T512 179T652 147Q730 147 796 171T929 239L1026 105Q952 45 853 9T641 -27Q477 -27 364 43T191 238T132 527Q132 686 190 811T356 1010T614 1084Q755 1084 856 1020T1013 839T1069 556Q1069
529 1068 503T1064 456H364ZM616 918Q511 918 443 843T363 609H852Q849 758 789 838T616 918ZM365 1245L271 1345L547 1598H691L964 1345L874 1245L619 1428L365 1245Z" />
<glyph unicode="&#xeb;" horiz-adv-x="1200" d="M364 456Q371 348 410 280T512 179T652 147Q730 147 796 171T929 239L1026 105Q952 45 853 9T641 -27Q477 -27 364 43T191 238T132 527Q132 686 190 811T356 1010T614 1084Q755 1084 856 1020T1013 839T1069 556Q1069
529 1068 503T1064 456H364ZM616 918Q511 918 443 843T363 609H852Q849 758 789 838T616 918ZM402 1288Q346 1288 309 1324T271 1415Q271 1469 308 1505T402 1542Q457 1542 494 1506T531 1415Q531 1361 494 1325T402 1288ZM833 1288Q779 1288 742 1324T704 1415Q704
1469 741 1505T833 1542Q889 1542 926 1506T964 1415Q964 1361 927 1325T833 1288Z" />
<glyph unicode="&#xec;" horiz-adv-x="1200" d="M755 1056V164H1042V0H215V164H531V892H225V1056H755ZM783 1244L353 1431L456 1610L850 1362L783 1244Z" />
<glyph unicode="&#xed;" horiz-adv-x="1200" d="M755 1056V164H1042V0H215V164H531V892H225V1056H755ZM763 1623L857 1443L419 1267L353 1383L763 1623Z" />
<glyph unicode="&#xee;" horiz-adv-x="1200" d="M755 1056V164H1042V0H215V164H531V892H225V1056H755ZM348 1245L254 1345L530 1598H674L947 1345L857 1245L602 1428L348 1245Z" />
<glyph unicode="&#xef;" horiz-adv-x="1200" d="M755 1056V164H1042V0H215V164H531V892H225V1056H755ZM385 1288Q329 1288 292 1324T254 1415Q254 1469 291 1505T385 1542Q440 1542 477 1506T514 1415Q514 1361 477 1325T385 1288ZM816 1288Q762 1288 725 1324T687
1415Q687 1469 724 1505T816 1542Q872 1542 909 1506T947 1415Q947 1361 910 1325T816 1288Z" />
<glyph unicode="&#xf0;" horiz-adv-x="1200" d="M306 1131L450 1282Q404 1302 351 1317T236 1345L283 1505Q369 1488 443 1467T579 1416L721 1565L845 1457L728 1336Q912 1213 997 1015T1083 537Q1083 370 1024 243T854 45T589 -27Q457 -27 349 31T177 200T113
469Q113 617 172 728T328 901T540 963Q637 963 709 931T838 839Q808 956 745 1047T596 1202L456 1058L306 1131ZM856 526Q856 563 856 596T852 662Q806 727 737 761T585 795Q519 795 464 761T375 657T342 476Q342 310 411 227T590 144Q716 144 786 240T856 526Z"
/>
<glyph unicode="&#xf1;" horiz-adv-x="1200" d="M178 0V1056H371L388 919Q454 1000 544 1042T729 1084Q877 1084 950 1002T1024 770V0H800V659Q800 751 789 807T746 888T649 913Q598 913 552 891T468 834T402 758V0H178ZM716 1299Q661 1299 623 1322T552 1369T485
1393Q450 1393 427 1370T379 1302L253 1365Q288 1445 345 1502T483 1559Q541 1559 579 1536T648 1489T715 1465Q746 1465 770 1486T821 1552L947 1490Q908 1400 849 1350T716 1299Z" />
<glyph unicode="&#xf2;" horiz-adv-x="1200" d="M601 1084Q756 1084 862 1015T1022 822T1077 530Q1077 363 1022 238T860 43T600 -27Q447 -27 341 40T179 233T123 528Q123 693 178 818T341 1013T601 1084ZM601 910Q480 910 419 818T358 528Q358 332 418 239T600
146Q721 146 781 239T842 530Q842 725 782 817T601 910ZM782 1244L352 1431L455 1610L849 1362L782 1244Z" />
<glyph unicode="&#xf3;" horiz-adv-x="1200" d="M601 1084Q756 1084 862 1015T1022 822T1077 530Q1077 363 1022 238T860 43T600 -27Q447 -27 341 40T179 233T123 528Q123 693 178 818T341 1013T601 1084ZM601 910Q480 910 419 818T358 528Q358 332 418 239T600
146Q721 146 781 239T842 530Q842 725 782 817T601 910ZM762 1623L856 1443L418 1267L352 1383L762 1623Z" />
<glyph unicode="&#xf4;" horiz-adv-x="1200" d="M601 1084Q756 1084 862 1015T1022 822T1077 530Q1077 363 1022 238T860 43T600 -27Q447 -27 341 40T179 233T123 528Q123 693 178 818T341 1013T601 1084ZM601 910Q480 910 419 818T358 528Q358 332 418 239T600
146Q721 146 781 239T842 530Q842 725 782 817T601 910ZM347 1245L253 1345L529 1598H673L946 1345L856 1245L601 1428L347 1245Z" />
<glyph unicode="&#xf5;" horiz-adv-x="1200" d="M601 1084Q756 1084 862 1015T1022 822T1077 530Q1077 363 1022 238T860 43T600 -27Q447 -27 341 40T179 233T123 528Q123 693 178 818T341 1013T601 1084ZM601 910Q480 910 419 818T358 528Q358 332 418 239T600
146Q721 146 781 239T842 530Q842 725 782 817T601 910ZM715 1299Q660 1299 622 1322T551 1369T484 1393Q449 1393 426 1370T378 1302L252 1365Q287 1445 344 1502T482 1559Q540 1559 578 1536T647 1489T714 1465Q745 1465 769 1486T820 1552L946 1490Q907 1400
848 1350T715 1299Z" />
<glyph unicode="&#xf6;" horiz-adv-x="1200" d="M601 1084Q756 1084 862 1015T1022 822T1077 530Q1077 363 1022 238T860 43T600 -27Q447 -27 341 40T179 233T123 528Q123 693 178 818T341 1013T601 1084ZM601 910Q480 910 419 818T358 528Q358 332 418 239T600
146Q721 146 781 239T842 530Q842 725 782 817T601 910ZM384 1288Q328 1288 291 1324T253 1415Q253 1469 290 1505T384 1542Q439 1542 476 1506T513 1415Q513 1361 476 1325T384 1288ZM815 1288Q761 1288 724 1324T686 1415Q686 1469 723 1505T815 1542Q871 1542
908 1506T946 1415Q946 1361 909 1325T815 1288Z" />
<glyph unicode="&#xf7;" horiz-adv-x="1200" d="M994 719V538H206V719H994ZM600 374Q664 374 708 330T752 224Q752 160 708 116T600 71Q536 71 492 115T448 224Q448 286 492 330T600 374ZM600 1186Q664 1186 708 1142T752 1035Q752 972 708 929T600 885Q536 885
492 928T448 1035Q448 1097 492 1141T600 1186Z" />
<glyph unicode="&#xf8;" horiz-adv-x="1200" d="M601 1084Q752 1084 858 1015T1020 822T1077 530Q1077 363 1022 238T860 43T600 -27Q450 -27 344 40T180 233T123 528Q123 693 178 818T341 1013T601 1084ZM762 1315L936 1264L849 999L778 881L542 128L519 -4L440
-266L265 -214L357 63L429 188L666 946L681 1064L762 1315ZM601 912Q479 912 418 819T357 528Q357 386 382 302T461 182T600 145Q723 145 783 237T843 530Q843 671 818 754T740 875T601 912Z" />
<glyph unicode="&#xf9;" horiz-adv-x="1200" d="M402 1056V318Q402 224 439 184T553 144Q625 144 692 187T798 292V1056H1022V0H829L815 135Q756 56 666 15T482 -27Q329 -27 254 57T178 290V1056H402ZM782 1244L352 1431L455 1610L849 1362L782 1244Z" />
<glyph unicode="&#xfa;" horiz-adv-x="1200" d="M402 1056V318Q402 224 439 184T553 144Q625 144 692 187T798 292V1056H1022V0H829L815 135Q756 56 666 15T482 -27Q329 -27 254 57T178 290V1056H402ZM762 1623L856 1443L418 1267L352 1383L762 1623Z" />
<glyph unicode="&#xfb;" horiz-adv-x="1200" d="M402 1056V318Q402 224 439 184T553 144Q625 144 692 187T798 292V1056H1022V0H829L815 135Q756 56 666 15T482 -27Q329 -27 254 57T178 290V1056H402ZM347 1245L253 1345L529 1598H673L946 1345L856 1245L601 1428L347
1245Z" />
<glyph unicode="&#xfc;" horiz-adv-x="1200" d="M402 1056V318Q402 224 439 184T553 144Q625 144 692 187T798 292V1056H1022V0H829L815 135Q756 56 666 15T482 -27Q329 -27 254 57T178 290V1056H402ZM384 1288Q328 1288 291 1324T253 1415Q253 1469 290 1505T384
1542Q439 1542 476 1506T513 1415Q513 1361 476 1325T384 1288ZM815 1288Q761 1288 724 1324T686 1415Q686 1469 723 1505T815 1542Q871 1542 908 1506T946 1415Q946 1361 909 1325T815 1288Z" />
<glyph unicode="&#xfd;" horiz-adv-x="1200" d="M1102 1056L738 -4Q697 -124 633 -215T469 -363T221 -432L192 -264Q299 -247 362 -215T463 -129T530 0H454L98 1056H336L602 156L872 1056H1102ZM762 1623L856 1443L418 1267L352 1383L762 1623Z" />
<glyph unicode="&#xfe;" horiz-adv-x="1200" d="M402 1505V935Q456 1007 531 1045T693 1084Q833 1084 917 1016T1039 823T1077 530Q1077 369 1031 243T895 45T670 -27Q504 -27 402 90V-406L178 -431V1480L402 1505ZM631 911Q556 911 499 866T402 760V266Q440 209
492 179T611 148Q724 148 783 239T842 529Q842 664 819 748T749 872T631 911Z" />
<glyph unicode="&#xff;" horiz-adv-x="1200" d="M1102 1056L738 -4Q697 -124 633 -215T469 -363T221 -432L192 -264Q299 -247 362 -215T463 -129T530 0H454L98 1056H336L602 156L872 1056H1102ZM384 1288Q328 1288 291 1324T253 1415Q253 1469 290 1505T384 1542Q439
1542 476 1506T513 1415Q513 1361 476 1325T384 1288ZM815 1288Q761 1288 724 1324T686 1415Q686 1469 723 1505T815 1542Q871 1542 908 1506T946 1415Q946 1361 909 1325T815 1288Z" />
<glyph unicode="&#x2013;" horiz-adv-x="1200" d="M61 534V718H1139V534H61Z" />
<glyph unicode="&#x2014;" horiz-adv-x="1200" d="M0 534V718H1200V534H0Z" />
<glyph unicode="&#x2018;" horiz-adv-x="1200" d="M754 1090Q754 1023 706 977T588 931Q519 931 472 977T424 1090Q424 1122 433 1158T470 1251L626 1578H775L692 1216Q720 1196 737 1164T754 1090Z" />
<glyph unicode="&#x2019;" horiz-adv-x="1200" d="M444 1419Q444 1485 493 1531T610 1578Q679 1578 727 1532T775 1419Q775 1385 766 1350T728 1258L572 931H423L506 1293Q478 1314 461 1346T444 1419Z" />
<glyph unicode="&#x201a;" horiz-adv-x="1200" d="M444 124Q444 191 493 237T610 283Q680 283 728 237T776 124Q776 89 766 55T729 -37L572 -364H423L507 -2Q478 19 461 51T444 124Z" />
<glyph unicode="&#x201c;" horiz-adv-x="1200" d="M532 1090Q532 1023 484 977T366 931Q295 931 249 977T202 1090Q202 1122 211 1158T247 1251L402 1578H552L469 1216Q497 1196 514 1164T532 1090ZM977 1090Q977 1023 928 977T811 931Q742 931 695 977T647 1090Q647
1122 656 1158T693 1251L849 1578H998L914 1216Q943 1196 960 1164T977 1090Z" />
<glyph unicode="&#x201d;" horiz-adv-x="1200" d="M222 1424Q222 1491 271 1537T388 1583Q457 1583 505 1537T553 1424Q553 1390 543 1356T504 1263L350 936H201L283 1299Q255 1319 239 1351T222 1424ZM666 1424Q666 1491 715 1537T832 1583Q902 1583 950 1537T998
1424Q998 1390 988 1356T951 1263L795 936H646L729 1299Q701 1319 684 1351T666 1424Z" />
<glyph unicode="&#x201e;" horiz-adv-x="1200" d="M223 124Q223 191 272 237T389 283Q458 283 506 237T554 124Q554 89 545 55T507 -37L351 -364H202L286 -2Q257 19 240 51T223 124ZM666 124Q666 191 715 237T832 283Q902 283 949 237T996 124Q996 89 987 54T951
-37L795 -364H646L729 -2Q701 19 684 51T666 124Z" />
<glyph unicode="&#x2022;" horiz-adv-x="1200" d="M600 425Q526 425 468 459T375 552T341 684Q341 758 375 816T467 907T600 941Q674 941 732 907T825 815T859 682Q859 608 825 550T733 459T600 425Z" />
<glyph unicode="&#x2039;" horiz-adv-x="1200" d="M847 169L711 81L353 506V657L711 1083L847 995L584 582L847 169Z" />
<glyph unicode="&#x203a;" horiz-adv-x="1200" d="M615 582L353 995L488 1083L847 657V506L488 81L353 169L615 582Z" />
</font>
</defs>
</svg>
