<?xml version="1.0" standalone="no"?>
<!DOCTYPE svg PUBLIC "-//W3C//DTD SVG 1.1//EN" "http://www.w3.org/Graphics/SVG/1.1/DTD/svg11.dtd" >
<svg>
<defs>
<font id="TiemposHeadline" horiz-adv-x="500" >
  <font-face 
    font-family="Tiempos Headline Black"
    font-weight="900"
    font-stretch="normal"
    units-per-em="1000"
    panose-1="2 2 10 3 6 3 3 6 4 3"
    ascent="800"
    descent="-200"
    x-height="543"
    cap-height="702"
    bbox="-109 -250 1361 1050"
    underline-thickness="30"
    underline-position="-70"
    unicode-range="U+000D-FB04"
  />
<missing-glyph horiz-adv-x="960" 
d="M90 0v780h780v-780h-780zM480 345l-279 -279h558zM201 714l279 -279l279 279h-558zM435 390l-275 275v-550zM525 390l275 -275v550z" />
    <glyph glyph-name="ff" unicode="ff" horiz-adv-x="734" 
d="M76 548v7q0 119 73 167.5t171 48.5q49 0 89 -12.5t71 -39.5q34 33 83 48.5t103 15.5q86 0 126 -27.5t40 -75.5q0 -22 -11 -39.5t-28 -25.5h-103q2 10 3.5 23t1.5 26q0 26 -5.5 48t-27.5 22q-21 0 -29.5 -16t-8.5 -44v-131h114v-57h-114v-389q0 -33 18 -41t60 -14v-42
h-334v42q28 2 39 8t11 28v408h-136v-408q0 -22 11 -28t39 -8v-42h-309v42q28 2 40.5 8t12.5 28v408h-71v45zM418 556q0 24 3.5 45.5t9.5 40.5q-8 34 -30 58t-60 24q-31 0 -45 -24t-14 -70v-87h136v13z" />
    <glyph glyph-name="fi" unicode="fi" horiz-adv-x="693" 
d="M624 553v-475q0 -22 12.5 -28t40.5 -8v-42h-309v42q28 2 39 8t11 28v408h-136v-408q0 -22 11 -28t39 -8v-42h-309v42q28 2 40.5 8t12.5 28v408h-71v45l71 17v8q0 119 82 173t193 54q96 0 144 -27.5t48 -75.5q0 -22 -11 -39.5t-28 -25.5h-117q2 10 3.5 23t1.5 26
q0 26 -10 49t-40 23q-31 0 -45.5 -27t-14.5 -81v-85h259l37 10h46z" />
    <glyph glyph-name="fl" unicode="fl" horiz-adv-x="693" 
d="M624 783v-705q0 -22 12.5 -28t40.5 -8v-42h-309v42q28 2 39 8t11 28v591q-10 27 -28.5 47t-49.5 20q-30 0 -44 -22.5t-14 -71.5v-99h84v-57h-84v-408q0 -22 11 -28t39 -8v-42h-309v42q28 2 40.5 8t12.5 28v408h-71v45l71 17v8q0 119 68.5 173t174.5 54q46 0 80 -8.5
t58 -19.5l132 28h35z" />
    <glyph glyph-name="ffi" unicode="ffi" horiz-adv-x="1035" 
d="M76 548v7q0 119 73 167.5t171 48.5q50 0 91 -13.5t73 -41.5q38 34 92.5 50.5t116.5 16.5q96 0 144 -27.5t48 -75.5q0 -22 -11 -39.5t-28 -25.5h-117q2 10 3.5 23t1.5 26q0 26 -10 49t-40 23q-31 0 -45.5 -27t-14.5 -81v-85h259l37 10h46v-475q0 -22 12.5 -28t40.5 -8v-42
h-309v42q28 2 39 8t11 28v408h-136v-408q0 -22 12.5 -28t40.5 -8v-42h-309v42q28 2 39 8t11 28v408h-136v-408q0 -22 11 -28t39 -8v-42h-309v42q28 2 40.5 8t12.5 28v408h-71v45zM418 556q0 23 3.5 44t10.5 40q-8 34 -30 59t-61 25q-31 0 -45 -24t-14 -70v-87h136v13z" />
    <glyph glyph-name="ffl" unicode="ffl" horiz-adv-x="1035" 
d="M320 771q48 0 87.5 -12.5t70.5 -37.5q32 31 79 46.5t104 15.5q46 0 80 -8.5t58 -19.5l132 28h35v-705q0 -22 12.5 -28t40.5 -8v-42h-309v42q28 2 39 8t11 28v591q-10 27 -28.5 47t-49.5 20q-30 0 -44 -22.5t-14 -71.5v-99h84v-57h-84v-408q0 -22 11 -28t39 -8v-42h-306
v42q28 2 39 8t11 28v408h-136v-408q0 -22 11 -28t39 -8v-42h-309v42q28 2 40.5 8t12.5 28v408h-71v45l71 17v7q0 119 73 167.5t171 48.5zM418 543v13q0 25 3 47.5t10 41.5q-9 33 -31 56t-59 23q-31 0 -45 -24t-14 -70v-87h136z" />
    <glyph glyph-name="f_b" unicode="fb" horiz-adv-x="1015" 
d="M418 58v611q-10 27 -28.5 47t-49.5 20q-30 0 -44 -22.5t-14 -71.5v-99h84v-57h-84v-408q0 -22 11 -28t39 -8v-42h-309v42q28 2 40.5 8t12.5 28v408h-71v45l71 17v8q0 119 68.5 173t174.5 54q46 0 80 -8.5t58 -19.5l132 28h35v-329q19 33 61 66t107 33q87 0 145 -61
t58 -186q0 -157 -89.5 -236.5t-219.5 -79.5q-69 0 -143 14.5t-125 53.5zM685 41q50 0 75 59.5t25 146.5q0 101 -32.5 143.5t-82.5 42.5q-12 0 -23 -2t-23 -7v-283q0 -44 12 -72t49 -28z" />
    <glyph glyph-name="f_f_b" unicode="ffb" horiz-adv-x="1357" 
d="M760 58v611q-10 27 -28.5 47t-49.5 20q-30 0 -44 -22.5t-14 -71.5v-99h84v-57h-84v-408q0 -22 11 -28t39 -8v-42h-306v42q28 2 39 8t11 28v408h-136v-408q0 -22 11 -28t39 -8v-42h-309v42q28 2 40.5 8t12.5 28v408h-71v45l71 17v7q0 119 73 167.5t171 48.5
q48 0 87.5 -12.5t70.5 -37.5q32 31 79 46.5t104 15.5q46 0 80 -8.5t58 -19.5l132 28h35v-329q19 33 61 66t107 33q87 0 145 -61t58 -186q0 -157 -89.5 -236.5t-219.5 -79.5q-69 0 -143 14.5t-125 53.5zM1027 41q50 0 75 59.5t25 146.5q0 101 -32.5 143.5t-82.5 42.5
q-12 0 -23 -2t-23 -7v-283q0 -44 12 -72t49 -28zM418 556q0 25 3 47.5t10 41.5q-9 33 -31 56t-59 23q-31 0 -45 -24t-14 -70v-87h136v13z" />
    <glyph glyph-name="f_h" unicode="fh" horiz-adv-x="1027" 
d="M418 78v591q-10 27 -28.5 47t-49.5 20q-30 0 -44 -22.5t-14 -71.5v-99h74v-57h-74v-408q0 -22 11 -28t39 -8v-42h-309v42q28 2 40.5 8t12.5 28v408h-71v45l71 17v8q0 119 68.5 173t174.5 54q46 0 80 -8.5t58 -19.5l132 28h35v-331q27 35 72 68t115 33q72 0 113.5 -41
t41.5 -123v-311q0 -22 12.5 -28t40.5 -8v-42h-309v42q28 2 39 8t11 28v293q0 28 -12.5 45t-49.5 17q-21 0 -39 -3.5t-35 -9.5v-342q0 -22 11 -28t39 -8v-42h-309v42q28 2 40.5 8t12.5 28z" />
    <glyph glyph-name="f_f_h" unicode="ffh" horiz-adv-x="1369" 
d="M760 78v591q-10 27 -28.5 47t-49.5 20q-30 0 -44 -22.5t-14 -71.5v-99h84v-57h-84v-408q0 -22 11 -28t39 -8v-42h-306v42q28 2 39 8t11 28v408h-136v-408q0 -22 11 -28t39 -8v-42h-309v42q28 2 40.5 8t12.5 28v408h-71v45l71 17v7q0 119 73 167.5t171 48.5
q48 0 87.5 -12.5t70.5 -37.5q32 31 79 46.5t104 15.5q46 0 80 -8.5t58 -19.5l132 28h35v-331q27 35 72 68t115 33q72 0 113.5 -41t41.5 -123v-311q0 -22 12.5 -28t40.5 -8v-42h-309v42q28 2 39 8t11 28v293q0 28 -12.5 45t-49.5 17q-21 0 -39 -3.5t-35 -9.5v-342
q0 -22 11 -28t39 -8v-42h-309v42q28 2 40.5 8t12.5 28zM418 556q0 25 3 47.5t10 41.5q-9 33 -31 56t-59 23q-31 0 -45 -24t-14 -70v-87h136v13z" />
    <glyph glyph-name="f_idieresis" unicode="f&#xef;" horiz-adv-x="693" 
d="M624 553v-475q0 -22 12.5 -28t40.5 -8v-42h-309v42q28 2 39 8t11 28v408h-136v-408q0 -22 11 -28t39 -8v-42h-309v42q28 2 40.5 8t12.5 28v408h-71v45l71 17v8q0 119 81.5 173t189.5 54q86 0 127 -27.5t41 -75.5q0 -22 -11 -40t-28 -26h-115q2 10 3.5 23t1.5 26
q0 29 -6.5 51t-27.5 22q-23 0 -36.5 -27t-13.5 -81v-85h259l37 10h46zM540 691q0 36 26.5 62t61.5 26q38 0 64.5 -26t26.5 -62t-26.5 -62t-64.5 -26q-35 0 -61.5 26t-26.5 62z" />
    <glyph glyph-name="f_f_idieresis" unicode="ff&#xef;" horiz-adv-x="1035" 
d="M320 771q50 0 91 -13.5t73 -41.5q37 34 91 50.5t114 16.5q86 0 127 -27.5t41 -75.5q0 -22 -11 -40t-28 -26h-115q2 10 3.5 23t1.5 26q0 29 -6.5 51t-27.5 22q-23 0 -36.5 -27t-13.5 -81v-85h259l37 10h46v-475q0 -22 12.5 -28t40.5 -8v-42h-309v42q28 2 39 8t11 28v408
h-136v-408q0 -22 12.5 -28t40.5 -8v-42h-309v42q28 2 39 8t11 28v408h-136v-408q0 -22 11 -28t39 -8v-42h-309v42q28 2 40.5 8t12.5 28v408h-71v45l71 17v7q0 119 73 167.5t171 48.5zM418 543v13q0 23 3.5 44t10.5 40q-8 34 -30 59t-61 25q-31 0 -45 -24t-14 -70v-87h136z
M882 691q0 36 26.5 62t61.5 26q38 0 64.5 -26t26.5 -62t-26.5 -62t-64.5 -26q-35 0 -61.5 26t-26.5 62z" />
    <glyph glyph-name="f_j" unicode="fj" horiz-adv-x="674" 
d="M418 486h-136v-408q0 -22 11 -28t39 -8v-42h-309v42q28 2 40.5 8t12.5 28v408h-71v45l71 17v8q0 119 82 173t193 54q96 0 144 -27.5t48 -75.5q0 -22 -11 -39.5t-28 -25.5h-117q2 10 3.5 23t1.5 26q0 26 -10 49t-40 23q-31 0 -45.5 -27t-14.5 -81v-85h259l37 10h46v-442
q0 -89 -21 -136t-59 -81q-46 -41 -87 -62t-96 -43l-17 22l41 63q24 37 28.5 85.5t4.5 106.5v420z" />
    <glyph glyph-name="f_f_j" unicode="ffj" horiz-adv-x="1016" 
d="M760 486h-136v-408q0 -22 12.5 -28t40.5 -8v-42h-309v42q28 2 39 8t11 28v408h-136v-408q0 -22 11 -28t39 -8v-42h-309v42q28 2 40.5 8t12.5 28v408h-71v45l71 17v7q0 119 73 167.5t171 48.5q50 0 91 -13.5t73 -41.5q38 34 92.5 50.5t116.5 16.5q96 0 144 -27.5t48 -75.5
q0 -22 -11 -39.5t-28 -25.5h-117q2 10 3.5 23t1.5 26q0 26 -10 49t-40 23q-31 0 -45.5 -27t-14.5 -81v-85h259l37 10h46v-442q0 -89 -21 -136t-59 -81q-46 -41 -87 -62t-96 -43l-17 22l41 63q24 37 28.5 85.5t4.5 106.5v420zM418 556q0 23 3.5 44t10.5 40q-8 34 -30 59
t-61 25q-31 0 -45 -24t-14 -70v-87h136v13z" />
    <glyph glyph-name="f_k" unicode="fk" horiz-adv-x="1009" 
d="M630 283l152 137q21 19 27.5 30t6.5 21q0 13 -12.5 19.5t-46.5 10.5v42h233v-42q-25 -3 -44.5 -9.5t-39.5 -26.5l-106 -102l209 -334v-29h-212zM418 78v591q-10 27 -28.5 47t-49.5 20q-30 0 -44 -22.5t-14 -71.5v-99h84v-57h-84v-408q0 -22 11 -28t39 -8v-42h-309v42
q28 2 40.5 8t12.5 28v408h-71v45l71 17v8q0 119 68.5 173t174.5 54q46 0 80 -8.5t58 -19.5l132 28h35v-705q0 -22 12.5 -28t40.5 -8v-42h-312v42q28 2 40.5 8t12.5 28z" />
    <glyph glyph-name="f_f_k" unicode="ffk" horiz-adv-x="1351" 
d="M760 78v591q-10 27 -28.5 47t-49.5 20q-30 0 -44 -22.5t-14 -71.5v-99h84v-57h-84v-408q0 -22 11 -28t39 -8v-42h-306v42q28 2 39 8t11 28v408h-136v-408q0 -22 11 -28t39 -8v-42h-309v42q28 2 40.5 8t12.5 28v408h-71v45l71 17v7q0 119 73 167.5t171 48.5
q48 0 87.5 -12.5t70.5 -37.5q32 31 79 46.5t104 15.5q46 0 80 -8.5t58 -19.5l132 28h35v-705q0 -22 12.5 -28t40.5 -8v-42h-312v42q28 2 40.5 8t12.5 28zM972 283l152 137q21 19 27.5 30t6.5 21q0 13 -12.5 19.5t-46.5 10.5v42h233v-42q-25 -3 -44.5 -9.5t-39.5 -26.5
l-106 -102l209 -334v-29h-212zM418 556q0 25 3 47.5t10 41.5q-9 33 -31 56t-59 23q-31 0 -45 -24t-14 -70v-87h136v13z" />
    <glyph glyph-name=".notdef" horiz-adv-x="960" 
d="M90 0v780h780v-780h-780zM480 345l-279 -279h558zM201 714l279 -279l279 279h-558zM435 390l-275 275v-550zM525 390l275 -275v550z" />
    <glyph glyph-name=".null" horiz-adv-x="0" 
 />
    <glyph glyph-name="nonmarkingreturn" unicode="&#xd;" horiz-adv-x="165" 
 />
    <glyph glyph-name="NULL" horiz-adv-x="0" 
 />
    <glyph glyph-name="NULL" horiz-adv-x="0" 
 />
    <glyph glyph-name="space" unicode=" " horiz-adv-x="165" 
 />
    <glyph glyph-name="exclam" unicode="!" horiz-adv-x="305" 
d="M51 93q0 44 30 75t71 31q43 0 72.5 -31t29.5 -75q0 -42 -29.5 -72.5t-72.5 -30.5q-41 0 -71 30.5t-30 72.5zM186 241h-67l-88 461h243z" />
    <glyph glyph-name="quotedbl" unicode="&#x22;" horiz-adv-x="387" 
d="M107 447h-16l-49 148q-7 23 -14.5 50t-7.5 44q0 31 19 56t60 25t60 -25t19 -56q0 -17 -7.5 -44t-14.5 -50zM296 447h-16l-49 148q-7 23 -14.5 50t-7.5 44q0 31 19 56t60 25t60 -25t19 -56q0 -17 -7.5 -44t-14.5 -50z" />
    <glyph glyph-name="numbersign" unicode="#" horiz-adv-x="523" 
d="M472 229h-124l-75 -239l-56 18l70 221h-129l-75 -239l-56 18l70 221h-72v51h88l45 142h-107v51h123l76 240l56 -18l-71 -222h129l76 240l56 -18l-71 -222h73v-51h-89l-45 -142h108v-51zM219 422l-45 -142h129l45 142h-129z" />
    <glyph glyph-name="dollar" unicode="$" horiz-adv-x="590" 
d="M279 -10q-7 0 -15 0.5t-15 0.5l-18 -104h-46l19 109q-52 7 -95.5 23.5t-70.5 37.5l-12 175h59q14 -63 47.5 -110.5t82.5 -67.5l35 196l-9 3q-104 28 -158 80t-54 144q0 110 75.5 172.5t188.5 62.5q10 0 20 -0.5t20 -1.5l19 104h46l-20 -109q42 -7 76 -21t59 -32v-153h-49
q-13 50 -36.5 88t-60.5 57l-34 -191q1 0 2.5 -0.5t2.5 -0.5q99 -28 161.5 -74.5t62.5 -156.5q0 -120 -83.5 -175.5t-199.5 -55.5zM393 130q0 43 -24 66.5t-75 40.5l-35 -194q4 -1 9.5 -1h10.5q49 0 81.5 22t32.5 66zM192 571q0 -43 24 -65.5t73 -39.5l35 192q-7 1 -15 2
t-16 1q-43 0 -72 -23.5t-29 -66.5z" />
    <glyph glyph-name="percent" unicode="%" horiz-adv-x="802" 
d="M35 537q0 87 53 131t122 44t122 -44t53 -131t-53 -131t-122 -44t-122 44t-53 131zM156 537q0 -57 11.5 -97.5t42.5 -40.5t42.5 40.5t11.5 97.5t-11.5 97.5t-42.5 40.5t-42.5 -40.5t-11.5 -97.5zM153 -10l439 722h57l-439 -722h-57zM767 165q0 -87 -53 -131t-122 -44
t-122 44t-53 131t53 131t122 44t122 -44t53 -131zM646 165q0 57 -11.5 97.5t-42.5 40.5t-42.5 -40.5t-11.5 -97.5t11.5 -97.5t42.5 -40.5t42.5 40.5t11.5 97.5z" />
    <glyph glyph-name="ampersand" unicode="&#x26;" horiz-adv-x="752" 
d="M11 184q0 75 44 118.5t124 63.5q-19 25 -39 66t-20 91q0 86 62 137.5t166 51.5q96 0 158 -42t62 -116q0 -62 -41 -101t-121 -54l148 -181q7 16 10.5 34t3.5 37q0 24 -14 34t-40 10v46h216v-46q-53 0 -75.5 -14.5t-32.5 -57.5q-6 -22 -14.5 -43.5t-19.5 -40.5l45 -55
q30 -37 49 -57t50 -20v-45h-232q-13 10 -26 20.5t-23 20.5q-42 -24 -90 -37.5t-98 -13.5q-108 0 -180 51.5t-72 142.5zM349 73q15 0 30 2.5t30 7.5q-9 10 -18 20.5t-18 21.5l-165 206q-12 -19 -17.5 -43t-5.5 -53q0 -67 44.5 -114.5t119.5 -47.5zM291 595q0 -49 27.5 -85.5
t53.5 -67.5l6 -8q22 22 33.5 56.5t11.5 80.5q0 37 -16 66.5t-55 29.5q-30 0 -45.5 -20.5t-15.5 -51.5z" />
    <glyph glyph-name="quotesingle" unicode="'" horiz-adv-x="198" 
d="M107 447h-16l-49 148q-7 23 -14.5 50t-7.5 44q0 31 19 56t60 25t60 -25t19 -56q0 -17 -7.5 -44t-14.5 -50z" />
    <glyph glyph-name="parenleft" unicode="(" horiz-adv-x="378" 
d="M60 314q0 128 64 250.5t175 205.5h59q-82 -101 -116 -222t-34 -234t34 -234t116 -222h-59q-111 83 -175 205.5t-64 250.5z" />
    <glyph glyph-name="parenright" unicode=")" horiz-adv-x="378" 
d="M318 314q0 -128 -64 -250.5t-175 -205.5h-59q82 101 116 222t34 234t-34 234t-116 222h59q111 -83 175 -205.5t64 -250.5z" />
    <glyph glyph-name="asterisk" unicode="*" horiz-adv-x="452" 
d="M373 585l-127 -30l127 -30q37 -8 49 -31t-2 -48q-13 -24 -40 -25t-52 27l-89 94l38 -124q11 -36 -3 -58t-42 -22t-42 22t-3 58l38 124l-89 -94q-25 -28 -52 -27t-40 25q-14 25 -2 48t49 31l126 30l-126 30q-37 8 -49 31t2 48q13 24 40 25t52 -27l89 -95l-38 125
q-11 36 3 58t42 22t42 -22t3 -58l-38 -125l89 95q25 28 52 27t40 -25q14 -25 2 -48t-49 -31z" />
    <glyph glyph-name="plus" unicode="+" horiz-adv-x="576" 
d="M252 591h71v-186h187v-72h-187v-186h-71v186h-186v72h186v186z" />
    <glyph glyph-name="comma" unicode="," horiz-adv-x="282" 
d="M156 7h-42q-34 8 -56.5 30.5t-22.5 63.5q0 45 30.5 71t73.5 26q52 0 83.5 -37t31.5 -96q0 -86 -56.5 -134.5t-162.5 -51.5v45q53 7 84.5 24.5t36.5 58.5z" />
    <glyph glyph-name="hyphen" unicode="-" horiz-adv-x="320" 
d="M290 267h-260v86h260v-86z" />
    <glyph glyph-name="period" unicode="." horiz-adv-x="282" 
d="M30 101q0 49 32.5 80.5t78.5 31.5t78.5 -31.5t32.5 -80.5t-32.5 -80t-78.5 -31t-78.5 31t-32.5 80z" />
    <glyph glyph-name="slash" unicode="/" horiz-adv-x="359" 
d="M354 770l-272 -911h-87l272 911h87z" />
    <glyph glyph-name="zero" unicode="0" horiz-adv-x="686" 
d="M343 35q55 0 72.5 91t17.5 225t-17.5 225t-72.5 91t-72.5 -91t-17.5 -225t17.5 -225t72.5 -91zM343 -10q-133 0 -225.5 92.5t-92.5 268.5t92.5 268.5t225.5 92.5t225.5 -92.5t92.5 -268.5t-92.5 -268.5t-225.5 -92.5z" />
    <glyph glyph-name="one" unicode="1" horiz-adv-x="436" 
d="M422 0h-397v45q66 3 78.5 14.5t12.5 57.5v408h-91v43l47 8q77 13 125 46t89 89h47v-594q0 -46 14.5 -57t74.5 -15v-45z" />
    <glyph glyph-name="two" unicode="2" horiz-adv-x="565" 
d="M195 172h173q46 0 71 14t63 85h33l-19 -271h-511v35l196 194q51 51 79 106t28 117q0 52 -29 86t-86 34q-39 0 -71 -16t-55 -42l-33 23q40 73 101 124t165 51q96 0 154 -50.5t58 -140.5q0 -110 -100 -192t-217 -157z" />
    <glyph glyph-name="three" unicode="3" horiz-adv-x="555" 
d="M311 404q101 -2 162.5 -54.5t61.5 -141.5q0 -109 -88.5 -163.5t-194.5 -54.5q-122 0 -184.5 42t-62.5 102q0 31 15 54t32 31h128q-5 -13 -8.5 -29.5t-3.5 -38.5q0 -48 21.5 -83t67.5 -35q37 0 58 33.5t21 96.5q0 71 -37.5 115.5t-109.5 44.5h-15l-13 31q79 34 103.5 66
t24.5 72q0 39 -23 62t-68 23q-43 0 -73.5 -17.5t-56.5 -47.5l-29 23q36 75 98.5 126t166.5 51q81 0 133.5 -38t52.5 -107q0 -76 -59.5 -114t-119.5 -49z" />
    <glyph glyph-name="four" unicode="4" horiz-adv-x="653" 
d="M87 236h216v312zM303 111v67h-298v38l337 486h173v-466h113v-58h-113v-67q0 -38 12.5 -51.5t63.5 -15.5v-44h-365v44q51 2 64 15.5t13 51.5z" />
    <glyph glyph-name="five" unicode="5" horiz-adv-x="554" 
d="M476 526h-334l-11 -59q196 7 297 -53t101 -192q0 -116 -79.5 -174t-191.5 -58q-121 0 -184.5 39t-63.5 100q0 29 15.5 53t38.5 36h120q-3 -11 -6 -26.5t-3 -33.5q0 -52 22.5 -88t73.5 -36q41 0 65 27t24 76q0 71 -70.5 109t-233.5 38l65 418h286q25 0 35 7t23 35h42z" />
    <glyph glyph-name="six" unicode="6" horiz-adv-x="622" 
d="M507 682q-123 -22 -182 -91.5t-75 -170.5q25 16 61.5 29t84.5 13q89 0 146.5 -58t57.5 -155q0 -122 -80.5 -190.5t-198.5 -68.5q-136 0 -214.5 90t-78.5 234q0 166 121 282t343 116zM274 383h-15t-14 -1q-1 -18 -2 -36.5t-1 -37.5q0 -111 21 -191.5t72 -80.5
q38 0 54.5 44t16.5 108q0 78 -32 136.5t-100 58.5z" />
    <glyph glyph-name="seven" unicode="7" horiz-adv-x="525" 
d="M401 497h-260q-34 0 -54.5 -21t-36.5 -72h-41l45 298h471v-42l-282 -660h-122z" />
    <glyph glyph-name="eight" unicode="8" horiz-adv-x="600" 
d="M539 551q0 -54 -42 -85t-106 -35l20 -8q84 -37 124 -86.5t40 -123.5q0 -107 -78 -165t-200 -58q-126 0 -201.5 44t-75.5 127q0 56 44 91t110 40l-14 6q-54 25 -87.5 75.5t-33.5 117.5q0 105 76 163t183 58q114 0 177.5 -43t63.5 -118zM335 220l-133 60q-18 -21 -27 -45
t-9 -56q0 -68 36.5 -107t96.5 -39q49 0 81 25t32 71q0 37 -20 56t-57 35zM276 485l82 -40q16 16 30.5 42t14.5 67q0 49 -26.5 82t-79.5 33q-43 0 -70 -23.5t-27 -62.5q0 -36 19.5 -58.5t56.5 -39.5z" />
    <glyph glyph-name="nine" unicode="9" horiz-adv-x="622" 
d="M115 21q123 22 182 91.5t75 170.5q-25 -17 -62 -29.5t-84 -12.5q-89 0 -146.5 58t-57.5 155q0 122 80.5 190.5t198.5 68.5q136 0 214.5 -90t78.5 -234q0 -166 -121 -282t-343 -116zM348 320h14.5t13.5 1q2 18 3 36.5t1 37.5q0 111 -21 191.5t-72 80.5q-38 0 -54.5 -44
t-16.5 -108q0 -78 32 -136.5t100 -58.5z" />
    <glyph glyph-name="colon" unicode=":" horiz-adv-x="282" 
d="M30 101q0 49 32.5 80.5t78.5 31.5t78.5 -31.5t32.5 -80.5t-32.5 -80t-78.5 -31t-78.5 31t-32.5 80zM30 403q0 49 32.5 80.5t78.5 31.5t78.5 -31.5t32.5 -80.5t-32.5 -80t-78.5 -31t-78.5 31t-32.5 80z" />
    <glyph glyph-name="semicolon" unicode=";" horiz-adv-x="282" 
d="M156 7h-42q-34 8 -56.5 30.5t-22.5 63.5q0 45 30.5 71t73.5 26q52 0 83.5 -37t31.5 -96q0 -86 -56.5 -134.5t-162.5 -51.5v45q53 7 84.5 24.5t36.5 58.5zM30 403q0 49 32.5 80.5t78.5 31.5t78.5 -31.5t32.5 -80.5t-32.5 -80t-78.5 -31t-78.5 31t-32.5 80z" />
    <glyph glyph-name="less" unicode="&#x3c;" horiz-adv-x="428" 
d="M44 362v10l318 195v-86l-194 -113l194 -116v-85z" />
    <glyph glyph-name="equal" unicode="=" horiz-adv-x="586" 
d="M71 261v69h445v-69h-445zM71 408v70h445v-70h-445z" />
    <glyph glyph-name="greater" unicode="&#x3e;" horiz-adv-x="428" 
d="M384 372v-10l-318 -195v85l194 116l-194 113v86z" />
    <glyph glyph-name="question" unicode="?" horiz-adv-x="477" 
d="M304 600q0 31 -16 50t-47 19q-40 0 -54.5 -30t-14.5 -67q0 -22 2 -34t4 -27h-119q-22 10 -33 28t-11 41q0 60 61.5 96t162.5 36q110 0 169 -45t59 -126q0 -64 -34.5 -108t-103.5 -83q-43 -25 -61 -46t-18 -56v-9h-29q-41 14 -64.5 42t-23.5 70q0 32 19 64t58 60
q38 28 66 56.5t28 68.5zM131 93q0 44 29.5 75t71.5 31q43 0 72.5 -31t29.5 -75q0 -42 -29.5 -72.5t-72.5 -30.5q-42 0 -71.5 30.5t-29.5 72.5z" />
    <glyph glyph-name="at" unicode="@" horiz-adv-x="894" 
d="M610 77q-80 0 -103 48t-12 108q-37 -66 -77 -111t-97 -45q-44 0 -74.5 34.5t-30.5 94.5q0 101 73.5 193.5t185.5 92.5q36 0 61.5 -14t35.5 -28l78 32h46l-35 -94l-57 -198q-8 -29 -2 -51.5t31 -22.5q49 0 92 68.5t43 184.5q0 107 -76 194t-210 87q-162 0 -257 -114.5
t-95 -276.5q0 -171 102 -254t241 -83q82 0 144.5 19t125.5 57l14 -21q-54 -50 -131 -78t-175 -28q-161 0 -286 98t-125 287q0 181 126 309t316 128q175 0 273.5 -99t98.5 -225q0 -159 -84 -225.5t-160 -66.5zM389 174q41 0 82.5 77.5t60.5 172.5q-5 14 -15 22.5t-25 8.5
q-55 0 -94 -81t-39 -150q0 -23 7 -36.5t23 -13.5z" />
    <glyph glyph-name="A" unicode="A" horiz-adv-x="773" 
d="M461 129l-32 82h-247l-30 -82q-4 -10 -6 -19.5t-2 -16.5q0 -25 21 -35t59 -13v-45h-219v45q20 4 35 10.5t23 26.5l203 533l-35 87h233l245 -620q7 -19 22 -26t37 -11v-45h-375v45q34 1 55 11.5t21 35.5q0 7 -2 16.5t-6 20.5zM302 536l-99 -267h203z" />
    <glyph glyph-name="B" unicode="B" horiz-adv-x="718" 
d="M346 332h-32v-214q0 -40 14 -54t50 -14h7q45 0 76 34.5t31 109.5q0 69 -37 103.5t-109 34.5zM327 652h-13v-261h14q59 0 90.5 34t31.5 100t-34 96.5t-89 30.5zM414 0h-388v45q49 5 59 17t10 50v478q0 38 -10 50t-59 17v45h381q116 0 182 -44.5t66 -131.5
q0 -75 -57 -114.5t-131 -46.5q100 -3 168 -47.5t68 -126.5q0 -99 -73.5 -145t-215.5 -46z" />
    <glyph glyph-name="C" unicode="C" horiz-adv-x="695" 
d="M413 712q69 0 125.5 -15.5t99.5 -43.5l4 -181h-54q-19 90 -59 138t-108 48q-89 0 -127.5 -87t-38.5 -212q0 -135 44.5 -223.5t131.5 -88.5q58 0 105.5 49.5t78.5 164.5h55l-18 -203q-43 -32 -110 -50t-141 -18q-174 0 -275 91t-101 250q0 176 115 278.5t273 102.5z" />
    <glyph glyph-name="D" unicode="D" horiz-adv-x="807" 
d="M327 652h-13v-532q0 -44 16 -57t47 -13h6q79 0 126 80t47 208q0 148 -62 231t-167 83zM390 0h-364v45q49 5 59 17t10 50v478q0 38 -10 50t-59 17v45h339q211 0 314 -98.5t103 -247.5q0 -166 -105 -261t-287 -95z" />
    <glyph glyph-name="E" unicode="E" horiz-adv-x="664" 
d="M26 0v45q49 5 59 17t10 50v478q0 38 -10 50t-59 17v45h586l5 -199h-42q-40 84 -71.5 116.5t-103.5 32.5h-86v-260h83q35 0 47.5 20.5t18.5 72.5h47v-246h-47q-6 52 -18.5 72.5t-47.5 20.5h-83v-215q0 -40 19 -53.5t58 -13.5h22q70 0 101 37t86 140h50l-33 -227h-591z" />
    <glyph glyph-name="F" unicode="F" horiz-adv-x="625" 
d="M314 325v-213q0 -38 25 -51t90 -16v-45h-403v45q49 5 59 17t10 50v478q0 38 -10 50t-59 17v45h579l5 -207h-39q-44 85 -75 121t-103 36h-79v-267h76q35 0 47.5 20.5t18.5 72.5h47v-246h-47q-6 52 -18.5 72.5t-47.5 20.5h-76z" />
    <glyph glyph-name="G" unicode="G" horiz-adv-x="752" 
d="M469 50v172q0 38 -10 50t-59 17v45h342v-45q-49 -5 -59 -17t-10 -50v-166q-52 -33 -125 -49.5t-154 -16.5q-183 0 -276 98t-93 244q0 176 116 278t276 102q69 0 126.5 -15.5t100.5 -43.5l4 -181h-54q-19 90 -59.5 138t-109.5 48q-90 0 -130 -87t-40 -212t42 -219.5
t128 -94.5q13 0 23 1t21 4z" />
    <glyph glyph-name="H" unicode="H" horiz-adv-x="860" 
d="M314 590v-202h232v202q0 38 -10 50t-59 17v45h357v-45q-49 -5 -59 -17t-10 -50v-478q0 -38 10 -50t59 -17v-45h-357v45q49 5 59 17t10 50v208h-232v-208q0 -38 10 -50t59 -17v-45h-357v45q49 5 59 17t10 50v478q0 38 -10 50t-59 17v45h357v-45q-49 -5 -59 -17t-10 -50z
" />
    <glyph glyph-name="I" unicode="I" horiz-adv-x="409" 
d="M314 590v-478q0 -38 10 -50t59 -17v-45h-357v45q49 5 59 17t10 50v478q0 38 -10 50t-59 17v45h357v-45q-49 -5 -59 -17t-10 -50z" />
    <glyph glyph-name="J" unicode="J" horiz-adv-x="606" 
d="M302 168v422q0 38 -10 50t-59 17v45h357v-45q-49 -5 -59 -17t-10 -50v-360q0 -125 -74.5 -182.5t-208.5 -57.5q-119 0 -181 40t-62 115q0 32 14.5 56.5t40.5 38.5h139q-3 -19 -5 -38t-2 -45q0 -47 12 -84t49 -37q42 0 50.5 37.5t8.5 94.5z" />
    <glyph glyph-name="K" unicode="K" horiz-adv-x="792" 
d="M505 439l205 -331q16 -26 33.5 -42.5t48.5 -20.5v-45h-253q-25 22 -49 55t-43 67l-125 218l230 239q13 13 21 24.5t8 24.5q0 12 -14.5 20t-52.5 9v45h244v-45q-31 -2 -47.5 -8.5t-35.5 -26.5zM314 590v-478q0 -38 10 -50t59 -17v-45h-357v45q49 5 59 17t10 50v478
q0 38 -10 50t-59 17v45h357v-45q-49 -5 -59 -17t-10 -50z" />
    <glyph glyph-name="L" unicode="L" horiz-adv-x="658" 
d="M314 590v-473q0 -40 17 -53.5t56 -13.5h21q46 0 85 38t111 159h47l-39 -247h-586v45q49 5 59 17t10 50v478q0 38 -10 50t-59 17v45h357v-45q-49 -5 -59 -17t-10 -50z" />
    <glyph glyph-name="M" unicode="M" horiz-adv-x="1001" 
d="M694 134l-47 364l-173 -498h-88l-177 498l-49 -364q-1 -6 -1.5 -14t-0.5 -11q0 -36 19 -48t78 -16v-45h-255v45q43 2 62 14.5t23 46.5l64 478q0 40 -17.5 55.5t-67.5 17.5v45h302q1 -17 5.5 -33t10.5 -33l123 -357l119 358q6 19 11 33.5t6 31.5h296v-45
q-50 -2 -67.5 -17.5t-17.5 -55.5l64 -478q5 -37 23.5 -48t61.5 -13v-45h-402v45q54 3 75.5 15.5t21.5 48.5q0 3 -0.5 11t-1.5 14z" />
    <glyph glyph-name="N" unicode="N" horiz-adv-x="757" 
d="M598 337v253q0 38 -21 50.5t-81 16.5v45h244v-45q-49 -5 -59 -17t-10 -50v-590h-82l-421 516v-404q0 -38 21 -50.5t81 -16.5v-45h-244v45q49 5 59 17t10 50v480q-17 31 -31 47t-38 18v45h274z" />
    <glyph glyph-name="O" unicode="O" horiz-adv-x="758" 
d="M384 42q70 0 94.5 95t24.5 199q0 137 -29 230.5t-100 93.5q-70 0 -94.5 -95t-24.5 -199q0 -137 29 -230.5t100 -93.5zM369 -10q-169 0 -256.5 103.5t-87.5 243.5q0 172 102.5 273.5t261.5 101.5q169 0 256.5 -103.5t87.5 -243.5q0 -172 -102.5 -273.5t-261.5 -101.5z" />
    <glyph glyph-name="P" unicode="P" horiz-adv-x="687" 
d="M314 267v-155q0 -38 25 -51t90 -16v-45h-403v45q49 5 59 17t10 50v478q0 38 -10 50t-59 17v45h364q148 0 219 -60.5t71 -152.5q0 -106 -74.5 -164t-226.5 -58h-65zM314 652v-328h13q67 0 103.5 45t36.5 120q0 78 -39.5 120.5t-100.5 42.5h-13z" />
    <glyph glyph-name="Q" unicode="Q" horiz-adv-x="758" 
d="M345 -62l-44 57q-137 22 -206.5 119.5t-69.5 222.5q0 172 102.5 273.5t261.5 101.5q169 0 256.5 -103.5t87.5 -243.5q0 -146 -74.5 -241.5t-195.5 -123.5l89 -60q38 -26 65 -38t68 -12v-19q-19 -19 -53.5 -38.5t-83.5 -19.5q-51 0 -101.5 29t-101.5 96zM384 42
q70 0 94.5 95t24.5 199q0 137 -29 230.5t-100 93.5q-70 0 -94.5 -95t-24.5 -199q0 -137 29 -230.5t100 -93.5z" />
    <glyph glyph-name="R" unicode="R" horiz-adv-x="778" 
d="M335 649h-21v-305h22q63 0 99.5 41t36.5 115q0 71 -36 110t-101 39zM314 290v-178q0 -38 10 -50t59 -17v-45h-357v45q49 5 59 17t10 50v478q0 38 -10 50t-59 17v45h389q120 0 196.5 -53.5t76.5 -147.5q0 -73 -44.5 -116.5t-98.5 -62.5l133 -196q30 -45 48 -62t52 -19v-45
h-247q-21 16 -41.5 43.5t-42.5 66.5l-103 180h-30z" />
    <glyph glyph-name="S" unicode="S" horiz-adv-x="592" 
d="M281 -10q-76 0 -140 19.5t-101 47.5l-12 175h59q19 -81 69 -135.5t125 -54.5q49 0 80 22t31 66q0 45 -34.5 70t-114.5 47q-104 28 -158 83t-54 147q0 110 75.5 172.5t188.5 62.5q71 0 127.5 -16.5t92.5 -43.5v-153h-49q-19 72 -60.5 117t-110.5 45q-43 0 -70.5 -23
t-27.5 -64q0 -46 34 -70.5t109 -45.5q99 -28 161.5 -77.5t62.5 -159.5q0 -120 -83.5 -175.5t-199.5 -55.5z" />
    <glyph glyph-name="T" unicode="T" horiz-adv-x="723" 
d="M30 702h663l15 -261h-45q-57 121 -89.5 169.5t-78.5 48.5h-24v-552q0 -38 15 -47.5t64 -14.5v-45h-377v45q49 5 64 14.5t15 47.5v552h-24q-46 0 -78.5 -48.5t-89.5 -169.5h-45z" />
    <glyph glyph-name="U" unicode="U" horiz-adv-x="763" 
d="M303 590v-325q0 -84 33.5 -133.5t114.5 -49.5q62 0 108.5 41.5t46.5 145.5v321q0 38 -16 50.5t-76 16.5v45h234v-45q-49 -5 -59 -17t-10 -50v-341q0 -132 -83 -195.5t-202 -63.5q-149 0 -229.5 65.5t-80.5 193.5v341q0 38 -10 50t-59 17v45h357v-45q-49 -5 -59 -17
t-10 -50z" />
    <glyph glyph-name="V" unicode="V" horiz-adv-x="741" 
d="M466 269l118 304q4 11 7.5 21.5t3.5 18.5q0 22 -12.5 32t-56.5 12v45h210v-45q-22 -4 -36.5 -10.5t-22.5 -26.5l-256 -623h-64l-294 623q-10 20 -23 26.5t-35 10.5v45h377v-45q-44 -2 -56.5 -12t-12.5 -32q0 -8 3 -19t7 -21z" />
    <glyph glyph-name="W" unicode="W" horiz-adv-x="1028" 
d="M661 -3l-133 385l-143 -385h-81l-241 623q-7 16 -22 24.5t-36 12.5v45h345v-45q-25 -3 -35.5 -12.5t-10.5 -25.5q0 -12 4.5 -27t10.5 -31l108 -287l71 193l-52 153q-6 16 -17 24.5t-32 12.5v45h345v-45q-37 -1 -51 -11.5t-14 -31.5q0 -13 4 -29.5t10 -36.5l86 -269
l93 273q5 16 9 31t4 27q0 20 -14 32.5t-50 14.5v45h204v-45q-21 -4 -36.5 -12.5t-21.5 -24.5l-222 -623h-82z" />
    <glyph glyph-name="X" unicode="X" horiz-adv-x="763" 
d="M427 120l-109 159l-138 -173q-6 -7 -9 -14t-3 -13q0 -14 21.5 -23.5t58.5 -10.5v-45h-243v45q30 4 44.5 13t22.5 19l209 256l-200 292q-9 13 -23 20.5t-33 11.5v45h364v-45q-25 0 -37.5 -6.5t-12.5 -23.5q0 -10 6 -20t16 -25l77 -115l99 129q6 8 9 15t3 14
q0 14 -16.5 22.5t-43.5 9.5v45h221v-45q-30 -4 -44 -12.5t-23 -19.5l-169 -211l221 -327q14 -21 28 -29.5t35 -12.5v-45h-379v45q40 1 55 7t15 23q0 10 -5 19t-17 26z" />
    <glyph glyph-name="Y" unicode="Y" horiz-adv-x="727" 
d="M481 258v-151q0 -38 15 -47.5t64 -14.5v-45h-372v45q49 5 64 14.5t15 47.5v146l-204 367q-11 21 -23.5 27t-34.5 10v45h365v-45q-38 -1 -50.5 -9.5t-12.5 -26.5q0 -16 6 -31t18 -37l123 -210l103 208q9 19 17 38t8 32q0 18 -17 26.5t-49 9.5v45h206v-45q-21 -4 -35 -11.5
t-23 -25.5z" />
    <glyph glyph-name="Z" unicode="Z" horiz-adv-x="643" 
d="M266 50h105q63 0 103 36.5t106 152.5h48l-37 -239h-576v39l339 613h-97q-72 0 -100.5 -38t-73.5 -136h-45l10 224h559v-39z" />
    <glyph glyph-name="bracketleft" unicode="[" horiz-adv-x="342" 
d="M209 668v-707q0 -39 21.5 -47.5t81.5 -12.5v-42h-227v911h227v-42q-60 -4 -81.5 -12.5t-21.5 -47.5z" />
    <glyph glyph-name="backslash" unicode="\" horiz-adv-x="359" 
d="M277 -141l-272 911h87l272 -911h-87z" />
    <glyph glyph-name="bracketright" unicode="]" horiz-adv-x="342" 
d="M133 -39v707q0 39 -21.5 47.5t-81.5 12.5v42h227v-911h-227v42q60 4 81.5 12.5t21.5 47.5z" />
    <glyph glyph-name="asciicircum" unicode="^" horiz-adv-x="470" 
d="M275 770l165 -290h-77l-128 231l-128 -231h-77l165 290h80z" />
    <glyph glyph-name="underscore" unicode="_" horiz-adv-x="420" 
d="M400 -149h-380v83h380v-83z" />
    <glyph glyph-name="grave" unicode="`" 
d="M114 766h197l47 -163h-59l-185 153v10z" />
    <glyph glyph-name="a" unicode="a" horiz-adv-x="568" 
d="M276 98q8 0 15 1.5t14 3.5v185l-40 -15q-24 -9 -39 -26t-15 -61q0 -37 14.5 -62.5t50.5 -25.5zM507 375v-265q0 -15 4 -28t21 -13q10 0 18.5 2t12.5 3l7 -30q-26 -24 -60 -39t-79 -15q-46 0 -78 21.5t-45 61.5q-21 -32 -57 -55.5t-91 -23.5q-64 0 -105.5 35t-41.5 101
t39 98t91 50l162 56v110q0 30 -9 48.5t-34 18.5q-26 0 -37 -21.5t-11 -55.5q0 -18 3 -36.5t7 -37.5l-124 -16q-22 7 -37 26t-15 47q0 71 65 103.5t158 32.5q109 0 172.5 -38.5t63.5 -139.5z" />
    <glyph glyph-name="b" unicode="b" horiz-adv-x="650" 
d="M53 677l-53 27v34l224 45h35v-329q19 33 61 66t107 33q87 0 145 -61t58 -186q0 -157 -89.5 -236.5t-219.5 -79.5q-69 0 -143 14.5t-125 53.5v619zM320 41q50 0 75 59.5t25 146.5q0 101 -32.5 143.5t-82.5 42.5q-12 0 -23 -2t-23 -7v-283q0 -44 12 -72t49 -28z" />
    <glyph glyph-name="c" unicode="c" horiz-adv-x="517" 
d="M198 330q0 -94 40.5 -148.5t114.5 -54.5q43 0 75 14.5t55 47.5l24 -15q-25 -96 -86 -140t-148 -44q-106 0 -179.5 70.5t-73.5 194.5q0 128 77.5 213t204.5 85q76 0 133 -31t57 -100q0 -31 -15 -50t-32 -26h-103q2 18 3 32.5t1 27.5q0 45 -13.5 72t-46.5 27q-42 0 -65 -50
t-23 -125z" />
    <glyph glyph-name="d" unicode="d" horiz-adv-x="660" 
d="M325 486q-49 0 -73 -49t-24 -130q0 -92 30 -148.5t83 -56.5q10 0 21.5 1.5t22.5 5.5v284q0 46 -12 69.5t-48 23.5zM385 677l-53 27v34l224 45h35v-664q0 -25 5 -38t27 -13h23v-44l-225 -34h-39l3 95q-31 -48 -72 -71.5t-91 -23.5q-87 0 -144.5 66t-57.5 191
q0 148 79.5 224.5t190.5 76.5q29 0 54 -7t41 -20v156z" />
    <glyph glyph-name="e" unicode="e" horiz-adv-x="541" 
d="M297 553q112 0 169 -63t57 -161v-25h-317q0 -82 42 -131t108 -49q47 0 84 16.5t65 53.5l21 -13q-21 -87 -80.5 -139t-157.5 -52q-111 0 -189.5 69.5t-78.5 200.5q0 135 83.5 214t193.5 79zM284 509q-37 0 -55.5 -43t-21.5 -113h141q0 74 -14 115t-50 41z" />
    <glyph glyph-name="f" unicode="f" horiz-adv-x="392" 
d="M282 486v-389q0 -33 18 -41t60 -14v-42h-337v42q28 2 40.5 8t12.5 28v408h-71v45l71 17v8q0 119 73.5 173t174.5 54q86 0 126 -27.5t40 -75.5q0 -22 -11 -39.5t-28 -25.5h-103q2 10 3.5 23t1.5 26q0 26 -5.5 48t-27.5 22q-21 0 -29.5 -16t-8.5 -44v-131h114v-57h-114z
" />
    <glyph glyph-name="g" unicode="g" horiz-adv-x="571" 
d="M265 187q-28 0 -58 4t-58 13q-10 -9 -17.5 -19.5t-7.5 -24.5q0 -11 7 -19t20 -8h223q107 0 153.5 -42.5t46.5 -111.5q0 -98 -85.5 -150t-225.5 -52q-122 0 -194 31t-72 90q0 37 30.5 54t61.5 20q-32 13 -50 42.5t-18 61.5q0 51 30 84.5t70 54.5q-42 19 -69.5 54.5
t-27.5 90.5q0 91 71 142t179 51q31 0 54.5 -4t42.5 -9l183 4v-72h-47l-57 2q28 -19 44.5 -47.5t16.5 -65.5q0 -84 -71 -129t-175 -45zM386 -54h-274q-3 -4 -4 -11.5t-1 -15.5q0 -43 44.5 -67t114.5 -24q65 0 116.5 17t51.5 63q0 19 -12 28.5t-36 9.5zM272 230q31 0 41 34.5
t10 101.5q0 55 -13.5 98.5t-44.5 43.5q-30 0 -40.5 -34.5t-10.5 -97.5q0 -59 14 -102.5t44 -43.5z" />
    <glyph glyph-name="h" unicode="h" horiz-adv-x="680" 
d="M71 78v599l-53 27v34l224 45h35v-331q27 35 72 68t115 33q72 0 113.5 -41t41.5 -123v-311q0 -22 12.5 -28t40.5 -8v-42h-309v42q28 2 39 8t11 28v293q0 28 -12.5 45t-49.5 17q-21 0 -39 -3.5t-35 -9.5v-342q0 -22 11 -28t39 -8v-42h-309v42q28 2 40.5 8t12.5 28z" />
    <glyph glyph-name="i" unicode="i" horiz-adv-x="350" 
d="M281 553v-475q0 -22 12.5 -28t40.5 -8v-42h-312v42q28 2 40.5 8t12.5 28v350l-53 34v31l223 60h36zM181 590q-50 0 -78 29.5t-28 69.5t28 69.5t78 29.5q49 0 77.5 -29.5t28.5 -69.5t-28.5 -69.5t-77.5 -29.5z" />
    <glyph glyph-name="j" unicode="j" horiz-adv-x="315" 
d="M59 428l-53 34v31l223 60h36v-442q0 -89 -21 -136t-59 -81q-46 -41 -87 -62t-96 -43l-17 22l41 63q24 37 28.5 85.5t4.5 106.5v362zM162 590q-50 0 -78 29.5t-28 69.5t28 69.5t78 29.5q49 0 77.5 -29.5t28.5 -69.5t-28.5 -69.5t-77.5 -29.5z" />
    <glyph glyph-name="k" unicode="k" horiz-adv-x="662" 
d="M283 283l152 137q21 19 27.5 30t6.5 21q0 13 -12.5 19.5t-46.5 10.5v42h233v-42q-25 -3 -44.5 -9.5t-39.5 -26.5l-106 -102l209 -334v-29h-212zM71 78v599l-53 27v34l224 45h35v-705q0 -22 12.5 -28t40.5 -8v-42h-312v42q28 2 40.5 8t12.5 28z" />
    <glyph glyph-name="l" unicode="l" horiz-adv-x="346" 
d="M277 783v-705q0 -22 12.5 -28t40.5 -8v-42h-312v42q28 2 40.5 8t12.5 28v599l-53 27v34l224 45h35z" />
    <glyph glyph-name="m" unicode="m" horiz-adv-x="998" 
d="M731 78v296q0 28 -11.5 44t-42.5 16q-19 0 -35.5 -4.5t-32.5 -10.5v-341q0 -22 9 -28t37 -8v-42h-298v42q28 2 37 8t9 28v296q0 28 -11.5 44t-42.5 16q-19 0 -35.5 -4t-32.5 -10v-342q0 -22 9 -28t37 -8v-42h-305v42q28 2 40.5 8t12.5 28v350l-53 34v31l223 60h40
l-4 -103q26 41 70 72t112 31q58 0 95 -24.5t47 -80.5q25 40 71.5 72.5t112.5 32.5q69 0 108.5 -39.5t39.5 -117.5v-318q0 -22 12.5 -28t40.5 -8v-42h-305v42q28 2 37 8t9 28z" />
    <glyph glyph-name="n" unicode="n" horiz-adv-x="684" 
d="M417 78v293q0 28 -12.5 45t-49.5 17q-21 0 -39 -3.5t-35 -9.5v-342q0 -22 11 -28t39 -8v-42h-309v42q28 2 40.5 8t12.5 28v350l-53 34v31l223 60h40l-4 -101q27 35 72 68t115 33q72 0 113.5 -41t41.5 -123v-311q0 -22 12.5 -28t40.5 -8v-42h-309v42q28 2 39 8t11 28z" />
    <glyph glyph-name="o" unicode="o" horiz-adv-x="620" 
d="M315 34q40 0 53 53t13 146q0 128 -16.5 202t-59.5 74q-40 0 -53 -53t-13 -146q0 -128 16.5 -202t59.5 -74zM310 -10q-128 0 -209 73.5t-81 198.5t81 208t209 83t209 -73.5t81 -198.5t-81 -208t-209 -83z" />
    <glyph glyph-name="p" unicode="p" horiz-adv-x="665" 
d="M335 41q50 0 75 59.5t25 146.5q0 101 -32.5 143.5t-82.5 42.5q-12 0 -23 -2t-23 -7v-283q0 -44 12 -72t49 -28zM68 -134v562l-53 34v31l223 60h40l-4 -99q19 33 61 66t107 33q87 0 145 -61t58 -186q0 -157 -84 -236.5t-206 -79.5q-27 0 -48.5 4.5t-32.5 12.5v-136
q0 -26 16 -31.5t58 -9.5v-42h-333v42q28 2 40.5 8t12.5 28z" />
    <glyph glyph-name="q" unicode="q" horiz-adv-x="644" 
d="M325 501q-49 0 -73 -51.5t-24 -132.5q0 -92 30 -153.5t83 -61.5q10 0 21.5 1.5t22.5 5.5v299q0 46 -15.5 69.5t-44.5 23.5zM385 -129v214q-23 -38 -63.5 -66.5t-99.5 -28.5q-87 0 -144.5 66t-57.5 191q0 148 81 227t198 79q58 0 101 -15.5t75 -45.5l80 58h41l-5 -124
v-560q0 -22 12.5 -28t40.5 -8v-42h-333v42q42 4 58 9.5t16 31.5z" />
    <glyph glyph-name="r" unicode="r" horiz-adv-x="478" 
d="M281 355v-258q0 -33 18 -41t60 -14v-42h-337v42q28 2 40.5 8t12.5 28v350l-53 34v31l223 60h40l-4 -156q28 90 59.5 123t79.5 33q19 0 32 -5t21 -12v-153h-26q-48 0 -91 -4.5t-75 -23.5z" />
    <glyph glyph-name="s" unicode="s" horiz-adv-x="487" 
d="M231 -10q-65 0 -113.5 14t-82.5 37l-6 135h51q13 -60 52.5 -100.5t96.5 -40.5q34 0 57.5 16t23.5 47q0 37 -27.5 53t-75.5 30q-87 25 -133 68t-46 121q0 89 61 136t154 47q51 0 97.5 -12.5t78.5 -33.5v-120h-47q-7 47 -40 84t-84 37q-30 0 -49 -15t-19 -42q0 -30 22 -45
t68 -30q93 -31 142.5 -71t49.5 -126q0 -90 -63.5 -139.5t-167.5 -49.5z" />
    <glyph glyph-name="t" unicode="t" horiz-adv-x="405" 
d="M268 682v-139h111v-57h-111v-331q0 -32 13 -47t38 -15q18 0 35.5 6.5t34.5 18.5l16 -25q-30 -50 -75 -76.5t-108 -26.5q-72 0 -117.5 39t-45.5 129v328h-54v37q63 22 120 64.5t99 94.5h44z" />
    <glyph glyph-name="u" unicode="u" horiz-adv-x="669" 
d="M600 421v-302q0 -25 5 -38t27 -13h23v-44l-225 -34h-39l3 98q-25 -34 -68 -66t-112 -32q-67 0 -110.5 42t-43.5 129v237q0 21 -7 37t-28 23l-15 5v40l224 50h38l-6 -132v-242q0 -34 14.5 -53t48.5 -19q19 0 32.5 2.5t32.5 8.5v280q0 21 -7 37t-28 23l-15 5v40l224 50h38z
" />
    <glyph glyph-name="v" unicode="v" horiz-adv-x="616" 
d="M611 543v-42q-25 -8 -34.5 -16t-16.5 -24l-210 -464h-59l-235 464q-8 16 -17 24t-34 16v42h342v-42q-40 -5 -52.5 -12t-12.5 -23q0 -7 2 -12.5t6 -15.5l100 -212l91 212q4 10 6 15.5t2 12.5q0 16 -12.5 23t-52.5 12v42h187z" />
    <glyph glyph-name="w" unicode="w" horiz-adv-x="923" 
d="M708 236l82 202q4 10 6 18t2 14q0 15 -13.5 21.5t-41.5 9.5v42h175v-42q-25 -8 -34.5 -16t-16.5 -24l-200 -464h-68l-118 302l-142 -302h-68l-215 464q-7 16 -16.5 24t-34.5 16v42h318v-42q-22 -3 -32 -10t-10 -19q0 -7 2.5 -15.5t6.5 -18.5l90 -214l70 145l-36 92
q-6 16 -16 25t-29 15v42h316v-42q-31 -4 -45.5 -9.5t-14.5 -23.5q0 -6 1.5 -13.5t4.5 -16.5z" />
    <glyph glyph-name="x" unicode="x" horiz-adv-x="632" 
d="M334 108l-84 113l-82 -110q-7 -9 -10 -17t-3 -15q0 -16 16 -26t45 -11v-42h-211v42q26 7 42.5 18.5t26.5 24.5l140 185l-140 191q-8 11 -17 20t-31 20v42h315v-42q-21 -1 -32.5 -8t-11.5 -20q0 -7 4.5 -16.5t12.5 -21.5l65 -88l63 85q8 11 13 21t5 18q0 12 -11.5 19.5
t-34.5 10.5v42h185v-42q-26 -7 -40 -18.5t-24 -24.5l-122 -158l161 -218q8 -11 19.5 -21t33.5 -19v-42h-330v42q26 1 39.5 8.5t13.5 20.5q0 7 -4 16.5t-12 20.5z" />
    <glyph glyph-name="y" unicode="y" horiz-adv-x="616" 
d="M387 202l94 234q4 10 6 16.5t2 13.5q0 16 -12.5 23t-52.5 12v42h187v-42q-25 -8 -34.5 -16t-16.5 -24l-232 -544q-29 -68 -62.5 -103.5t-87.5 -35.5q-31 0 -53 11t-33 29v81q20 -4 39 -7t43 -3q43 0 65.5 12.5t35.5 39.5l15 32l-234 488q-7 16 -16.5 24t-34.5 16v42h342
v-42q-40 -5 -52.5 -12t-12.5 -23q0 -7 2 -13l5 -15z" />
    <glyph glyph-name="z" unicode="z" horiz-adv-x="550" 
d="M15 0v38l280 457h-80q-38 0 -68.5 -38t-68.5 -118h-42l14 236h40l22 -32h415v-37l-274 -457h90q51 0 82.5 36t73.5 118h41l-24 -203h-501z" />
    <glyph glyph-name="braceleft" unicode="{" horiz-adv-x="373" 
d="M50 304v20q36 7 59.5 29.5t23.5 70.5v218q0 59 48.5 93.5t166.5 34.5v-31q-35 -4 -60 -26t-25 -72v-205q0 -58 -34 -85t-87 -37q53 -10 87 -37t34 -85v-204q0 -50 25 -72t60 -26v-31q-118 0 -166.5 34.5t-48.5 93.5v217q0 48 -23.5 70.5t-59.5 29.5z" />
    <glyph glyph-name="bar" unicode="|" horiz-adv-x="202" 
d="M142 770v-911h-82v911h82z" />
    <glyph glyph-name="braceright" unicode="}" horiz-adv-x="383" 
d="M333 324v-20q-36 -7 -59.5 -29.5t-23.5 -70.5v-217q0 -59 -48.5 -93.5t-166.5 -34.5v31q35 4 60 26t25 72v204q0 58 34 85t87 37q-53 10 -87 37t-34 85v205q0 50 -25 72t-60 26v31q118 0 166.5 -34.5t48.5 -93.5v-218q0 -48 23.5 -70.5t59.5 -29.5z" />
    <glyph glyph-name="asciitilde" unicode="~" horiz-adv-x="502" 
d="M439 403l33 -17q-23 -83 -59.5 -126t-88.5 -43q-45 0 -85 38t-81 38q-32 0 -55 -21.5t-40 -49.5l-33 17q23 83 59.5 126t88.5 43q45 0 85 -38t81 -38q32 0 55 21.5t40 49.5z" />
    <glyph glyph-name="uni00A0" unicode="&#xa0;" horiz-adv-x="165" 
 />
    <glyph glyph-name="exclamdown" unicode="&#xa1;" horiz-adv-x="305" 
d="M51 510q0 42 30 72.5t71 30.5q43 0 72.5 -30.5t29.5 -72.5q0 -44 -29.5 -75t-72.5 -31q-41 0 -71 31t-30 75zM119 362h67l88 -461h-243z" />
    <glyph glyph-name="cent" unicode="&#xa2;" horiz-adv-x="537" 
d="M187 -117l19 116q-82 20 -134 88.5t-52 175.5q0 129 77.5 216.5t205.5 90.5l19 107h44l-19 -109q66 -6 113 -38t47 -95q0 -31 -15.5 -51t-33.5 -27h-80q2 19 3 35t1 29q0 36 -9 61t-34 35l-64 -376q17 -10 37.5 -14.5t43.5 -4.5q49 0 83 19.5t58 53.5l25 -15
q-25 -99 -90.5 -144.5t-154.5 -45.5h-14t-14 1l-18 -108h-44zM190 335q0 -55 12 -95.5t34 -66.5l59 349q-47 -4 -76 -56.5t-29 -130.5z" />
    <glyph glyph-name="sterling" unicode="&#xa3;" horiz-adv-x="712" 
d="M99 347v45h101l2 39q7 138 71.5 209.5t195.5 71.5q76 0 136.5 -29.5t60.5 -95.5q0 -31 -16 -53t-38 -29h-106q6 14 10.5 33t4.5 47q0 29 -6 58.5t-34 29.5q-27 0 -39.5 -26t-16.5 -75l-16 -180h148v-45h-152q-7 -64 -20.5 -111.5t-28.5 -74.5q37 -13 91 -19t94 -6
t65 15.5t25 47.5q0 12 -2 19.5t-6 16.5l33 11q10 -13 20.5 -39t10.5 -57q0 -75 -44 -117.5t-125 -42.5q-74 0 -127.5 29.5t-87.5 56.5q-26 -37 -70.5 -61.5t-100.5 -24.5q-55 0 -88.5 29t-33.5 78q0 51 32 79t80 28q14 0 33 -2.5t35 -9.5l8 155h-99zM119 43q31 0 48.5 25.5
t18.5 70.5q-14 8 -30 15t-35 7q-28 0 -43 -17t-15 -45q0 -26 15.5 -41t40.5 -15z" />
    <glyph glyph-name="currency" unicode="&#xa4;" horiz-adv-x="582" 
d="M65 542l31 31l73 -75q25 21 56 32.5t66 11.5q34 0 65.5 -11.5t56.5 -32.5l73 75l31 -31l-74 -74q19 -25 29.5 -56.5t10.5 -66.5q0 -36 -10.5 -67t-29.5 -56l74 -74l-31 -31l-73 74q-25 -20 -56.5 -31.5t-65.5 -11.5q-35 0 -66 11.5t-56 31.5l-73 -74l-31 31l74 74
q-19 25 -29.5 56t-10.5 67q0 35 10.5 66.5t29.5 56.5zM159 345q0 -61 38 -101t94 -40t93.5 40t37.5 101q0 62 -37.5 102t-93.5 40t-94 -40t-38 -102z" />
    <glyph glyph-name="yen" unicode="&#xa5;" horiz-adv-x="701" 
d="M92 351v48h94l-123 221q-11 21 -23.5 27t-34.5 10v45h359v-45q-38 -1 -50.5 -10t-12.5 -28q0 -15 6 -29.5t18 -36.5l109 -204l98 202q9 19 13.5 34.5t4.5 33.5q0 19 -16 28t-48 10v45h210v-45q-21 -4 -35 -11.5t-23 -25.5l-110 -221h95v-48h-119l-38 -78h157v-47h-158
v-119q0 -38 15 -47.5t64 -14.5v-45h-366v45q49 5 64 14.5t15 47.5v119h-165v47h164l-44 78h-120z" />
    <glyph glyph-name="brokenbar" unicode="&#xa6;" horiz-adv-x="202" 
d="M142 770v-376h-82v376h82zM142 235v-376h-82v376h82z" />
    <glyph glyph-name="section" unicode="&#xa7;" horiz-adv-x="531" 
d="M157 630q-31 -33 -45.5 -68t-14.5 -89q0 -78 33 -145.5t81 -133.5q44 -63 101.5 -147t61.5 -168q31 33 45.5 68t14.5 89q0 77 -33 144.5t-81 134.5q-44 62 -101.5 146.5t-61.5 168.5zM230 -203q-71 0 -117.5 31.5t-46.5 82.5q0 27 14 41t31 20h94v-50q0 -30 11 -60
t54 -30q31 0 43.5 18t12.5 43q0 64 -52 131.5t-104 140.5q-51 72 -87 146.5t-36 161.5q0 109 74 174t180 65q71 0 117.5 -31.5t46.5 -82.5q0 -27 -14 -41t-31 -20h-94v50q0 30 -11 60t-54 30q-31 0 -43.5 -18t-12.5 -43q0 -64 52 -131.5t104 -140.5q51 -72 87 -146.5
t36 -161.5q0 -109 -74 -174t-180 -65z" />
    <glyph glyph-name="dieresis" unicode="&#xa8;" 
d="M61 691q0 36 26 62t63 26t63.5 -26t26.5 -62t-26.5 -62t-63.5 -26t-63 26t-26 62zM271 691q0 36 26.5 62t61.5 26q38 0 64.5 -26t26.5 -62t-26.5 -62t-64.5 -26q-35 0 -61.5 26t-26.5 62z" />
    <glyph glyph-name="copyright" unicode="&#xa9;" horiz-adv-x="776" 
d="M72 351q0 -132 88.5 -227t227.5 -95t227.5 95t88.5 227t-88.5 227t-227.5 95t-227.5 -95t-88.5 -227zM30 351q0 149 101 255t257 106t257 -106t101 -255t-101 -255t-257 -106t-257 106t-101 255zM420 179q37 0 62 30.5t42 85.5h40l-9 -115q-27 -18 -64.5 -28.5
t-83.5 -10.5q-103 0 -159 57.5t-56 145.5q0 101 63.5 160.5t152.5 59.5q43 0 80.5 -11.5t60.5 -31.5v-106h-39q-9 46 -30 78.5t-61 32.5q-51 0 -71.5 -53.5t-20.5 -119.5q0 -79 22.5 -126.5t70.5 -47.5z" />
    <glyph glyph-name="ordfeminine" unicode="&#xaa;" horiz-adv-x="429" 
d="M197 414q9 0 15 2t13 6v111l-27 -12q-19 -9 -27 -22.5t-8 -36.5t9 -35.5t25 -12.5zM355 572v-140q0 -17 5.5 -26t16.5 -9q5 0 12 1t14 3l6 -20q-17 -17 -42 -28.5t-53 -11.5q-33 0 -56.5 17.5t-30.5 45.5q-17 -30 -43.5 -45t-61.5 -15q-40 0 -66 24.5t-26 65.5
q0 43 26.5 63.5t60.5 31.5l108 35v54q0 33 -5.5 49t-23.5 16t-26 -12.5t-8 -33.5q0 -12 2.5 -25.5t6.5 -26.5l-92 -13q-13 5 -21.5 18.5t-8.5 29.5q0 46 43 69t111 23q78 0 115 -30t37 -110z" />
    <glyph glyph-name="guillemotleft" unicode="&#xab;" horiz-adv-x="474" 
d="M20 273v6l187 202h50l-82 -205l82 -205h-50zM217 273v6l187 202h50l-82 -205l82 -205h-50z" />
    <glyph glyph-name="registered" unicode="&#xae;" horiz-adv-x="515" 
d="M242 584h-6v-97h6q21 0 33 13.5t12 35.5t-12 35t-33 13zM144 608h115q54 0 77 -21.5t23 -49.5t-16.5 -43.5t-35.5 -21.5l46 -62q7 -10 14 -15t15 -6v-19h-70q-8 4 -15.5 12.5t-14.5 18.5l-42 64h-4v-51q0 -14 4 -19.5t20 -5.5v-19h-116v19q17 0 21.5 5.5t4.5 19.5v150
q0 15 -4.5 19t-21.5 6v19zM67 484q0 -77 54 -135t136 -58q83 0 137 58t54 135q0 78 -54 136t-137 58q-82 0 -136 -58t-54 -136zM30 484q0 94 64 161t163 67t163.5 -67t64.5 -161q0 -93 -64.5 -160t-163.5 -67t-163 67t-64 160z" />
    <glyph glyph-name="macron" unicode="&#xaf;" 
d="M110 625v95h294v-95h-294z" />
    <glyph glyph-name="degree" unicode="&#xb0;" horiz-adv-x="288" 
d="M77 590q0 -31 18 -51.5t50 -20.5q31 0 48.5 20.5t17.5 51.5t-17.5 51t-48.5 20q-32 0 -50 -20t-18 -51zM20 590q0 51 36.5 86.5t88.5 35.5q51 0 87 -35.5t36 -86.5q0 -52 -36 -87.5t-87 -35.5q-52 0 -88.5 35.5t-36.5 87.5z" />
    <glyph glyph-name="plusminus" unicode="&#xb1;" horiz-adv-x="576" 
d="M252 608h71v-141h186v-70h-186v-140h-71v140h-184v70h184v141zM68 135v71h441v-71h-441z" />
    <glyph glyph-name="twosuperior" unicode="&#xb2;" horiz-adv-x="399" 
d="M160 402h109q22 0 32 8.5t26 30.5h22l-11 -139h-308v28l117 108q32 30 47.5 57.5t15.5 58.5q0 29 -16 47t-47 18q-29 0 -50.5 -13t-35.5 -30l-23 20q21 44 63 78t105 34q58 0 92.5 -30.5t34.5 -84.5q0 -65 -52 -109t-121 -82z" />
    <glyph glyph-name="threesuperior" unicode="&#xb3;" horiz-adv-x="394" 
d="M224 528q57 -1 93.5 -28t36.5 -77q0 -59 -51 -89.5t-122 -30.5q-74 0 -107.5 24.5t-33.5 58.5q0 20 9 31.5t19 15.5h73q-3 -9 -4 -15.5t-1 -14.5q0 -31 13 -50t37 -19q22 0 36.5 17.5t14.5 54.5t-19.5 58.5t-60.5 21.5h-14l-8 23q43 17 58.5 32.5t15.5 37.5
q0 20 -13.5 34.5t-40.5 14.5t-44.5 -13t-29.5 -28l-26 20q20 40 60.5 72.5t102.5 32.5q51 0 82 -24t31 -67q0 -42 -32.5 -64.5t-74.5 -28.5z" />
    <glyph glyph-name="acute" unicode="&#xb4;" 
d="M161 766h197v-10l-185 -153h-59z" />
    <glyph glyph-name="mu" unicode="&#xb5;" horiz-adv-x="669" 
d="M254 -10l13 -161v-16l-207 -10v595q0 21 -7 37t-28 23l-15 5v40l224 50h38l-6 -132v-242q0 -34 14.5 -53t48.5 -19q19 0 32.5 2.5t32.5 8.5v280q0 21 -7 37t-28 23l-15 5v40l224 50h38l-6 -132v-302q0 -25 5 -38t27 -13h23v-44l-225 -34h-39l3 98q-16 -49 -51.5 -73.5
t-81.5 -24.5h-7z" />
    <glyph glyph-name="paragraph" unicode="&#xb6;" horiz-adv-x="617" 
d="M313 -197v391q-133 0 -205.5 76.5t-72.5 177.5t72.5 177.5t205.5 76.5h278v-43q-60 0 -81 -13.5t-21 -59.5v-783h-49v856h-78v-856h-49zM313 235v426q-53 -7 -80.5 -73.5t-27.5 -139.5t27.5 -139.5t80.5 -73.5z" />
    <glyph glyph-name="periodcentered" unicode="&#xb7;" horiz-adv-x="275" 
d="M30 305q0 47 31.5 77.5t75.5 30.5q45 0 76.5 -30.5t31.5 -77.5t-31.5 -77t-76.5 -30q-44 0 -75.5 30t-31.5 77z" />
    <glyph glyph-name="cedilla" unicode="&#xb8;" 
d="M148 -233l-9 37q54 0 78.5 14t24.5 33q0 20 -21 25.5t-56 6.5l50 125h40l-19 -46q48 0 77.5 -22t29.5 -62q0 -57 -60 -84t-135 -27z" />
    <glyph glyph-name="onesuperior" unicode="&#xb9;" horiz-adv-x="347" 
d="M202 712h36v-329q0 -26 12 -32t52 -9v-36h-262v36q48 3 57 9t9 32v210h-66v34l25 5q51 10 82 29.5t55 50.5z" />
    <glyph glyph-name="ordmasculine" unicode="&#xba;" horiz-adv-x="431" 
d="M221 373q26 0 36 37.5t10 100.5q0 72 -14 120.5t-43 48.5q-26 0 -36 -37.5t-10 -100.5q0 -72 14 -120.5t43 -48.5zM210 341q-84 0 -134.5 50t-50.5 129q0 88 54.5 140t141.5 52q84 0 134.5 -50t50.5 -129q0 -88 -54.5 -140t-141.5 -52z" />
    <glyph glyph-name="guillemotright" unicode="&#xbb;" horiz-adv-x="474" 
d="M454 279v-6l-187 -202h-50l82 205l-82 205h50zM257 279v-6l-187 -202h-50l82 205l-82 205h50z" />
    <glyph glyph-name="onequarter" unicode="&#xbc;" horiz-adv-x="808" 
d="M436 145h129v164zM202 712h36v-329q0 -26 12 -32t52 -9v-36h-262v36q48 3 57 9t9 32v210h-66v34l25 5q51 10 82 29.5t55 50.5zM746 0h-232v36q31 2 41 8.5t10 32.5v27h-187v34l199 258h118v-251h78v-41h-78v-27q0 -26 10 -32.5t41 -8.5v-36zM151 -10l438 722h58
l-439 -722h-57z" />
    <glyph glyph-name="onehalf" unicode="&#xbd;" horiz-adv-x="817" 
d="M202 712h36v-329q0 -26 12 -32t52 -9v-36h-262v36q48 3 57 9t9 32v210h-66v34l25 5q51 10 82 29.5t55 50.5zM578 100h109q22 0 32 8.5t26 30.5h22l-11 -139h-308v28l117 108q32 30 47.5 57.5t15.5 58.5q0 29 -16 47t-47 18q-29 0 -50.5 -13t-35.5 -30l-23 20q21 44 63 78
t105 34q58 0 92.5 -30.5t34.5 -84.5q0 -65 -52 -109t-121 -82zM151 -10l438 722h58l-439 -722h-57z" />
    <glyph glyph-name="threequarters" unicode="&#xbe;" horiz-adv-x="834" 
d="M224 528q57 -1 93.5 -28t36.5 -77q0 -59 -51 -89.5t-122 -30.5q-74 0 -107.5 24.5t-33.5 58.5q0 20 9 31.5t19 15.5h73q-3 -9 -4 -15.5t-1 -14.5q0 -31 13 -50t37 -19q22 0 36.5 17.5t14.5 54.5t-19.5 58.5t-60.5 21.5h-14l-8 23q43 17 58.5 32.5t15.5 37.5
q0 20 -13.5 34.5t-40.5 14.5t-44.5 -13t-29.5 -28l-26 20q20 40 60.5 72.5t102.5 32.5q51 0 82 -24t31 -67q0 -42 -32.5 -64.5t-74.5 -28.5zM462 145h129v164zM772 0h-232v36q31 2 41 8.5t10 32.5v27h-187v34l199 258h118v-251h78v-41h-78v-27q0 -26 10 -32.5t41 -8.5v-36z
M177 -10l438 722h58l-439 -722h-57z" />
    <glyph glyph-name="questiondown" unicode="&#xbf;" horiz-adv-x="477" 
d="M176 3q0 -31 16 -50t47 -19q40 0 54.5 30t14.5 67q0 22 -2 34t-4 27h119q22 -10 33 -28t11 -41q0 -60 -61.5 -96t-162.5 -36q-110 0 -169 45t-59 126q0 64 34.5 108t103.5 83q43 25 61 46t18 56v9h29q41 -14 64.5 -42t23.5 -70q0 -32 -19 -64t-58 -60q-38 -28 -66 -56.5
t-28 -68.5zM349 510q0 -44 -29.5 -75t-71.5 -31q-43 0 -72.5 31t-29.5 75q0 42 29.5 72.5t72.5 30.5q42 0 71.5 -30.5t29.5 -72.5z" />
    <glyph glyph-name="Agrave" unicode="&#xc0;" horiz-adv-x="773" 
d="M461 129l-32 82h-247l-30 -82q-4 -10 -6 -19.5t-2 -16.5q0 -25 21 -35t59 -13v-45h-219v45q20 4 35 10.5t23 26.5l203 533l-35 87h233l245 -620q7 -19 22 -26t37 -11v-45h-375v45q34 1 55 11.5t21 35.5q0 7 -2 16.5t-6 20.5zM302 536l-99 -267h203zM168 890h197l47 -149
h-64l-180 139v10z" />
    <glyph glyph-name="Aacute" unicode="&#xc1;" horiz-adv-x="773" 
d="M461 129l-32 82h-247l-30 -82q-4 -10 -6 -19.5t-2 -16.5q0 -25 21 -35t59 -13v-45h-219v45q20 4 35 10.5t23 26.5l203 533l-35 87h233l245 -620q7 -19 22 -26t37 -11v-45h-375v45q34 1 55 11.5t21 35.5q0 7 -2 16.5t-6 20.5zM302 536l-99 -267h203zM345 890h197v-10
l-180 -139h-64z" />
    <glyph glyph-name="Acircumflex" unicode="&#xc2;" horiz-adv-x="773" 
d="M461 129l-32 82h-247l-30 -82q-4 -10 -6 -19.5t-2 -16.5q0 -25 21 -35t59 -13v-45h-219v45q20 4 35 10.5t23 26.5l203 533l-35 87h233l245 -620q7 -19 22 -26t37 -11v-45h-375v45q34 1 55 11.5t21 35.5q0 7 -2 16.5t-6 20.5zM302 536l-99 -267h203zM426 893l118 -152h-65
l-121 65l-121 -65h-65l118 152h136z" />
    <glyph glyph-name="Atilde" unicode="&#xc3;" horiz-adv-x="773" 
d="M461 129l-32 82h-247l-30 -82q-4 -10 -6 -19.5t-2 -16.5q0 -25 21 -35t59 -13v-45h-219v45q20 4 35 10.5t23 26.5l203 533l-35 87h233l245 -620q7 -19 22 -26t37 -11v-45h-375v45q34 1 55 11.5t21 35.5q0 7 -2 16.5t-6 20.5zM302 536l-99 -267h203zM428 741
q-49 0 -76.5 30t-59.5 30q-21 0 -36 -16t-29 -39l-40 22q25 64 52 101.5t69 37.5q49 0 76.5 -30t59.5 -30q21 0 36 16t29 39l40 -22q-25 -64 -52 -101.5t-69 -37.5z" />
    <glyph glyph-name="Adieresis" unicode="&#xc4;" horiz-adv-x="773" 
d="M461 129l-32 82h-247l-30 -82q-4 -10 -6 -19.5t-2 -16.5q0 -25 21 -35t59 -13v-45h-219v45q20 4 35 10.5t23 26.5l203 533l-35 87h233l245 -620q7 -19 22 -26t37 -11v-45h-375v45q34 1 55 11.5t21 35.5q0 7 -2 16.5t-6 20.5zM302 536l-99 -267h203zM164 823q0 36 26 62
t63 26t63.5 -26t26.5 -62t-26.5 -62t-63.5 -26t-63 26t-26 62zM374 823q0 36 26.5 62t61.5 26q38 0 64.5 -26t26.5 -62t-26.5 -62t-64.5 -26q-35 0 -61.5 26t-26.5 62z" />
    <glyph glyph-name="Aring" unicode="&#xc5;" horiz-adv-x="773" 
d="M461 129l-32 82h-247l-30 -82q-4 -10 -6 -19.5t-2 -16.5q0 -25 21 -35t59 -13v-45h-219v45q20 4 35 10.5t23 26.5l203 533l-35 87h233l245 -620q7 -19 22 -26t37 -11v-45h-375v45q34 1 55 11.5t21 35.5q0 7 -2 16.5t-6 20.5zM302 536l-99 -267h203zM309 829
q0 -21 12.5 -35t36.5 -14t36.5 14t12.5 35q0 22 -12.5 36t-36.5 14t-36.5 -14t-12.5 -36zM250 829q0 44 30.5 74.5t77.5 30.5t77 -30.5t30 -74.5q0 -43 -30 -73.5t-77 -30.5t-77.5 30.5t-30.5 73.5z" />
    <glyph glyph-name="AE" unicode="&#xc6;" horiz-adv-x="1049" 
d="M63 82l337 545q-13 13 -35.5 20.5t-56.5 9.5v45h689l5 -199h-42q-40 84 -71.5 116.5t-103.5 32.5h-86v-260h83q35 0 47.5 20.5t18.5 72.5h47v-246h-47q-6 52 -18.5 72.5t-47.5 20.5h-83v-215q0 -40 19 -53.5t58 -13.5h22q70 0 101 37t86 140h50l-33 -227h-591v45
q49 5 59 17t10 50v137h-237l-74 -120q-7 -13 -11 -22t-4 -19q0 -21 22 -31t65 -12v-45h-236v45q20 4 33.5 11t24.5 26zM480 633l-201 -326h201v326z" />
    <glyph glyph-name="Ccedilla" unicode="&#xc7;" horiz-adv-x="695" 
d="M311 -233l-9 37q54 0 78.5 14t24.5 33q0 20 -21 25.5t-56 6.5l43 108q-161 7 -253.5 97.5t-92.5 242.5q0 176 115 278.5t273 102.5q69 0 125.5 -15.5t99.5 -43.5l4 -181h-54q-19 90 -59 138t-108 48q-89 0 -127.5 -87t-38.5 -212q0 -135 44.5 -223.5t131.5 -88.5
q58 0 105.5 49.5t78.5 164.5h55l-18 -203q-42 -31 -106 -49t-136 -19l-11 -28q48 0 77.5 -22t29.5 -62q0 -57 -60 -84t-135 -27z" />
    <glyph glyph-name="Egrave" unicode="&#xc8;" horiz-adv-x="664" 
d="M26 0v45q49 5 59 17t10 50v478q0 38 -10 50t-59 17v45h586l5 -199h-42q-40 84 -71.5 116.5t-103.5 32.5h-86v-260h83q35 0 47.5 20.5t18.5 72.5h47v-246h-47q-6 52 -18.5 72.5t-47.5 20.5h-83v-215q0 -40 19 -53.5t58 -13.5h22q70 0 101 37t86 140h50l-33 -227h-591z
M158 890h197l47 -149h-64l-180 139v10z" />
    <glyph glyph-name="Eacute" unicode="&#xc9;" horiz-adv-x="664" 
d="M26 0v45q49 5 59 17t10 50v478q0 38 -10 50t-59 17v45h586l5 -199h-42q-40 84 -71.5 116.5t-103.5 32.5h-86v-260h83q35 0 47.5 20.5t18.5 72.5h47v-246h-47q-6 52 -18.5 72.5t-47.5 20.5h-83v-215q0 -40 19 -53.5t58 -13.5h22q70 0 101 37t86 140h50l-33 -227h-591z
M335 890h197v-10l-180 -139h-64z" />
    <glyph glyph-name="Ecircumflex" unicode="&#xca;" horiz-adv-x="664" 
d="M26 0v45q49 5 59 17t10 50v478q0 38 -10 50t-59 17v45h586l5 -199h-42q-40 84 -71.5 116.5t-103.5 32.5h-86v-260h83q35 0 47.5 20.5t18.5 72.5h47v-246h-47q-6 52 -18.5 72.5t-47.5 20.5h-83v-215q0 -40 19 -53.5t58 -13.5h22q70 0 101 37t86 140h50l-33 -227h-591z
M416 893l118 -152h-65l-121 65l-121 -65h-65l118 152h136z" />
    <glyph glyph-name="Edieresis" unicode="&#xcb;" horiz-adv-x="664" 
d="M26 0v45q49 5 59 17t10 50v478q0 38 -10 50t-59 17v45h586l5 -199h-42q-40 84 -71.5 116.5t-103.5 32.5h-86v-260h83q35 0 47.5 20.5t18.5 72.5h47v-246h-47q-6 52 -18.5 72.5t-47.5 20.5h-83v-215q0 -40 19 -53.5t58 -13.5h22q70 0 101 37t86 140h50l-33 -227h-591z
M154 823q0 36 26 62t63 26t63.5 -26t26.5 -62t-26.5 -62t-63.5 -26t-63 26t-26 62zM364 823q0 36 26.5 62t61.5 26q38 0 64.5 -26t26.5 -62t-26.5 -62t-64.5 -26q-35 0 -61.5 26t-26.5 62z" />
    <glyph glyph-name="Igrave" unicode="&#xcc;" horiz-adv-x="409" 
d="M314 590v-478q0 -38 10 -50t59 -17v-45h-357v45q49 5 59 17t10 50v478q0 38 -10 50t-59 17v45h357v-45q-49 -5 -59 -17t-10 -50zM14 890h197l47 -149h-64l-180 139v10z" />
    <glyph glyph-name="Iacute" unicode="&#xcd;" horiz-adv-x="409" 
d="M314 590v-478q0 -38 10 -50t59 -17v-45h-357v45q49 5 59 17t10 50v478q0 38 -10 50t-59 17v45h357v-45q-49 -5 -59 -17t-10 -50zM191 890h197v-10l-180 -139h-64z" />
    <glyph glyph-name="Icircumflex" unicode="&#xce;" horiz-adv-x="409" 
d="M314 590v-478q0 -38 10 -50t59 -17v-45h-357v45q49 5 59 17t10 50v478q0 38 -10 50t-59 17v45h357v-45q-49 -5 -59 -17t-10 -50zM272 893l118 -152h-65l-121 65l-121 -65h-65l118 152h136z" />
    <glyph glyph-name="Idieresis" unicode="&#xcf;" horiz-adv-x="409" 
d="M314 590v-478q0 -38 10 -50t59 -17v-45h-357v45q49 5 59 17t10 50v478q0 38 -10 50t-59 17v45h357v-45q-49 -5 -59 -17t-10 -50zM10 823q0 36 26 62t63 26t63.5 -26t26.5 -62t-26.5 -62t-63.5 -26t-63 26t-26 62zM220 823q0 36 26.5 62t61.5 26q38 0 64.5 -26t26.5 -62
t-26.5 -62t-64.5 -26q-35 0 -61.5 26t-26.5 62z" />
    <glyph glyph-name="Eth" unicode="&#xd0;" horiz-adv-x="817" 
d="M36 320v68h69v202q0 38 -10 50t-59 17v45h339q211 0 314 -98.5t103 -247.5q0 -166 -105 -261t-287 -95h-364v45q49 5 59 17t10 50v208h-69zM337 652h-13v-264h126v-68h-126v-200q0 -44 16 -57t47 -13h6q79 0 126 80t47 208q0 148 -62 231t-167 83z" />
    <glyph glyph-name="Ntilde" unicode="&#xd1;" horiz-adv-x="757" 
d="M598 337v253q0 38 -21 50.5t-81 16.5v45h244v-45q-49 -5 -59 -17t-10 -50v-590h-82l-421 516v-404q0 -38 21 -50.5t81 -16.5v-45h-244v45q49 5 59 17t10 50v480q-17 31 -31 47t-38 18v45h274zM461 741q-49 0 -76.5 30t-59.5 30q-21 0 -36 -16t-29 -39l-40 22
q25 64 52 101.5t69 37.5q49 0 76.5 -30t59.5 -30q21 0 36 16t29 39l40 -22q-25 -64 -52 -101.5t-69 -37.5z" />
    <glyph glyph-name="Ograve" unicode="&#xd2;" horiz-adv-x="758" 
d="M384 42q70 0 94.5 95t24.5 199q0 137 -29 230.5t-100 93.5q-70 0 -94.5 -95t-24.5 -199q0 -137 29 -230.5t100 -93.5zM369 -10q-169 0 -256.5 103.5t-87.5 243.5q0 172 102.5 273.5t261.5 101.5q169 0 256.5 -103.5t87.5 -243.5q0 -172 -102.5 -273.5t-261.5 -101.5z
M193 890h197l47 -149h-64l-180 139v10z" />
    <glyph glyph-name="Oacute" unicode="&#xd3;" horiz-adv-x="758" 
d="M384 42q70 0 94.5 95t24.5 199q0 137 -29 230.5t-100 93.5q-70 0 -94.5 -95t-24.5 -199q0 -137 29 -230.5t100 -93.5zM369 -10q-169 0 -256.5 103.5t-87.5 243.5q0 172 102.5 273.5t261.5 101.5q169 0 256.5 -103.5t87.5 -243.5q0 -172 -102.5 -273.5t-261.5 -101.5z
M370 890h197v-10l-180 -139h-64z" />
    <glyph glyph-name="Ocircumflex" unicode="&#xd4;" horiz-adv-x="758" 
d="M384 42q70 0 94.5 95t24.5 199q0 137 -29 230.5t-100 93.5q-70 0 -94.5 -95t-24.5 -199q0 -137 29 -230.5t100 -93.5zM369 -10q-169 0 -256.5 103.5t-87.5 243.5q0 172 102.5 273.5t261.5 101.5q169 0 256.5 -103.5t87.5 -243.5q0 -172 -102.5 -273.5t-261.5 -101.5z
M451 893l118 -152h-65l-121 65l-121 -65h-65l118 152h136z" />
    <glyph glyph-name="Otilde" unicode="&#xd5;" horiz-adv-x="758" 
d="M384 42q70 0 94.5 95t24.5 199q0 137 -29 230.5t-100 93.5q-70 0 -94.5 -95t-24.5 -199q0 -137 29 -230.5t100 -93.5zM369 -10q-169 0 -256.5 103.5t-87.5 243.5q0 172 102.5 273.5t261.5 101.5q169 0 256.5 -103.5t87.5 -243.5q0 -172 -102.5 -273.5t-261.5 -101.5z
M462 741q-49 0 -76.5 30t-59.5 30q-21 0 -36 -16t-29 -39l-40 22q25 64 52 101.5t69 37.5q49 0 76.5 -30t59.5 -30q21 0 36 16t29 39l40 -22q-25 -64 -52 -101.5t-69 -37.5z" />
    <glyph glyph-name="Odieresis" unicode="&#xd6;" horiz-adv-x="758" 
d="M384 42q70 0 94.5 95t24.5 199q0 137 -29 230.5t-100 93.5q-70 0 -94.5 -95t-24.5 -199q0 -137 29 -230.5t100 -93.5zM369 -10q-169 0 -256.5 103.5t-87.5 243.5q0 172 102.5 273.5t261.5 101.5q169 0 256.5 -103.5t87.5 -243.5q0 -172 -102.5 -273.5t-261.5 -101.5z
M189 823q0 36 26 62t63 26t63.5 -26t26.5 -62t-26.5 -62t-63.5 -26t-63 26t-26 62zM399 823q0 36 26.5 62t61.5 26q38 0 64.5 -26t26.5 -62t-26.5 -62t-64.5 -26q-35 0 -61.5 26t-26.5 62z" />
    <glyph glyph-name="multiply" unicode="&#xd7;" horiz-adv-x="499" 
d="M200 365l-136 136l50 50l135 -137l136 137l51 -50l-137 -136l137 -136l-51 -49l-136 136l-135 -136l-50 49z" />
    <glyph glyph-name="Oslash" unicode="&#xd8;" horiz-adv-x="758" 
d="M369 -10q-56 0 -103 12.5t-85 34.5l-74 -97l-42 32l73 95q-56 49 -84.5 119.5t-28.5 150.5q0 172 102.5 273.5t261.5 101.5q61 0 111.5 -15t90.5 -42l70 91l42 -32l-71 -92q50 -48 75.5 -115t25.5 -142q0 -172 -102.5 -273.5t-261.5 -101.5zM255 366q0 -37 2 -71.5
t6 -65.5l224 291q-14 63 -41.5 101.5t-71.5 38.5q-70 0 -94.5 -95t-24.5 -199zM384 42q70 0 94.5 95t24.5 199q0 29 -1.5 57.5t-3.5 54.5l-222 -288q14 -54 41 -86t67 -32z" />
    <glyph glyph-name="Ugrave" unicode="&#xd9;" horiz-adv-x="763" 
d="M303 590v-325q0 -84 33.5 -133.5t114.5 -49.5q62 0 108.5 41.5t46.5 145.5v321q0 38 -16 50.5t-76 16.5v45h234v-45q-49 -5 -59 -17t-10 -50v-341q0 -132 -83 -195.5t-202 -63.5q-149 0 -229.5 65.5t-80.5 193.5v341q0 38 -10 50t-59 17v45h357v-45q-49 -5 -59 -17
t-10 -50zM235 890h197l47 -149h-64l-180 139v10z" />
    <glyph glyph-name="Uacute" unicode="&#xda;" horiz-adv-x="763" 
d="M303 590v-325q0 -84 33.5 -133.5t114.5 -49.5q62 0 108.5 41.5t46.5 145.5v321q0 38 -16 50.5t-76 16.5v45h234v-45q-49 -5 -59 -17t-10 -50v-341q0 -132 -83 -195.5t-202 -63.5q-149 0 -229.5 65.5t-80.5 193.5v341q0 38 -10 50t-59 17v45h357v-45q-49 -5 -59 -17
t-10 -50zM412 890h197v-10l-180 -139h-64z" />
    <glyph glyph-name="Ucircumflex" unicode="&#xdb;" horiz-adv-x="763" 
d="M303 590v-325q0 -84 33.5 -133.5t114.5 -49.5q62 0 108.5 41.5t46.5 145.5v321q0 38 -16 50.5t-76 16.5v45h234v-45q-49 -5 -59 -17t-10 -50v-341q0 -132 -83 -195.5t-202 -63.5q-149 0 -229.5 65.5t-80.5 193.5v341q0 38 -10 50t-59 17v45h357v-45q-49 -5 -59 -17
t-10 -50zM493 893l118 -152h-65l-121 65l-121 -65h-65l118 152h136z" />
    <glyph glyph-name="Udieresis" unicode="&#xdc;" horiz-adv-x="763" 
d="M303 590v-325q0 -84 33.5 -133.5t114.5 -49.5q62 0 108.5 41.5t46.5 145.5v321q0 38 -16 50.5t-76 16.5v45h234v-45q-49 -5 -59 -17t-10 -50v-341q0 -132 -83 -195.5t-202 -63.5q-149 0 -229.5 65.5t-80.5 193.5v341q0 38 -10 50t-59 17v45h357v-45q-49 -5 -59 -17
t-10 -50zM231 823q0 36 26 62t63 26t63.5 -26t26.5 -62t-26.5 -62t-63.5 -26t-63 26t-26 62zM441 823q0 36 26.5 62t61.5 26q38 0 64.5 -26t26.5 -62t-26.5 -62t-64.5 -26q-35 0 -61.5 26t-26.5 62z" />
    <glyph glyph-name="Yacute" unicode="&#xdd;" horiz-adv-x="727" 
d="M481 258v-151q0 -38 15 -47.5t64 -14.5v-45h-372v45q49 5 64 14.5t15 47.5v146l-204 367q-11 21 -23.5 27t-34.5 10v45h365v-45q-38 -1 -50.5 -9.5t-12.5 -26.5q0 -16 6 -31t18 -37l123 -210l103 208q9 19 17 38t8 32q0 18 -17 26.5t-49 9.5v45h206v-45q-21 -4 -35 -11.5
t-23 -25.5zM402 890h197v-10l-180 -139h-64z" />
    <glyph glyph-name="Thorn" unicode="&#xde;" horiz-adv-x="687" 
d="M314 590v-14h76q148 0 219 -60.5t71 -152.5q0 -106 -74.5 -164t-226.5 -58h-65v-29q0 -38 25 -51t90 -16v-45h-403v45q49 5 59 17t10 50v478q0 38 -10 50t-59 17v45h357v-45q-49 -5 -59 -17t-10 -50zM314 526v-328h13q67 0 103.5 45t36.5 120q0 78 -39.5 120.5
t-100.5 42.5h-13z" />
    <glyph glyph-name="germandbls" unicode="&#xdf;" horiz-adv-x="745" 
d="M382 783q106 0 168.5 -38.5t62.5 -105.5q0 -81 -69 -106t-69 -64q0 -16 27.5 -33.5t73.5 -44.5q68 -40 111 -86t43 -127q0 -88 -62 -138t-160 -50q-52 0 -95 13.5t-74 38.5l-6 129h51q14 -57 48 -96.5t81 -39.5q32 0 51.5 17.5t19.5 45.5q0 34 -23.5 59t-78.5 58
q-64 38 -94.5 73.5t-30.5 84.5q0 84 63.5 128t63.5 140q0 43 -24 70.5t-71 27.5q-57 0 -82 -40.5t-25 -110.5v-588h-259v42q28 2 40.5 8t12.5 28v408h-71v45l72 17l1 8q13 104 92.5 165.5t211.5 61.5z" />
    <glyph glyph-name="agrave" unicode="&#xe0;" horiz-adv-x="568" 
d="M276 98q8 0 15 1.5t14 3.5v185l-40 -15q-24 -9 -39 -26t-15 -61q0 -37 14.5 -62.5t50.5 -25.5zM507 375v-265q0 -15 4 -28t21 -13q10 0 18.5 2t12.5 3l7 -30q-26 -24 -60 -39t-79 -15q-46 0 -78 21.5t-45 61.5q-21 -32 -57 -55.5t-91 -23.5q-64 0 -105.5 35t-41.5 101
t39 98t91 50l162 56v110q0 30 -9 48.5t-34 18.5q-26 0 -37 -21.5t-11 -55.5q0 -18 3 -36.5t7 -37.5l-124 -16q-22 7 -37 26t-15 47q0 71 65 103.5t158 32.5q109 0 172.5 -38.5t63.5 -139.5zM95 766h197l47 -163h-59l-185 153v10z" />
    <glyph glyph-name="aacute" unicode="&#xe1;" horiz-adv-x="568" 
d="M276 98q8 0 15 1.5t14 3.5v185l-40 -15q-24 -9 -39 -26t-15 -61q0 -37 14.5 -62.5t50.5 -25.5zM507 375v-265q0 -15 4 -28t21 -13q10 0 18.5 2t12.5 3l7 -30q-26 -24 -60 -39t-79 -15q-46 0 -78 21.5t-45 61.5q-21 -32 -57 -55.5t-91 -23.5q-64 0 -105.5 35t-41.5 101
t39 98t91 50l162 56v110q0 30 -9 48.5t-34 18.5q-26 0 -37 -21.5t-11 -55.5q0 -18 3 -36.5t7 -37.5l-124 -16q-22 7 -37 26t-15 47q0 71 65 103.5t158 32.5q109 0 172.5 -38.5t63.5 -139.5zM266 766h197v-10l-185 -153h-59z" />
    <glyph glyph-name="acircumflex" unicode="&#xe2;" horiz-adv-x="568" 
d="M276 98q8 0 15 1.5t14 3.5v185l-40 -15q-24 -9 -39 -26t-15 -61q0 -37 14.5 -62.5t50.5 -25.5zM507 375v-265q0 -15 4 -28t21 -13q10 0 18.5 2t12.5 3l7 -30q-26 -24 -60 -39t-79 -15q-46 0 -78 21.5t-45 61.5q-21 -32 -57 -55.5t-91 -23.5q-64 0 -105.5 35t-41.5 101
t39 98t91 50l162 56v110q0 30 -9 48.5t-34 18.5q-26 0 -37 -21.5t-11 -55.5q0 -18 3 -36.5t7 -37.5l-124 -16q-22 7 -37 26t-15 47q0 71 65 103.5t158 32.5q109 0 172.5 -38.5t63.5 -139.5zM349 766l118 -169h-65l-121 80l-121 -80h-65l118 169h136z" />
    <glyph glyph-name="atilde" unicode="&#xe3;" horiz-adv-x="568" 
d="M276 98q8 0 15 1.5t14 3.5v185l-40 -15q-24 -9 -39 -26t-15 -61q0 -37 14.5 -62.5t50.5 -25.5zM507 375v-265q0 -15 4 -28t21 -13q10 0 18.5 2t12.5 3l7 -30q-26 -24 -60 -39t-79 -15q-46 0 -78 21.5t-45 61.5q-21 -32 -57 -55.5t-91 -23.5q-64 0 -105.5 35t-41.5 101
t39 98t91 50l162 56v110q0 30 -9 48.5t-34 18.5q-26 0 -37 -21.5t-11 -55.5q0 -18 3 -36.5t7 -37.5l-124 -16q-22 7 -37 26t-15 47q0 71 65 103.5t158 32.5q109 0 172.5 -38.5t63.5 -139.5zM347 602q-49 0 -76.5 30t-59.5 30q-21 0 -36 -16t-29 -39l-40 22q25 64 52 101.5
t69 37.5q49 0 76.5 -30t59.5 -30q21 0 36 16t29 39l40 -22q-25 -64 -52 -101.5t-69 -37.5z" />
    <glyph glyph-name="adieresis" unicode="&#xe4;" horiz-adv-x="568" 
d="M276 98q8 0 15 1.5t14 3.5v185l-40 -15q-24 -9 -39 -26t-15 -61q0 -37 14.5 -62.5t50.5 -25.5zM507 375v-265q0 -15 4 -28t21 -13q10 0 18.5 2t12.5 3l7 -30q-26 -24 -60 -39t-79 -15q-46 0 -78 21.5t-45 61.5q-21 -32 -57 -55.5t-91 -23.5q-64 0 -105.5 35t-41.5 101
t39 98t91 50l162 56v110q0 30 -9 48.5t-34 18.5q-26 0 -37 -21.5t-11 -55.5q0 -18 3 -36.5t7 -37.5l-124 -16q-22 7 -37 26t-15 47q0 71 65 103.5t158 32.5q109 0 172.5 -38.5t63.5 -139.5zM87 691q0 36 26 62t63 26t63.5 -26t26.5 -62t-26.5 -62t-63.5 -26t-63 26t-26 62z
M297 691q0 36 26.5 62t61.5 26q38 0 64.5 -26t26.5 -62t-26.5 -62t-64.5 -26q-35 0 -61.5 26t-26.5 62z" />
    <glyph glyph-name="aring" unicode="&#xe5;" horiz-adv-x="568" 
d="M276 98q8 0 15 1.5t14 3.5v185l-40 -15q-24 -9 -39 -26t-15 -61q0 -37 14.5 -62.5t50.5 -25.5zM507 375v-265q0 -15 4 -28t21 -13q10 0 18.5 2t12.5 3l7 -30q-26 -24 -60 -39t-79 -15q-46 0 -78 21.5t-45 61.5q-21 -32 -57 -55.5t-91 -23.5q-64 0 -105.5 35t-41.5 101
t39 98t91 50l162 56v110q0 30 -9 48.5t-34 18.5q-26 0 -37 -21.5t-11 -55.5q0 -18 3 -36.5t7 -37.5l-124 -16q-22 7 -37 26t-15 47q0 71 65 103.5t158 32.5q109 0 172.5 -38.5t63.5 -139.5zM232 684q0 -21 12.5 -35t36.5 -14t36.5 14t12.5 35q0 22 -12.5 36t-36.5 14
t-36.5 -14t-12.5 -36zM173 684q0 44 30.5 74.5t77.5 30.5t77 -30.5t30 -74.5q0 -43 -30 -73.5t-77 -30.5t-77.5 30.5t-30.5 73.5z" />
    <glyph glyph-name="ae" unicode="&#xe6;" horiz-adv-x="808" 
d="M568 553q109 0 165.5 -63t56.5 -161v-25h-308q0 -78 38.5 -129t109.5 -51q42 0 78 16.5t64 53.5l21 -13q-21 -87 -80.5 -139t-157.5 -52q-63 0 -116.5 23t-87.5 67q-36 -40 -73.5 -63t-111.5 -23q-69 0 -111 35t-42 101t39 98t91 50l160 55q2 11 5 21.5t6 20.5
q2 68 -14 102t-42 34q-23 0 -33.5 -21.5t-10.5 -55.5q0 -18 3 -36.5t7 -37.5l-124 -16q-22 7 -37 26t-15 47q0 71 65 103.5t158 32.5q47 0 84 -10t60 -35q33 22 71.5 33.5t81.5 11.5zM551 509q-37 0 -51 -43t-17 -113h132q0 74 -14 115t-50 41zM289 98q9 0 19.5 3t22.5 8
q-16 31 -25.5 68.5t-9.5 82.5v12.5t1 12.5l-20 -8q-33 -12 -49.5 -29.5t-16.5 -61.5q0 -37 16 -62.5t62 -25.5z" />
    <glyph glyph-name="ccedilla" unicode="&#xe7;" horiz-adv-x="517" 
d="M159 -233l-9 37q54 0 78.5 14t24.5 33q0 20 -21 25.5t-56 6.5l44 112q-87 16 -143.5 84t-56.5 176q0 128 77.5 213t204.5 85q76 0 133 -31t57 -100q0 -31 -15 -50t-32 -26h-103q2 18 3 32.5t1 27.5q0 45 -13.5 72t-46.5 27q-42 0 -65 -50t-23 -125q0 -94 40.5 -148.5
t114.5 -54.5q43 0 75 14.5t55 47.5l24 -15q-25 -96 -86 -140t-148 -44h-15l-11 -28q48 0 77.5 -22t29.5 -62q0 -57 -60 -84t-135 -27z" />
    <glyph glyph-name="egrave" unicode="&#xe8;" horiz-adv-x="541" 
d="M297 553q112 0 169 -63t57 -161v-25h-317q0 -82 42 -131t108 -49q47 0 84 16.5t65 53.5l21 -13q-21 -87 -80.5 -139t-157.5 -52q-111 0 -189.5 69.5t-78.5 200.5q0 135 83.5 214t193.5 79zM284 509q-37 0 -55.5 -43t-21.5 -113h141q0 74 -14 115t-50 41zM111 766h197
l47 -163h-59l-185 153v10z" />
    <glyph glyph-name="eacute" unicode="&#xe9;" horiz-adv-x="541" 
d="M297 553q112 0 169 -63t57 -161v-25h-317q0 -82 42 -131t108 -49q47 0 84 16.5t65 53.5l21 -13q-21 -87 -80.5 -139t-157.5 -52q-111 0 -189.5 69.5t-78.5 200.5q0 135 83.5 214t193.5 79zM284 509q-37 0 -55.5 -43t-21.5 -113h141q0 74 -14 115t-50 41zM282 766h197v-10
l-185 -153h-59z" />
    <glyph glyph-name="ecircumflex" unicode="&#xea;" horiz-adv-x="541" 
d="M297 553q112 0 169 -63t57 -161v-25h-317q0 -82 42 -131t108 -49q47 0 84 16.5t65 53.5l21 -13q-21 -87 -80.5 -139t-157.5 -52q-111 0 -189.5 69.5t-78.5 200.5q0 135 83.5 214t193.5 79zM284 509q-37 0 -55.5 -43t-21.5 -113h141q0 74 -14 115t-50 41zM365 766
l118 -169h-65l-121 80l-121 -80h-65l118 169h136z" />
    <glyph glyph-name="edieresis" unicode="&#xeb;" horiz-adv-x="541" 
d="M297 553q112 0 169 -63t57 -161v-25h-317q0 -82 42 -131t108 -49q47 0 84 16.5t65 53.5l21 -13q-21 -87 -80.5 -139t-157.5 -52q-111 0 -189.5 69.5t-78.5 200.5q0 135 83.5 214t193.5 79zM284 509q-37 0 -55.5 -43t-21.5 -113h141q0 74 -14 115t-50 41zM103 691
q0 36 26 62t63 26t63.5 -26t26.5 -62t-26.5 -62t-63.5 -26t-63 26t-26 62zM313 691q0 36 26.5 62t61.5 26q38 0 64.5 -26t26.5 -62t-26.5 -62t-64.5 -26q-35 0 -61.5 26t-26.5 62z" />
    <glyph glyph-name="igrave" unicode="&#xec;" horiz-adv-x="350" 
d="M281 553v-475q0 -22 12.5 -28t40.5 -8v-42h-312v42q28 2 40.5 8t12.5 28v350l-53 34v31l223 60h36zM-4 766h197l47 -163h-59l-185 153v10z" />
    <glyph glyph-name="iacute" unicode="&#xed;" horiz-adv-x="350" 
d="M281 553v-475q0 -22 12.5 -28t40.5 -8v-42h-312v42q28 2 40.5 8t12.5 28v350l-53 34v31l223 60h36zM167 766h197v-10l-185 -153h-59z" />
    <glyph glyph-name="icircumflex" unicode="&#xee;" horiz-adv-x="350" 
d="M238 766l107 -167h-59l-110 79l-110 -79h-60l108 167h124zM281 553v-475q0 -22 12.5 -28t40.5 -8v-42h-312v42q28 2 40.5 8t12.5 28v350l-53 34v31l223 60h36z" />
    <glyph glyph-name="idieresis" unicode="&#xef;" horiz-adv-x="350" 
d="M281 553v-475q0 -22 12.5 -28t40.5 -8v-42h-312v42q28 2 40.5 8t12.5 28v350l-53 34v31l223 60h36zM-19 691q0 36 26 62t63 26t63.5 -26t26.5 -62t-26.5 -62t-63.5 -26t-63 26t-26 62zM191 691q0 36 26.5 62t61.5 26q38 0 64.5 -26t26.5 -62t-26.5 -62t-64.5 -26
q-35 0 -61.5 26t-26.5 62z" />
    <glyph glyph-name="eth" unicode="&#xf0;" horiz-adv-x="618" 
d="M122 589l-13 46l152 46q-29 23 -66.5 41t-85.5 29l21 37q73 -7 134 -26t110 -46l136 42l13 -46l-97 -30q89 -67 130.5 -160.5t41.5 -189.5q0 -153 -75 -247.5t-219 -94.5q-128 0 -206 80t-78 196q0 131 81.5 208.5t185.5 77.5q21 0 43 -6t34 -18q-12 32 -27.5 61
t-37.5 54zM315 34q40 0 53 53t13 146q0 128 -16.5 202t-59.5 74q-40 0 -53 -53t-13 -146q0 -128 16.5 -202t59.5 -74z" />
    <glyph glyph-name="ntilde" unicode="&#xf1;" horiz-adv-x="684" 
d="M417 78v293q0 28 -12.5 45t-49.5 17q-21 0 -39 -3.5t-35 -9.5v-342q0 -22 11 -28t39 -8v-42h-309v42q28 2 40.5 8t12.5 28v350l-53 34v31l223 60h40l-4 -101q27 35 72 68t115 33q72 0 113.5 -41t41.5 -123v-311q0 -22 12.5 -28t40.5 -8v-42h-309v42q28 2 39 8t11 28z
M427 602q-49 0 -76.5 30t-59.5 30q-21 0 -36 -16t-29 -39l-40 22q25 64 52 101.5t69 37.5q49 0 76.5 -30t59.5 -30q21 0 36 16t29 39l40 -22q-25 -64 -52 -101.5t-69 -37.5z" />
    <glyph glyph-name="ograve" unicode="&#xf2;" horiz-adv-x="620" 
d="M315 34q40 0 53 53t13 146q0 128 -16.5 202t-59.5 74q-40 0 -53 -53t-13 -146q0 -128 16.5 -202t59.5 -74zM310 -10q-128 0 -209 73.5t-81 198.5t81 208t209 83t209 -73.5t81 -198.5t-81 -208t-209 -83zM128 766h197l47 -163h-59l-185 153v10z" />
    <glyph glyph-name="oacute" unicode="&#xf3;" horiz-adv-x="620" 
d="M315 34q40 0 53 53t13 146q0 128 -16.5 202t-59.5 74q-40 0 -53 -53t-13 -146q0 -128 16.5 -202t59.5 -74zM310 -10q-128 0 -209 73.5t-81 198.5t81 208t209 83t209 -73.5t81 -198.5t-81 -208t-209 -83zM299 766h197v-10l-185 -153h-59z" />
    <glyph glyph-name="ocircumflex" unicode="&#xf4;" horiz-adv-x="620" 
d="M315 34q40 0 53 53t13 146q0 128 -16.5 202t-59.5 74q-40 0 -53 -53t-13 -146q0 -128 16.5 -202t59.5 -74zM310 -10q-128 0 -209 73.5t-81 198.5t81 208t209 83t209 -73.5t81 -198.5t-81 -208t-209 -83zM382 766l118 -169h-65l-121 80l-121 -80h-65l118 169h136z" />
    <glyph glyph-name="otilde" unicode="&#xf5;" horiz-adv-x="620" 
d="M315 34q40 0 53 53t13 146q0 128 -16.5 202t-59.5 74q-40 0 -53 -53t-13 -146q0 -128 16.5 -202t59.5 -74zM310 -10q-128 0 -209 73.5t-81 198.5t81 208t209 83t209 -73.5t81 -198.5t-81 -208t-209 -83zM380 602q-49 0 -76.5 30t-59.5 30q-21 0 -36 -16t-29 -39l-40 22
q25 64 52 101.5t69 37.5q49 0 76.5 -30t59.5 -30q21 0 36 16t29 39l40 -22q-25 -64 -52 -101.5t-69 -37.5z" />
    <glyph glyph-name="odieresis" unicode="&#xf6;" horiz-adv-x="620" 
d="M315 34q40 0 53 53t13 146q0 128 -16.5 202t-59.5 74q-40 0 -53 -53t-13 -146q0 -128 16.5 -202t59.5 -74zM310 -10q-128 0 -209 73.5t-81 198.5t81 208t209 83t209 -73.5t81 -198.5t-81 -208t-209 -83zM120 691q0 36 26 62t63 26t63.5 -26t26.5 -62t-26.5 -62t-63.5 -26
t-63 26t-26 62zM330 691q0 36 26.5 62t61.5 26q38 0 64.5 -26t26.5 -62t-26.5 -62t-64.5 -26q-35 0 -61.5 26t-26.5 62z" />
    <glyph glyph-name="divide" unicode="&#xf7;" horiz-adv-x="576" 
d="M66 333v72h444v-72h-444zM227 195q0 26 17.5 44t42.5 18t43.5 -18t18.5 -44q0 -25 -18.5 -43t-43.5 -18t-42.5 18t-17.5 43zM227 543q0 25 17.5 42.5t42.5 17.5t43.5 -17.5t18.5 -42.5t-18.5 -43.5t-43.5 -18.5t-42.5 18.5t-17.5 43.5z" />
    <glyph glyph-name="oslash" unicode="&#xf8;" horiz-adv-x="620" 
d="M310 -10q-43 0 -81 8.5t-70 24.5l-61 -83l-38 27l59 81q-46 35 -72.5 90t-26.5 124q0 125 81 208t209 83q43 0 82 -9t71 -26l57 78l38 -27l-56 -76q46 -35 72 -89t26 -123q0 -125 -81 -208t-209 -83zM239 310q0 -26 0.5 -50t1.5 -45l131 179q-8 54 -24 84.5t-43 30.5
q-40 0 -53 -53t-13 -146zM315 34q40 0 53 53t13 146q0 24 -1 47t-2 43l-130 -178q8 -53 24 -82t43 -29z" />
    <glyph glyph-name="ugrave" unicode="&#xf9;" horiz-adv-x="669" 
d="M600 421v-302q0 -25 5 -38t27 -13h23v-44l-225 -34h-39l3 98q-25 -34 -68 -66t-112 -32q-67 0 -110.5 42t-43.5 129v237q0 21 -7 37t-28 23l-15 5v40l224 50h38l-6 -132v-242q0 -34 14.5 -53t48.5 -19q19 0 32.5 2.5t32.5 8.5v280q0 21 -7 37t-28 23l-15 5v40l224 50h38z
M148 766h197l47 -163h-59l-185 153v10z" />
    <glyph glyph-name="uacute" unicode="&#xfa;" horiz-adv-x="669" 
d="M600 421v-302q0 -25 5 -38t27 -13h23v-44l-225 -34h-39l3 98q-25 -34 -68 -66t-112 -32q-67 0 -110.5 42t-43.5 129v237q0 21 -7 37t-28 23l-15 5v40l224 50h38l-6 -132v-242q0 -34 14.5 -53t48.5 -19q19 0 32.5 2.5t32.5 8.5v280q0 21 -7 37t-28 23l-15 5v40l224 50h38z
M319 766h197v-10l-185 -153h-59z" />
    <glyph glyph-name="ucircumflex" unicode="&#xfb;" horiz-adv-x="669" 
d="M600 421v-302q0 -25 5 -38t27 -13h23v-44l-225 -34h-39l3 98q-25 -34 -68 -66t-112 -32q-67 0 -110.5 42t-43.5 129v237q0 21 -7 37t-28 23l-15 5v40l224 50h38l-6 -132v-242q0 -34 14.5 -53t48.5 -19q19 0 32.5 2.5t32.5 8.5v280q0 21 -7 37t-28 23l-15 5v40l224 50h38z
M402 766l118 -169h-65l-121 80l-121 -80h-65l118 169h136z" />
    <glyph glyph-name="udieresis" unicode="&#xfc;" horiz-adv-x="669" 
d="M600 421v-302q0 -25 5 -38t27 -13h23v-44l-225 -34h-39l3 98q-25 -34 -68 -66t-112 -32q-67 0 -110.5 42t-43.5 129v237q0 21 -7 37t-28 23l-15 5v40l224 50h38l-6 -132v-242q0 -34 14.5 -53t48.5 -19q19 0 32.5 2.5t32.5 8.5v280q0 21 -7 37t-28 23l-15 5v40l224 50h38z
M140 691q0 36 26 62t63 26t63.5 -26t26.5 -62t-26.5 -62t-63.5 -26t-63 26t-26 62zM350 691q0 36 26.5 62t61.5 26q38 0 64.5 -26t26.5 -62t-26.5 -62t-64.5 -26q-35 0 -61.5 26t-26.5 62z" />
    <glyph glyph-name="yacute" unicode="&#xfd;" horiz-adv-x="616" 
d="M387 202l94 234q4 10 6 16.5t2 13.5q0 16 -12.5 23t-52.5 12v42h187v-42q-25 -8 -34.5 -16t-16.5 -24l-232 -544q-29 -68 -62.5 -103.5t-87.5 -35.5q-31 0 -53 11t-33 29v81q20 -4 39 -7t43 -3q43 0 65.5 12.5t35.5 39.5l15 32l-234 488q-7 16 -16.5 24t-34.5 16v42h342
v-42q-40 -5 -52.5 -12t-12.5 -23q0 -7 2 -13l5 -15zM339 766h197v-10l-185 -153h-59z" />
    <glyph glyph-name="thorn" unicode="&#xfe;" horiz-adv-x="655" 
d="M425 247q0 101 -32.5 143.5t-82.5 42.5q-12 0 -23 -2t-23 -7v-283q0 -44 12 -72t49 -28q50 0 75 59.5t25 146.5zM58 -134v811l-53 27v34l224 45h35v-329q19 33 61 66t107 33q87 0 145 -61t58 -186q0 -157 -84 -236.5t-206 -79.5q-27 0 -48.5 4.5t-32.5 12.5v-136
q0 -26 16 -31.5t58 -9.5v-42h-333v42q28 2 40.5 8t12.5 28z" />
    <glyph glyph-name="ydieresis" unicode="&#xff;" horiz-adv-x="616" 
d="M387 202l94 234q4 10 6 16.5t2 13.5q0 16 -12.5 23t-52.5 12v42h187v-42q-25 -8 -34.5 -16t-16.5 -24l-232 -544q-29 -68 -62.5 -103.5t-87.5 -35.5q-31 0 -53 11t-33 29v81q20 -4 39 -7t43 -3q43 0 65.5 12.5t35.5 39.5l15 32l-234 488q-7 16 -16.5 24t-34.5 16v42h342
v-42q-40 -5 -52.5 -12t-12.5 -23q0 -7 2 -13l5 -15zM160 691q0 36 26 62t63 26t63.5 -26t26.5 -62t-26.5 -62t-63.5 -26t-63 26t-26 62zM370 691q0 36 26.5 62t61.5 26q38 0 64.5 -26t26.5 -62t-26.5 -62t-64.5 -26q-35 0 -61.5 26t-26.5 62z" />
    <glyph glyph-name="Amacron" unicode="&#x100;" horiz-adv-x="773" 
d="M461 129l-32 82h-247l-30 -82q-4 -10 -6 -19.5t-2 -16.5q0 -25 21 -35t59 -13v-45h-219v45q20 4 35 10.5t23 26.5l203 533l-35 87h233l245 -620q7 -19 22 -26t37 -11v-45h-375v45q34 1 55 11.5t21 35.5q0 7 -2 16.5t-6 20.5zM302 536l-99 -267h203zM211 746v95h294v-95
h-294z" />
    <glyph glyph-name="amacron" unicode="&#x101;" horiz-adv-x="568" 
d="M276 98q8 0 15 1.5t14 3.5v185l-40 -15q-24 -9 -39 -26t-15 -61q0 -37 14.5 -62.5t50.5 -25.5zM507 375v-265q0 -15 4 -28t21 -13q10 0 18.5 2t12.5 3l7 -30q-26 -24 -60 -39t-79 -15q-46 0 -78 21.5t-45 61.5q-21 -32 -57 -55.5t-91 -23.5q-64 0 -105.5 35t-41.5 101
t39 98t91 50l162 56v110q0 30 -9 48.5t-34 18.5q-26 0 -37 -21.5t-11 -55.5q0 -18 3 -36.5t7 -37.5l-124 -16q-22 7 -37 26t-15 47q0 71 65 103.5t158 32.5q109 0 172.5 -38.5t63.5 -139.5zM134 625v95h294v-95h-294z" />
    <glyph glyph-name="Abreve" unicode="&#x102;" horiz-adv-x="773" 
d="M461 129l-32 82h-247l-30 -82q-4 -10 -6 -19.5t-2 -16.5q0 -25 21 -35t59 -13v-45h-219v45q20 4 35 10.5t23 26.5l203 533l-35 87h233l245 -620q7 -19 22 -26t37 -11v-45h-375v45q34 1 55 11.5t21 35.5q0 7 -2 16.5t-6 20.5zM302 536l-99 -267h203zM358 738
q-72 0 -111 42t-39 114h51q7 -35 36.5 -47t62.5 -12t62.5 12t36.5 47h51q0 -72 -39 -114t-111 -42z" />
    <glyph glyph-name="abreve" unicode="&#x103;" horiz-adv-x="568" 
d="M276 98q8 0 15 1.5t14 3.5v185l-40 -15q-24 -9 -39 -26t-15 -61q0 -37 14.5 -62.5t50.5 -25.5zM507 375v-265q0 -15 4 -28t21 -13q10 0 18.5 2t12.5 3l7 -30q-26 -24 -60 -39t-79 -15q-46 0 -78 21.5t-45 61.5q-21 -32 -57 -55.5t-91 -23.5q-64 0 -105.5 35t-41.5 101
t39 98t91 50l162 56v110q0 30 -9 48.5t-34 18.5q-26 0 -37 -21.5t-11 -55.5q0 -18 3 -36.5t7 -37.5l-124 -16q-22 7 -37 26t-15 47q0 71 65 103.5t158 32.5q109 0 172.5 -38.5t63.5 -139.5zM281 598q-72 0 -110.5 45.5t-38.5 124.5h50q6 -40 34 -55t65 -15t65 15t34 55h50
q0 -79 -38.5 -124.5t-110.5 -45.5z" />
    <glyph glyph-name="Aogonek" unicode="&#x104;" horiz-adv-x="773" 
d="M302 536l-99 -267h203zM394 29q32 13 54.5 23t22.5 35q0 7 -2 16.5t-6 20.5l-34 87h-247l-30 -82q-4 -10 -6 -19.5t-2 -16.5q0 -25 21 -35t59 -13v-45h-219v45q20 4 35 10.5t23 26.5l203 533l-35 87h233l245 -620q7 -19 22 -26t37 -11v-45h-343q-33 -10 -46.5 -34
t-13.5 -51q0 -25 13 -40.5t36 -15.5q15 0 27 5.5t28 15.5l17 -21q-29 -37 -60.5 -56t-71.5 -19t-71 24.5t-31 75.5q0 55 41 88.5t101 56.5z" />
    <glyph glyph-name="aogonek" unicode="&#x105;" horiz-adv-x="568" 
d="M507 375v-265q0 -15 4 -28t21 -13q10 0 18.5 2t12.5 3l7 -30q-38 -34 -90 -56t-52 -79q0 -21 11.5 -35.5t33.5 -14.5q18 0 30.5 5.5t28.5 15.5l17 -21q-29 -37 -61 -56t-77 -19q-39 0 -67.5 22t-28.5 62q0 41 25.5 70.5t68.5 51.5q-35 6 -62.5 27.5t-38.5 55.5
q-21 -32 -57 -55.5t-91 -23.5q-64 0 -105.5 35t-41.5 101t39 98t91 50l162 56v110q0 30 -9 48.5t-34 18.5q-26 0 -37 -21.5t-11 -55.5q0 -18 3 -36.5t7 -37.5l-124 -16q-22 7 -37 26t-15 47q0 71 65 103.5t158 32.5q109 0 172.5 -38.5t63.5 -139.5zM276 98q8 0 15 1.5
t14 3.5v185l-40 -15q-24 -9 -39 -26t-15 -61q0 -37 14.5 -62.5t50.5 -25.5z" />
    <glyph glyph-name="Cacute" unicode="&#x106;" horiz-adv-x="695" 
d="M413 712q69 0 125.5 -15.5t99.5 -43.5l4 -181h-54q-19 90 -59 138t-108 48q-89 0 -127.5 -87t-38.5 -212q0 -135 44.5 -223.5t131.5 -88.5q58 0 105.5 49.5t78.5 164.5h55l-18 -203q-43 -32 -110 -50t-141 -18q-174 0 -275 91t-101 250q0 176 115 278.5t273 102.5z
M404 890h197v-10l-180 -139h-64z" />
    <glyph glyph-name="cacute" unicode="&#x107;" horiz-adv-x="517" 
d="M198 330q0 -94 40.5 -148.5t114.5 -54.5q43 0 75 14.5t55 47.5l24 -15q-25 -96 -86 -140t-148 -44q-106 0 -179.5 70.5t-73.5 194.5q0 128 77.5 213t204.5 85q76 0 133 -31t57 -100q0 -31 -15 -50t-32 -26h-103q2 18 3 32.5t1 27.5q0 45 -13.5 72t-46.5 27q-42 0 -65 -50
t-23 -125zM286 766h197v-10l-185 -153h-59z" />
    <glyph glyph-name="Ccircumflex" unicode="&#x108;" horiz-adv-x="695" 
d="M413 712q69 0 125.5 -15.5t99.5 -43.5l4 -181h-54q-19 90 -59 138t-108 48q-89 0 -127.5 -87t-38.5 -212q0 -135 44.5 -223.5t131.5 -88.5q58 0 105.5 49.5t78.5 164.5h55l-18 -203q-43 -32 -110 -50t-141 -18q-174 0 -275 91t-101 250q0 176 115 278.5t273 102.5z
M485 893l118 -152h-65l-121 65l-121 -65h-65l118 152h136z" />
    <glyph glyph-name="ccircumflex" unicode="&#x109;" horiz-adv-x="517" 
d="M198 330q0 -94 40.5 -148.5t114.5 -54.5q43 0 75 14.5t55 47.5l24 -15q-25 -96 -86 -140t-148 -44q-106 0 -179.5 70.5t-73.5 194.5q0 128 77.5 213t204.5 85q76 0 133 -31t57 -100q0 -31 -15 -50t-32 -26h-103q2 18 3 32.5t1 27.5q0 45 -13.5 72t-46.5 27q-42 0 -65 -50
t-23 -125zM359 766l118 -169h-65l-121 80l-121 -80h-65l118 169h136z" />
    <glyph glyph-name="Cdotaccent" unicode="&#x10a;" horiz-adv-x="695" 
d="M413 712q69 0 125.5 -15.5t99.5 -43.5l4 -181h-54q-19 90 -59 138t-108 48q-89 0 -127.5 -87t-38.5 -212q0 -135 44.5 -223.5t131.5 -88.5q58 0 105.5 49.5t78.5 164.5h55l-18 -203q-43 -32 -110 -50t-141 -18q-174 0 -275 91t-101 250q0 176 115 278.5t273 102.5z
M417 737q-50 0 -78 29.5t-28 69.5t28 69.5t78 29.5q49 0 77.5 -29.5t28.5 -69.5t-28.5 -69.5t-77.5 -29.5z" />
    <glyph glyph-name="cdotaccent" unicode="&#x10b;" horiz-adv-x="517" 
d="M198 330q0 -94 40.5 -148.5t114.5 -54.5q43 0 75 14.5t55 47.5l24 -15q-25 -96 -86 -140t-148 -44q-106 0 -179.5 70.5t-73.5 194.5q0 128 77.5 213t204.5 85q76 0 133 -31t57 -100q0 -31 -15 -50t-32 -26h-103q2 18 3 32.5t1 27.5q0 45 -13.5 72t-46.5 27q-42 0 -65 -50
t-23 -125zM296 594q-50 0 -78 29.5t-28 69.5t28 69.5t78 29.5q49 0 77.5 -29.5t28.5 -69.5t-28.5 -69.5t-77.5 -29.5z" />
    <glyph glyph-name="Ccaron" unicode="&#x10c;" horiz-adv-x="695" 
d="M413 712q69 0 125.5 -15.5t99.5 -43.5l4 -181h-54q-19 90 -59 138t-108 48q-89 0 -127.5 -87t-38.5 -212q0 -135 44.5 -223.5t131.5 -88.5q58 0 105.5 49.5t78.5 164.5h55l-18 -203q-43 -32 -110 -50t-141 -18q-174 0 -275 91t-101 250q0 176 115 278.5t273 102.5z
M603 894l-118 -152h-136l-118 152h65l121 -65l121 65h65z" />
    <glyph glyph-name="ccaron" unicode="&#x10d;" horiz-adv-x="517" 
d="M198 330q0 -94 40.5 -148.5t114.5 -54.5q43 0 75 14.5t55 47.5l24 -15q-25 -96 -86 -140t-148 -44q-106 0 -179.5 70.5t-73.5 194.5q0 128 77.5 213t204.5 85q76 0 133 -31t57 -100q0 -31 -15 -50t-32 -26h-103q2 18 3 32.5t1 27.5q0 45 -13.5 72t-46.5 27q-42 0 -65 -50
t-23 -125zM483 771l-118 -169h-136l-118 169h65l121 -80l121 80h65z" />
    <glyph glyph-name="Dcaron" unicode="&#x10e;" horiz-adv-x="807" 
d="M327 652h-13v-532q0 -44 16 -57t47 -13h6q79 0 126 80t47 208q0 148 -62 231t-167 83zM390 0h-364v45q49 5 59 17t10 50v478q0 38 -10 50t-59 17v45h339q211 0 314 -98.5t103 -247.5q0 -166 -105 -261t-287 -95zM558 894l-118 -152h-136l-118 152h65l121 -65l121 65h65z
" />
    <glyph glyph-name="dcaron" unicode="&#x10f;" horiz-adv-x="660" 
d="M325 486q-49 0 -73 -49t-24 -130q0 -92 30 -148.5t83 -56.5q10 0 21.5 1.5t22.5 5.5v284q0 46 -12 69.5t-48 23.5zM385 677l-53 27v34l224 45h35v-664q0 -25 5 -38t27 -13h23v-44l-225 -34h-39l3 95q-31 -48 -72 -71.5t-91 -23.5q-87 0 -144.5 66t-57.5 191
q0 148 79.5 224.5t190.5 76.5q29 0 54 -7t41 -20v156zM797 771l-119 -193h-47l11 205h155v-12z" />
    <glyph glyph-name="Dcroat" unicode="&#x110;" horiz-adv-x="817" 
d="M36 320v68h69v202q0 38 -10 50t-59 17v45h339q211 0 314 -98.5t103 -247.5q0 -166 -105 -261t-287 -95h-364v45q49 5 59 17t10 50v208h-69zM337 652h-13v-264h126v-68h-126v-200q0 -44 16 -57t47 -13h6q79 0 126 80t47 208q0 148 -62 231t-167 83z" />
    <glyph glyph-name="dcroat" unicode="&#x111;" horiz-adv-x="660" 
d="M385 677l-53 27v34l224 45h35v-140h55v-56h-55v-468q0 -25 5 -38t27 -13h23v-44l-225 -34h-39l3 95q-31 -48 -72 -71.5t-91 -23.5q-87 0 -144.5 66t-57.5 191q0 148 79.5 224.5t190.5 76.5q29 0 54 -7t41 -20v66h-116v56h116v34zM325 486q-49 0 -73 -49t-24 -130
q0 -92 30 -148.5t83 -56.5q10 0 21.5 1.5t22.5 5.5v284q0 46 -12 69.5t-48 23.5z" />
    <glyph glyph-name="Emacron" unicode="&#x112;" horiz-adv-x="664" 
d="M26 0v45q49 5 59 17t10 50v478q0 38 -10 50t-59 17v45h586l5 -199h-42q-40 84 -71.5 116.5t-103.5 32.5h-86v-260h83q35 0 47.5 20.5t18.5 72.5h47v-246h-47q-6 52 -18.5 72.5t-47.5 20.5h-83v-215q0 -40 19 -53.5t58 -13.5h22q70 0 101 37t86 140h50l-33 -227h-591z
M201 746v95h294v-95h-294z" />
    <glyph glyph-name="emacron" unicode="&#x113;" horiz-adv-x="541" 
d="M297 553q112 0 169 -63t57 -161v-25h-317q0 -82 42 -131t108 -49q47 0 84 16.5t65 53.5l21 -13q-21 -87 -80.5 -139t-157.5 -52q-111 0 -189.5 69.5t-78.5 200.5q0 135 83.5 214t193.5 79zM284 509q-37 0 -55.5 -43t-21.5 -113h141q0 74 -14 115t-50 41zM150 625v95h294
v-95h-294z" />
    <glyph glyph-name="Ebreve" unicode="&#x114;" horiz-adv-x="664" 
d="M26 0v45q49 5 59 17t10 50v478q0 38 -10 50t-59 17v45h586l5 -199h-42q-40 84 -71.5 116.5t-103.5 32.5h-86v-260h83q35 0 47.5 20.5t18.5 72.5h47v-246h-47q-6 52 -18.5 72.5t-47.5 20.5h-83v-215q0 -40 19 -53.5t58 -13.5h22q70 0 101 37t86 140h50l-33 -227h-591z
M348 738q-72 0 -111 42t-39 114h51q7 -35 36.5 -47t62.5 -12t62.5 12t36.5 47h51q0 -72 -39 -114t-111 -42z" />
    <glyph glyph-name="ebreve" unicode="&#x115;" horiz-adv-x="541" 
d="M297 553q112 0 169 -63t57 -161v-25h-317q0 -82 42 -131t108 -49q47 0 84 16.5t65 53.5l21 -13q-21 -87 -80.5 -139t-157.5 -52q-111 0 -189.5 69.5t-78.5 200.5q0 135 83.5 214t193.5 79zM284 509q-37 0 -55.5 -43t-21.5 -113h141q0 74 -14 115t-50 41zM297 598
q-72 0 -110.5 45.5t-38.5 124.5h50q6 -40 34 -55t65 -15t65 15t34 55h50q0 -79 -38.5 -124.5t-110.5 -45.5z" />
    <glyph glyph-name="Edotaccent" unicode="&#x116;" horiz-adv-x="664" 
d="M26 0v45q49 5 59 17t10 50v478q0 38 -10 50t-59 17v45h586l5 -199h-42q-40 84 -71.5 116.5t-103.5 32.5h-86v-260h83q35 0 47.5 20.5t18.5 72.5h47v-246h-47q-6 52 -18.5 72.5t-47.5 20.5h-83v-215q0 -40 19 -53.5t58 -13.5h22q70 0 101 37t86 140h50l-33 -227h-591z
M348 737q-50 0 -78 29.5t-28 69.5t28 69.5t78 29.5q49 0 77.5 -29.5t28.5 -69.5t-28.5 -69.5t-77.5 -29.5z" />
    <glyph glyph-name="edotaccent" unicode="&#x117;" horiz-adv-x="541" 
d="M297 553q112 0 169 -63t57 -161v-25h-317q0 -82 42 -131t108 -49q47 0 84 16.5t65 53.5l21 -13q-21 -87 -80.5 -139t-157.5 -52q-111 0 -189.5 69.5t-78.5 200.5q0 135 83.5 214t193.5 79zM284 509q-37 0 -55.5 -43t-21.5 -113h141q0 74 -14 115t-50 41zM297 594
q-50 0 -78 29.5t-28 69.5t28 69.5t78 29.5q49 0 77.5 -29.5t28.5 -69.5t-28.5 -69.5t-77.5 -29.5z" />
    <glyph glyph-name="Eogonek" unicode="&#x118;" horiz-adv-x="664" 
d="M26 0v45q49 5 59 17t10 50v478q0 38 -10 50t-59 17v45h586l5 -199h-42q-40 84 -71.5 116.5t-103.5 32.5h-86v-260h83q35 0 47.5 20.5t18.5 72.5h47v-246h-47q-6 52 -18.5 72.5t-47.5 20.5h-83v-215q0 -40 19 -53.5t58 -13.5h22q70 0 101 37t86 140h50l-33 -227h-107
q-26 -19 -39 -41t-13 -50q0 -21 11.5 -35.5t33.5 -14.5q18 0 30.5 5.5t28.5 15.5l17 -21q-29 -37 -61 -56t-77 -19q-39 0 -67.5 22t-28.5 62q0 45 29.5 77.5t72.5 54.5h-421z" />
    <glyph glyph-name="eogonek" unicode="&#x119;" horiz-adv-x="541" 
d="M301 553q109 0 165.5 -63t56.5 -161v-25h-317q0 -82 42 -131t108 -49q47 0 84 16.5t65 53.5l21 -13q-15 -60 -47.5 -102.5t-81.5 -67.5q-35 -18 -53.5 -41t-18.5 -52q0 -28 12.5 -43.5t34.5 -15.5q18 0 30.5 5.5t28.5 15.5l17 -21q-29 -37 -61 -56t-77 -19q-39 0 -68 22
t-29 62t24.5 70t61.5 52h-11q-111 0 -189.5 69.5t-78.5 200.5q0 135 84 214t197 79zM284 509q-37 0 -55.5 -43t-21.5 -113h141q0 74 -14 115t-50 41z" />
    <glyph glyph-name="Ecaron" unicode="&#x11a;" horiz-adv-x="664" 
d="M26 0v45q49 5 59 17t10 50v478q0 38 -10 50t-59 17v45h586l5 -199h-42q-40 84 -71.5 116.5t-103.5 32.5h-86v-260h83q35 0 47.5 20.5t18.5 72.5h47v-246h-47q-6 52 -18.5 72.5t-47.5 20.5h-83v-215q0 -40 19 -53.5t58 -13.5h22q70 0 101 37t86 140h50l-33 -227h-591z
M534 894l-118 -152h-136l-118 152h65l121 -65l121 65h65z" />
    <glyph glyph-name="ecaron" unicode="&#x11b;" horiz-adv-x="541" 
d="M297 553q112 0 169 -63t57 -161v-25h-317q0 -82 42 -131t108 -49q47 0 84 16.5t65 53.5l21 -13q-21 -87 -80.5 -139t-157.5 -52q-111 0 -189.5 69.5t-78.5 200.5q0 135 83.5 214t193.5 79zM284 509q-37 0 -55.5 -43t-21.5 -113h141q0 74 -14 115t-50 41zM483 771
l-118 -169h-136l-118 169h65l121 -80l121 80h65z" />
    <glyph glyph-name="Gcircumflex" unicode="&#x11c;" horiz-adv-x="752" 
d="M469 50v172q0 38 -10 50t-59 17v45h342v-45q-49 -5 -59 -17t-10 -50v-166q-52 -33 -125 -49.5t-154 -16.5q-183 0 -276 98t-93 244q0 176 116 278t276 102q69 0 126.5 -15.5t100.5 -43.5l4 -181h-54q-19 90 -59.5 138t-109.5 48q-90 0 -130 -87t-40 -212t42 -219.5
t128 -94.5q13 0 23 1t21 4zM495 893l118 -152h-65l-121 65l-121 -65h-65l118 152h136z" />
    <glyph glyph-name="gcircumflex" unicode="&#x11d;" horiz-adv-x="571" 
d="M265 187q-28 0 -58 4t-58 13q-10 -9 -17.5 -19.5t-7.5 -24.5q0 -11 7 -19t20 -8h223q107 0 153.5 -42.5t46.5 -111.5q0 -98 -85.5 -150t-225.5 -52q-122 0 -194 31t-72 90q0 37 30.5 54t61.5 20q-32 13 -50 42.5t-18 61.5q0 51 30 84.5t70 54.5q-42 19 -69.5 54.5
t-27.5 90.5q0 91 71 142t179 51q31 0 54.5 -4t42.5 -9l183 4v-72h-47l-57 2q28 -19 44.5 -47.5t16.5 -65.5q0 -84 -71 -129t-175 -45zM386 -54h-274q-3 -4 -4 -11.5t-1 -15.5q0 -43 44.5 -67t114.5 -24q65 0 116.5 17t51.5 63q0 19 -12 28.5t-36 9.5zM272 230q31 0 41 34.5
t10 101.5q0 55 -13.5 98.5t-44.5 43.5q-30 0 -40.5 -34.5t-10.5 -97.5q0 -59 14 -102.5t44 -43.5zM353 766l118 -169h-65l-121 80l-121 -80h-65l118 169h136z" />
    <glyph glyph-name="Gbreve" unicode="&#x11e;" horiz-adv-x="752" 
d="M469 50v172q0 38 -10 50t-59 17v45h342v-45q-49 -5 -59 -17t-10 -50v-166q-52 -33 -125 -49.5t-154 -16.5q-183 0 -276 98t-93 244q0 176 116 278t276 102q69 0 126.5 -15.5t100.5 -43.5l4 -181h-54q-19 90 -59.5 138t-109.5 48q-90 0 -130 -87t-40 -212t42 -219.5
t128 -94.5q13 0 23 1t21 4zM427 738q-72 0 -111 42t-39 114h51q7 -35 36.5 -47t62.5 -12t62.5 12t36.5 47h51q0 -72 -39 -114t-111 -42z" />
    <glyph glyph-name="gbreve" unicode="&#x11f;" horiz-adv-x="571" 
d="M265 187q-28 0 -58 4t-58 13q-10 -9 -17.5 -19.5t-7.5 -24.5q0 -11 7 -19t20 -8h223q107 0 153.5 -42.5t46.5 -111.5q0 -98 -85.5 -150t-225.5 -52q-122 0 -194 31t-72 90q0 37 30.5 54t61.5 20q-32 13 -50 42.5t-18 61.5q0 51 30 84.5t70 54.5q-42 19 -69.5 54.5
t-27.5 90.5q0 91 71 142t179 51q31 0 54.5 -4t42.5 -9l183 4v-72h-47l-57 2q28 -19 44.5 -47.5t16.5 -65.5q0 -84 -71 -129t-175 -45zM386 -54h-274q-3 -4 -4 -11.5t-1 -15.5q0 -43 44.5 -67t114.5 -24q65 0 116.5 17t51.5 63q0 19 -12 28.5t-36 9.5zM272 230q31 0 41 34.5
t10 101.5q0 55 -13.5 98.5t-44.5 43.5q-30 0 -40.5 -34.5t-10.5 -97.5q0 -59 14 -102.5t44 -43.5zM285 598q-72 0 -110.5 45.5t-38.5 124.5h50q6 -40 34 -55t65 -15t65 15t34 55h50q0 -79 -38.5 -124.5t-110.5 -45.5z" />
    <glyph glyph-name="Gdotaccent" unicode="&#x120;" horiz-adv-x="752" 
d="M469 50v172q0 38 -10 50t-59 17v45h342v-45q-49 -5 -59 -17t-10 -50v-166q-52 -33 -125 -49.5t-154 -16.5q-183 0 -276 98t-93 244q0 176 116 278t276 102q69 0 126.5 -15.5t100.5 -43.5l4 -181h-54q-19 90 -59.5 138t-109.5 48q-90 0 -130 -87t-40 -212t42 -219.5
t128 -94.5q13 0 23 1t21 4zM427 737q-50 0 -78 29.5t-28 69.5t28 69.5t78 29.5q49 0 77.5 -29.5t28.5 -69.5t-28.5 -69.5t-77.5 -29.5z" />
    <glyph glyph-name="gdotaccent" unicode="&#x121;" horiz-adv-x="571" 
d="M265 187q-28 0 -58 4t-58 13q-10 -9 -17.5 -19.5t-7.5 -24.5q0 -11 7 -19t20 -8h223q107 0 153.5 -42.5t46.5 -111.5q0 -98 -85.5 -150t-225.5 -52q-122 0 -194 31t-72 90q0 37 30.5 54t61.5 20q-32 13 -50 42.5t-18 61.5q0 51 30 84.5t70 54.5q-42 19 -69.5 54.5
t-27.5 90.5q0 91 71 142t179 51q31 0 54.5 -4t42.5 -9l183 4v-72h-47l-57 2q28 -19 44.5 -47.5t16.5 -65.5q0 -84 -71 -129t-175 -45zM386 -54h-274q-3 -4 -4 -11.5t-1 -15.5q0 -43 44.5 -67t114.5 -24q65 0 116.5 17t51.5 63q0 19 -12 28.5t-36 9.5zM272 230q31 0 41 34.5
t10 101.5q0 55 -13.5 98.5t-44.5 43.5q-30 0 -40.5 -34.5t-10.5 -97.5q0 -59 14 -102.5t44 -43.5zM285 594q-50 0 -78 29.5t-28 69.5t28 69.5t78 29.5q49 0 77.5 -29.5t28.5 -69.5t-28.5 -69.5t-77.5 -29.5z" />
    <glyph glyph-name="Gcommaaccent" unicode="&#x122;" horiz-adv-x="752" 
d="M469 50v172q0 38 -10 50t-59 17v45h342v-45q-49 -5 -59 -17t-10 -50v-166q-52 -33 -125 -49.5t-154 -16.5q-183 0 -276 98t-93 244q0 176 116 278t276 102q69 0 126.5 -15.5t100.5 -43.5l4 -181h-54q-19 90 -59.5 138t-109.5 48q-90 0 -130 -87t-40 -212t42 -219.5
t128 -94.5q13 0 23 1t21 4zM441 -158h-56q-22 6 -36 20.5t-14 41.5t22.5 45.5t62.5 18.5q46 0 72 -27.5t26 -68.5q0 -51 -41.5 -86.5t-135.5 -35.5v40q50 0 74.5 16t25.5 36z" />
    <glyph glyph-name="gcommaaccent" unicode="&#x123;" horiz-adv-x="571" 
d="M265 187q-28 0 -58 4t-58 13q-10 -9 -17.5 -19.5t-7.5 -24.5q0 -11 7 -19t20 -8h223q107 0 153.5 -42.5t46.5 -111.5q0 -98 -85.5 -150t-225.5 -52q-122 0 -194 31t-72 90q0 37 30.5 54t61.5 20q-32 13 -50 42.5t-18 61.5q0 51 30 84.5t70 54.5q-42 19 -69.5 54.5
t-27.5 90.5q0 91 71 142t179 51q31 0 54.5 -4t42.5 -9l183 4v-72h-47l-57 2q28 -19 44.5 -47.5t16.5 -65.5q0 -84 -71 -129t-175 -45zM386 -54h-274q-3 -4 -4 -11.5t-1 -15.5q0 -43 44.5 -67t114.5 -24q65 0 116.5 17t51.5 63q0 19 -12 28.5t-36 9.5zM272 230q31 0 41 34.5
t10 101.5q0 55 -13.5 98.5t-44.5 43.5q-30 0 -40.5 -34.5t-10.5 -97.5q0 -59 14 -102.5t44 -43.5zM271 715h56q22 -6 36 -20.5t14 -41.5t-22.5 -45.5t-62.5 -18.5q-46 0 -72 27.5t-26 68.5q0 51 41.5 86.5t135.5 35.5v-40q-50 0 -74.5 -16t-25.5 -36z" />
    <glyph glyph-name="Hcircumflex" unicode="&#x124;" horiz-adv-x="860" 
d="M314 590v-202h232v202q0 38 -10 50t-59 17v45h357v-45q-49 -5 -59 -17t-10 -50v-478q0 -38 10 -50t59 -17v-45h-357v45q49 5 59 17t10 50v208h-232v-208q0 -38 10 -50t59 -17v-45h-357v45q49 5 59 17t10 50v478q0 38 -10 50t-59 17v45h357v-45q-49 -5 -59 -17t-10 -50z
M498 893l118 -152h-65l-121 65l-121 -65h-65l118 152h136z" />
    <glyph glyph-name="hcircumflex" unicode="&#x125;" horiz-adv-x="680" 
d="M71 78v599l-53 27v34l224 45h35v-331q27 35 72 68t115 33q72 0 113.5 -41t41.5 -123v-311q0 -22 12.5 -28t40.5 -8v-42h-309v42q28 2 39 8t11 28v293q0 28 -12.5 45t-49.5 17q-21 0 -39 -3.5t-35 -9.5v-342q0 -22 11 -28t39 -8v-42h-309v42q28 2 40.5 8t12.5 28zM413 955
l118 -152h-65l-121 65l-121 -65h-65l118 152h136z" />
    <glyph glyph-name="Hbar" unicode="&#x126;" horiz-adv-x="880" 
d="M324 590v-35h232v35q0 38 -10 50t-59 17v45h357v-45q-49 -5 -59 -17t-10 -50v-35h69v-68h-69v-375q0 -38 10 -50t59 -17v-45h-357v45q49 5 59 17t10 50v208h-232v-208q0 -38 10 -50t59 -17v-45h-357v45q49 5 59 17t10 50v375h-68v68h68v35q0 38 -10 50t-59 17v45h357v-45
q-49 -5 -59 -17t-10 -50zM324 388h232v99h-232v-99z" />
    <glyph glyph-name="hbar" unicode="&#x127;" horiz-adv-x="680" 
d="M71 78v509h-53v56h53v34l-53 27v34l224 45h35v-140h118v-56h-118v-135q27 35 72 68t115 33q72 0 113.5 -41t41.5 -123v-311q0 -22 12.5 -28t40.5 -8v-42h-309v42q28 2 39 8t11 28v293q0 28 -12.5 45t-49.5 17q-21 0 -39 -3.5t-35 -9.5v-342q0 -22 11 -28t39 -8v-42h-309
v42q28 2 40.5 8t12.5 28z" />
    <glyph glyph-name="Itilde" unicode="&#x128;" horiz-adv-x="409" 
d="M314 590v-478q0 -38 10 -50t59 -17v-45h-357v45q49 5 59 17t10 50v478q0 38 -10 50t-59 17v45h357v-45q-49 -5 -59 -17t-10 -50zM274 741q-49 0 -76.5 30t-59.5 30q-21 0 -36 -16t-29 -39l-40 22q25 64 52 101.5t69 37.5q49 0 76.5 -30t59.5 -30q21 0 36 16t29 39l40 -22
q-25 -64 -52 -101.5t-69 -37.5z" />
    <glyph glyph-name="itilde" unicode="&#x129;" horiz-adv-x="350" 
d="M236 603q-46 0 -72 30t-57 30q-20 0 -34.5 -16t-27.5 -39l-38 22q24 64 49.5 101t65.5 37q46 0 72 -29.5t57 -29.5q19 0 33.5 16t27.5 38l38 -21q-23 -64 -48.5 -101.5t-65.5 -37.5zM281 553v-475q0 -22 12.5 -28t40.5 -8v-42h-312v42q28 2 40.5 8t12.5 28v350l-53 34v31
l223 60h36z" />
    <glyph glyph-name="Imacron" unicode="&#x12a;" horiz-adv-x="409" 
d="M314 590v-478q0 -38 10 -50t59 -17v-45h-357v45q49 5 59 17t10 50v478q0 38 -10 50t-59 17v45h357v-45q-49 -5 -59 -17t-10 -50zM57 746v95h294v-95h-294z" />
    <glyph glyph-name="imacron" unicode="&#x12b;" horiz-adv-x="350" 
d="M281 553v-475q0 -22 12.5 -28t40.5 -8v-42h-312v42q28 2 40.5 8t12.5 28v350l-53 34v31l223 60h36zM35 625v95h294v-95h-294z" />
    <glyph glyph-name="Ibreve" unicode="&#x12c;" horiz-adv-x="409" 
d="M314 590v-478q0 -38 10 -50t59 -17v-45h-357v45q49 5 59 17t10 50v478q0 38 -10 50t-59 17v45h357v-45q-49 -5 -59 -17t-10 -50zM204 738q-72 0 -111 42t-39 114h51q7 -35 36.5 -47t62.5 -12t62.5 12t36.5 47h51q0 -72 -39 -114t-111 -42z" />
    <glyph glyph-name="ibreve" unicode="&#x12d;" horiz-adv-x="350" 
d="M281 553v-475q0 -22 12.5 -28t40.5 -8v-42h-312v42q28 2 40.5 8t12.5 28v350l-53 34v31l223 60h36zM182 598q-72 0 -110.5 45.5t-38.5 124.5h50q6 -40 34 -55t65 -15t65 15t34 55h50q0 -79 -38.5 -124.5t-110.5 -45.5z" />
    <glyph glyph-name="Iogonek" unicode="&#x12e;" horiz-adv-x="409" 
d="M314 590v-478q0 -38 10 -50t59 -17v-45h-131q-26 -19 -39 -41t-13 -50q0 -21 11.5 -35.5t33.5 -14.5q18 0 30.5 5.5t28.5 15.5l17 -21q-29 -37 -61 -56t-77 -19q-39 0 -67.5 22t-28.5 62q0 45 29.5 77.5t72.5 54.5h-163v45q49 5 59 17t10 50v478q0 38 -10 50t-59 17v45
h357v-45q-49 -5 -59 -17t-10 -50z" />
    <glyph glyph-name="iogonek" unicode="&#x12f;" horiz-adv-x="350" 
d="M281 553v-475q0 -22 12.5 -28t40.5 -8v-42h-108q-26 -19 -39 -41t-13 -50q0 -21 11.5 -35.5t33.5 -14.5q18 0 30.5 5.5t28.5 15.5l17 -21q-29 -37 -61 -56t-77 -19q-39 0 -67.5 22t-28.5 62q0 45 29.5 77.5t72.5 54.5h-141v42q28 2 40.5 8t12.5 28v350l-53 34v31l223 60
h36zM181 590q-50 0 -78 29.5t-28 69.5t28 69.5t78 29.5q49 0 77.5 -29.5t28.5 -69.5t-28.5 -69.5t-77.5 -29.5z" />
    <glyph glyph-name="Idotaccent" unicode="&#x130;" horiz-adv-x="409" 
d="M314 590v-478q0 -38 10 -50t59 -17v-45h-357v45q49 5 59 17t10 50v478q0 38 -10 50t-59 17v45h357v-45q-49 -5 -59 -17t-10 -50zM204 737q-50 0 -78 29.5t-28 69.5t28 69.5t78 29.5q49 0 77.5 -29.5t28.5 -69.5t-28.5 -69.5t-77.5 -29.5z" />
    <glyph glyph-name="dotlessi" unicode="&#x131;" horiz-adv-x="350" 
d="M281 553v-475q0 -22 12.5 -28t40.5 -8v-42h-312v42q28 2 40.5 8t12.5 28v350l-53 34v31l223 60h36z" />
    <glyph glyph-name="IJ" unicode="&#x132;" horiz-adv-x="995" 
d="M314 590v-478q0 -38 10 -50t59 -17v-45h-357v45q49 5 59 17t10 50v478q0 38 -10 50t-59 17v45h357v-45q-49 -5 -59 -17t-10 -50zM691 168v422q0 38 -10 50t-59 17v45h357v-45q-49 -5 -59 -17t-10 -50v-360q0 -125 -74.5 -182.5t-208.5 -57.5q-119 0 -181 40t-62 115
q0 32 14.5 56.5t40.5 38.5h139q-3 -19 -5 -38t-2 -45q0 -47 12 -84t49 -37q42 0 50.5 37.5t8.5 94.5z" />
    <glyph glyph-name="ij" unicode="&#x133;" horiz-adv-x="665" 
d="M281 553v-475q0 -22 12.5 -28t40.5 -8v-42h-312v42q28 2 40.5 8t12.5 28v350l-53 34v31l223 60h36zM181 590q-50 0 -78 29.5t-28 69.5t28 69.5t78 29.5q49 0 77.5 -29.5t28.5 -69.5t-28.5 -69.5t-77.5 -29.5zM409 428l-53 34v31l223 60h36v-442q0 -89 -21 -136t-59 -81
q-46 -41 -87 -62t-96 -43l-17 22l41 63q24 37 28.5 85.5t4.5 106.5v362zM512 590q-50 0 -78 29.5t-28 69.5t28 69.5t78 29.5q49 0 77.5 -29.5t28.5 -69.5t-28.5 -69.5t-77.5 -29.5z" />
    <glyph glyph-name="Jcircumflex" unicode="&#x134;" horiz-adv-x="606" 
d="M302 168v422q0 38 -10 50t-59 17v45h357v-45q-49 -5 -59 -17t-10 -50v-360q0 -125 -74.5 -182.5t-208.5 -57.5q-119 0 -181 40t-62 115q0 32 14.5 56.5t40.5 38.5h139q-3 -19 -5 -38t-2 -45q0 -47 12 -84t49 -37q42 0 50.5 37.5t8.5 94.5zM480 893l118 -152h-65l-121 65
l-121 -65h-65l118 152h136z" />
    <glyph glyph-name="jcircumflex" unicode="&#x135;" horiz-adv-x="315" 
d="M59 428l-53 34v31l223 60h36v-442q0 -89 -21 -136t-59 -81q-46 -41 -87 -62t-96 -43l-17 22l41 63q24 37 28.5 85.5t4.5 106.5v362zM217 766l107 -167h-59l-110 79l-110 -79h-60l108 167h124z" />
    <glyph glyph-name="Kcommaaccent" unicode="&#x136;" horiz-adv-x="792" 
d="M505 439l205 -331q16 -26 33.5 -42.5t48.5 -20.5v-45h-253q-25 22 -49 55t-43 67l-125 218l230 239q13 13 21 24.5t8 24.5q0 12 -14.5 20t-52.5 9v45h244v-45q-31 -2 -47.5 -8.5t-35.5 -26.5zM314 590v-478q0 -38 10 -50t59 -17v-45h-357v45q49 5 59 17t10 50v478
q0 38 -10 50t-59 17v45h357v-45q-49 -5 -59 -17t-10 -50zM424 -158h-56q-22 6 -36 20.5t-14 41.5t22.5 45.5t62.5 18.5q46 0 72 -27.5t26 -68.5q0 -51 -41.5 -86.5t-135.5 -35.5v40q50 0 74.5 16t25.5 36z" />
    <glyph glyph-name="kcommaaccent" unicode="&#x137;" horiz-adv-x="662" 
d="M283 283l152 137q21 19 27.5 30t6.5 21q0 13 -12.5 19.5t-46.5 10.5v42h233v-42q-25 -3 -44.5 -9.5t-39.5 -26.5l-106 -102l209 -334v-29h-212zM71 78v599l-53 27v34l224 45h35v-705q0 -22 12.5 -28t40.5 -8v-42h-312v42q28 2 40.5 8t12.5 28zM355 -158h-56
q-22 6 -36 20.5t-14 41.5t22.5 45.5t62.5 18.5q46 0 72 -27.5t26 -68.5q0 -51 -41.5 -86.5t-135.5 -35.5v40q50 0 74.5 16t25.5 36z" />
    <glyph glyph-name="kgreenlandic" unicode="&#x138;" horiz-adv-x="666" 
d="M287 283l152 137q21 19 27.5 30t6.5 21q0 13 -12.5 19.5t-46.5 10.5v42h233v-42q-25 -3 -44.5 -9.5t-39.5 -26.5l-106 -102l209 -334v-29h-212zM75 78v349l-53 36v30l224 60h35v-475q0 -22 12.5 -28t40.5 -8v-42h-312v42q28 2 40.5 8t12.5 28z" />
    <glyph glyph-name="Lacute" unicode="&#x139;" horiz-adv-x="658" 
d="M314 590v-473q0 -40 17 -53.5t56 -13.5h21q46 0 85 38t111 159h47l-39 -247h-586v45q49 5 59 17t10 50v478q0 38 -10 50t-59 17v45h357v-45q-49 -5 -59 -17t-10 -50zM223 890h197v-10l-180 -139h-64z" />
    <glyph glyph-name="lacute" unicode="&#x13a;" horiz-adv-x="346" 
d="M277 783v-705q0 -22 12.5 -28t40.5 -8v-42h-312v42q28 2 40.5 8t12.5 28v599l-53 27v34l224 45h35zM161 953h197v-10l-180 -139h-64z" />
    <glyph glyph-name="Lcommaaccent" unicode="&#x13b;" horiz-adv-x="658" 
d="M314 590v-473q0 -40 17 -53.5t56 -13.5h21q46 0 85 38t111 159h47l-39 -247h-586v45q49 5 59 17t10 50v478q0 38 -10 50t-59 17v45h357v-45q-49 -5 -59 -17t-10 -50zM353 -158h-56q-22 6 -36 20.5t-14 41.5t22.5 45.5t62.5 18.5q46 0 72 -27.5t26 -68.5
q0 -51 -41.5 -86.5t-135.5 -35.5v40q50 0 74.5 16t25.5 36z" />
    <glyph glyph-name="lcommaaccent" unicode="&#x13c;" horiz-adv-x="346" 
d="M277 783v-705q0 -22 12.5 -28t40.5 -8v-42h-312v42q28 2 40.5 8t12.5 28v599l-53 27v34l224 45h35zM189 -158h-56q-22 6 -36 20.5t-14 41.5t22.5 45.5t62.5 18.5q46 0 72 -27.5t26 -68.5q0 -51 -41.5 -86.5t-135.5 -35.5v40q50 0 74.5 16t25.5 36z" />
    <glyph glyph-name="Lcaron" unicode="&#x13d;" horiz-adv-x="658" 
d="M314 590v-473q0 -40 17 -53.5t56 -13.5h21q46 0 85 38t111 159h47l-39 -247h-586v45q49 5 59 17t10 50v478q0 38 -10 50t-59 17v45h357v-45q-49 -5 -59 -17t-10 -50zM603 690l-119 -193h-47l11 205h155v-12z" />
    <glyph glyph-name="lcaron" unicode="&#x13e;" horiz-adv-x="346" 
d="M277 783v-705q0 -22 12.5 -28t40.5 -8v-42h-312v42q28 2 40.5 8t12.5 28v599l-53 27v34l224 45h35zM483 771l-119 -193h-47l11 205h155v-12z" />
    <glyph glyph-name="Ldot" unicode="&#x13f;" horiz-adv-x="658" 
d="M314 590v-473q0 -40 17 -53.5t56 -13.5h21q46 0 85 38t111 159h47l-39 -247h-586v45q49 5 59 17t10 50v478q0 38 -10 50t-59 17v45h357v-45q-49 -5 -59 -17t-10 -50zM441 409q0 46 30.5 75.5t73.5 29.5t73.5 -29.5t30.5 -75.5t-30.5 -75t-73.5 -29t-73.5 29t-30.5 75z
" />
    <glyph glyph-name="ldot" unicode="&#x140;" horiz-adv-x="488" 
d="M277 783v-705q0 -22 12.5 -28t40.5 -8v-42h-312v42q28 2 40.5 8t12.5 28v599l-53 27v34l224 45h35zM309 390q0 46 30.5 75.5t73.5 29.5t73.5 -29.5t30.5 -75.5t-30.5 -75t-73.5 -29t-73.5 29t-30.5 75z" />
    <glyph glyph-name="Lslash" unicode="&#x141;" horiz-adv-x="658" 
d="M314 590v-186l136 43v-66l-136 -44v-220q0 -40 17 -53.5t56 -13.5h21q46 0 85 38t111 159h47l-39 -247h-586v45q49 5 59 17t10 50v162l-69 -22v66l69 22v250q0 38 -10 50t-59 17v45h357v-45q-49 -5 -59 -17t-10 -50z" />
    <glyph glyph-name="lslash" unicode="&#x142;" horiz-adv-x="367" 
d="M284 783v-274l78 36v-63l-78 -37v-367q0 -22 12.5 -28t40.5 -8v-42h-312v42q28 2 40.5 8t12.5 28v291l-73 -32v63l73 33v244l-53 27v34l224 45h35z" />
    <glyph glyph-name="Nacute" unicode="&#x143;" horiz-adv-x="757" 
d="M598 337v253q0 38 -21 50.5t-81 16.5v45h244v-45q-49 -5 -59 -17t-10 -50v-590h-82l-421 516v-404q0 -38 21 -50.5t81 -16.5v-45h-244v45q49 5 59 17t10 50v480q-17 31 -31 47t-38 18v45h274zM378 890h197v-10l-180 -139h-64z" />
    <glyph glyph-name="nacute" unicode="&#x144;" horiz-adv-x="684" 
d="M417 78v293q0 28 -12.5 45t-49.5 17q-21 0 -39 -3.5t-35 -9.5v-342q0 -22 11 -28t39 -8v-42h-309v42q28 2 40.5 8t12.5 28v350l-53 34v31l223 60h40l-4 -101q27 35 72 68t115 33q72 0 113.5 -41t41.5 -123v-311q0 -22 12.5 -28t40.5 -8v-42h-309v42q28 2 39 8t11 28z
M346 766h197v-10l-185 -153h-59z" />
    <glyph glyph-name="Ncommaaccent" unicode="&#x145;" horiz-adv-x="757" 
d="M598 337v253q0 38 -21 50.5t-81 16.5v45h244v-45q-49 -5 -59 -17t-10 -50v-590h-82l-421 516v-404q0 -38 21 -50.5t81 -16.5v-45h-244v45q49 5 59 17t10 50v480q-17 31 -31 47t-38 18v45h274zM406 -158h-56q-22 6 -36 20.5t-14 41.5t22.5 45.5t62.5 18.5q46 0 72 -27.5
t26 -68.5q0 -51 -41.5 -86.5t-135.5 -35.5v40q50 0 74.5 16t25.5 36z" />
    <glyph glyph-name="ncommaaccent" unicode="&#x146;" horiz-adv-x="684" 
d="M417 78v293q0 28 -12.5 45t-49.5 17q-21 0 -39 -3.5t-35 -9.5v-342q0 -22 11 -28t39 -8v-42h-309v42q28 2 40.5 8t12.5 28v350l-53 34v31l223 60h40l-4 -101q27 35 72 68t115 33q72 0 113.5 -41t41.5 -123v-311q0 -22 12.5 -28t40.5 -8v-42h-309v42q28 2 39 8t11 28z
M376 -158h-56q-22 6 -36 20.5t-14 41.5t22.5 45.5t62.5 18.5q46 0 72 -27.5t26 -68.5q0 -51 -41.5 -86.5t-135.5 -35.5v40q50 0 74.5 16t25.5 36z" />
    <glyph glyph-name="Ncaron" unicode="&#x147;" horiz-adv-x="757" 
d="M598 337v253q0 38 -21 50.5t-81 16.5v45h244v-45q-49 -5 -59 -17t-10 -50v-590h-82l-421 516v-404q0 -38 21 -50.5t81 -16.5v-45h-244v45q49 5 59 17t10 50v480q-17 31 -31 47t-38 18v45h274zM577 894l-118 -152h-136l-118 152h65l121 -65l121 65h65z" />
    <glyph glyph-name="ncaron" unicode="&#x148;" horiz-adv-x="684" 
d="M417 78v293q0 28 -12.5 45t-49.5 17q-21 0 -39 -3.5t-35 -9.5v-342q0 -22 11 -28t39 -8v-42h-309v42q28 2 40.5 8t12.5 28v350l-53 34v31l223 60h40l-4 -101q27 35 72 68t115 33q72 0 113.5 -41t41.5 -123v-311q0 -22 12.5 -28t40.5 -8v-42h-309v42q28 2 39 8t11 28z
M547 771l-118 -169h-136l-118 169h65l121 -80l121 80h65z" />
    <glyph glyph-name="Eng" unicode="&#x14a;" horiz-adv-x="757" 
d="M519 88l-351 428v-404q0 -38 21 -50.5t81 -16.5v-45h-244v45q49 5 59 17t10 50v480q-17 31 -31 47t-38 18v45h274l298 -365v253q0 38 -21 50.5t-81 16.5v45h244v-45q-49 -5 -59 -17t-10 -50v-479q0 -84 -16.5 -130.5t-53.5 -83.5q-44 -43 -81 -64.5t-92 -43.5l-17 22
l48 62q37 48 48.5 100t11.5 115z" />
    <glyph glyph-name="eng" unicode="&#x14b;" horiz-adv-x="673" 
d="M417 66v305q0 28 -12.5 45t-49.5 17q-21 0 -39 -3.5t-35 -9.5v-342q0 -22 11 -28t39 -8v-42h-309v42q28 2 40.5 8t12.5 28v350l-53 34v31l223 60h40l-4 -101q27 35 72 68t115 33q72 0 113.5 -41t41.5 -123v-278q0 -89 -21 -136t-59 -81q-46 -41 -87 -62t-96 -43l-17 22
l41 63q24 37 28.5 85.5t4.5 106.5z" />
    <glyph glyph-name="Omacron" unicode="&#x14c;" horiz-adv-x="758" 
d="M384 42q70 0 94.5 95t24.5 199q0 137 -29 230.5t-100 93.5q-70 0 -94.5 -95t-24.5 -199q0 -137 29 -230.5t100 -93.5zM369 -10q-169 0 -256.5 103.5t-87.5 243.5q0 172 102.5 273.5t261.5 101.5q169 0 256.5 -103.5t87.5 -243.5q0 -172 -102.5 -273.5t-261.5 -101.5z
M236 746v95h294v-95h-294z" />
    <glyph glyph-name="omacron" unicode="&#x14d;" horiz-adv-x="620" 
d="M315 34q40 0 53 53t13 146q0 128 -16.5 202t-59.5 74q-40 0 -53 -53t-13 -146q0 -128 16.5 -202t59.5 -74zM310 -10q-128 0 -209 73.5t-81 198.5t81 208t209 83t209 -73.5t81 -198.5t-81 -208t-209 -83zM167 625v95h294v-95h-294z" />
    <glyph glyph-name="Obreve" unicode="&#x14e;" horiz-adv-x="758" 
d="M384 42q70 0 94.5 95t24.5 199q0 137 -29 230.5t-100 93.5q-70 0 -94.5 -95t-24.5 -199q0 -137 29 -230.5t100 -93.5zM369 -10q-169 0 -256.5 103.5t-87.5 243.5q0 172 102.5 273.5t261.5 101.5q169 0 256.5 -103.5t87.5 -243.5q0 -172 -102.5 -273.5t-261.5 -101.5z
M383 738q-72 0 -111 42t-39 114h51q7 -35 36.5 -47t62.5 -12t62.5 12t36.5 47h51q0 -72 -39 -114t-111 -42z" />
    <glyph glyph-name="obreve" unicode="&#x14f;" horiz-adv-x="620" 
d="M315 34q40 0 53 53t13 146q0 128 -16.5 202t-59.5 74q-40 0 -53 -53t-13 -146q0 -128 16.5 -202t59.5 -74zM310 -10q-128 0 -209 73.5t-81 198.5t81 208t209 83t209 -73.5t81 -198.5t-81 -208t-209 -83zM314 598q-72 0 -110.5 45.5t-38.5 124.5h50q6 -40 34 -55t65 -15
t65 15t34 55h50q0 -79 -38.5 -124.5t-110.5 -45.5z" />
    <glyph glyph-name="Ohungarumlaut" unicode="&#x150;" horiz-adv-x="758" 
d="M384 42q70 0 94.5 95t24.5 199q0 137 -29 230.5t-100 93.5q-70 0 -94.5 -95t-24.5 -199q0 -137 29 -230.5t100 -93.5zM369 -10q-169 0 -256.5 103.5t-87.5 243.5q0 172 102.5 273.5t261.5 101.5q169 0 256.5 -103.5t87.5 -243.5q0 -172 -102.5 -273.5t-261.5 -101.5z
M306 890h162v-10l-149 -139h-61zM494 890h162v-10l-149 -139h-61z" />
    <glyph glyph-name="ohungarumlaut" unicode="&#x151;" horiz-adv-x="620" 
d="M315 34q40 0 53 53t13 146q0 128 -16.5 202t-59.5 74q-40 0 -53 -53t-13 -146q0 -128 16.5 -202t59.5 -74zM310 -10q-128 0 -209 73.5t-81 198.5t81 208t209 83t209 -73.5t81 -198.5t-81 -208t-209 -83zM225 766h162v-10l-149 -153h-61zM413 766h162v-10l-149 -153h-61z
" />
    <glyph glyph-name="OE" unicode="&#x152;" horiz-adv-x="1063" 
d="M494 652h-33q-99 0 -154.5 -80t-55.5 -208q0 -148 62 -231t167 -83h14v602zM1016 0h-574q-211 0 -314 98.5t-103 247.5q0 166 112 261t308 95h571v-199h-42q-40 84 -71.5 116.5t-103.5 32.5h-86v-260h83q35 0 47.5 20.5t18.5 72.5h47v-246h-47q-6 52 -18.5 72.5
t-47.5 20.5h-83v-215q0 -40 19 -53.5t58 -13.5h22q70 0 101 37t86 140h50z" />
    <glyph glyph-name="oe" unicode="&#x153;" horiz-adv-x="908" 
d="M310 553q54 0 103 -19t84 -50q34 31 77 50t94 19q109 0 165.5 -63t56.5 -161v-25h-317q0 -82 42 -131t108 -49q47 0 84 16.5t65 53.5l21 -13q-21 -87 -80.5 -139t-157.5 -52q-49 0 -93.5 18.5t-78.5 48.5q-34 -29 -79 -48t-94 -19q-128 0 -209 73.5t-81 198.5t81 208
t209 83zM315 34q40 0 53 53t13 146q0 128 -16.5 202t-59.5 74q-40 0 -53 -53t-13 -146q0 -128 16.5 -202t59.5 -74zM651 509q-37 0 -55.5 -43t-21.5 -113h141q0 74 -14 115t-50 41z" />
    <glyph glyph-name="Racute" unicode="&#x154;" horiz-adv-x="778" 
d="M335 649h-21v-305h22q63 0 99.5 41t36.5 115q0 71 -36 110t-101 39zM314 290v-178q0 -38 10 -50t59 -17v-45h-357v45q49 5 59 17t10 50v478q0 38 -10 50t-59 17v45h389q120 0 196.5 -53.5t76.5 -147.5q0 -73 -44.5 -116.5t-98.5 -62.5l133 -196q30 -45 48 -62t52 -19v-45
h-247q-21 16 -41.5 43.5t-42.5 66.5l-103 180h-30zM361 890h197v-10l-180 -139h-64z" />
    <glyph glyph-name="racute" unicode="&#x155;" horiz-adv-x="478" 
d="M281 355v-258q0 -33 18 -41t60 -14v-42h-337v42q28 2 40.5 8t12.5 28v350l-53 34v31l223 60h40l-4 -156q28 90 59.5 123t79.5 33q19 0 32 -5t21 -12v-153h-26q-48 0 -91 -4.5t-75 -23.5zM254 766h197v-10l-185 -153h-59z" />
    <glyph glyph-name="Rcommaaccent" unicode="&#x156;" horiz-adv-x="778" 
d="M335 649h-21v-305h22q63 0 99.5 41t36.5 115q0 71 -36 110t-101 39zM314 290v-178q0 -38 10 -50t59 -17v-45h-357v45q49 5 59 17t10 50v478q0 38 -10 50t-59 17v45h389q120 0 196.5 -53.5t76.5 -147.5q0 -73 -44.5 -116.5t-98.5 -62.5l133 -196q30 -45 48 -62t52 -19v-45
h-247q-21 16 -41.5 43.5t-42.5 66.5l-103 180h-30zM407 -158h-56q-22 6 -36 20.5t-14 41.5t22.5 45.5t62.5 18.5q46 0 72 -27.5t26 -68.5q0 -51 -41.5 -86.5t-135.5 -35.5v40q50 0 74.5 16t25.5 36z" />
    <glyph glyph-name="rcommaaccent" unicode="&#x157;" horiz-adv-x="478" 
d="M281 355v-258q0 -33 18 -41t60 -14v-42h-337v42q28 2 40.5 8t12.5 28v350l-53 34v31l223 60h40l-4 -156q28 90 59.5 123t79.5 33q19 0 32 -5t21 -12v-153h-26q-48 0 -91 -4.5t-75 -23.5zM202 -158h-56q-22 6 -36 20.5t-14 41.5t22.5 45.5t62.5 18.5q46 0 72 -27.5
t26 -68.5q0 -51 -41.5 -86.5t-135.5 -35.5v40q50 0 74.5 16t25.5 36z" />
    <glyph glyph-name="Rcaron" unicode="&#x158;" horiz-adv-x="778" 
d="M335 649h-21v-305h22q63 0 99.5 41t36.5 115q0 71 -36 110t-101 39zM314 290v-178q0 -38 10 -50t59 -17v-45h-357v45q49 5 59 17t10 50v478q0 38 -10 50t-59 17v45h389q120 0 196.5 -53.5t76.5 -147.5q0 -73 -44.5 -116.5t-98.5 -62.5l133 -196q30 -45 48 -62t52 -19v-45
h-247q-21 16 -41.5 43.5t-42.5 66.5l-103 180h-30zM560 894l-118 -152h-136l-118 152h65l121 -65l121 65h65z" />
    <glyph glyph-name="rcaron" unicode="&#x159;" horiz-adv-x="478" 
d="M281 355v-258q0 -33 18 -41t60 -14v-42h-337v42q28 2 40.5 8t12.5 28v350l-53 34v31l223 60h40l-4 -156q28 90 59.5 123t79.5 33q19 0 32 -5t21 -12v-153h-26q-48 0 -91 -4.5t-75 -23.5zM455 771l-118 -169h-136l-118 169h65l121 -80l121 80h65z" />
    <glyph glyph-name="Sacute" unicode="&#x15a;" horiz-adv-x="592" 
d="M281 -10q-76 0 -140 19.5t-101 47.5l-12 175h59q19 -81 69 -135.5t125 -54.5q49 0 80 22t31 66q0 45 -34.5 70t-114.5 47q-104 28 -158 83t-54 147q0 110 75.5 172.5t188.5 62.5q71 0 127.5 -16.5t92.5 -43.5v-153h-49q-19 72 -60.5 117t-110.5 45q-43 0 -70.5 -23
t-27.5 -64q0 -46 34 -70.5t109 -45.5q99 -28 161.5 -77.5t62.5 -159.5q0 -120 -83.5 -175.5t-199.5 -55.5zM301 890h197v-10l-180 -139h-64z" />
    <glyph glyph-name="sacute" unicode="&#x15b;" horiz-adv-x="487" 
d="M231 -10q-65 0 -113.5 14t-82.5 37l-6 135h51q13 -60 52.5 -100.5t96.5 -40.5q34 0 57.5 16t23.5 47q0 37 -27.5 53t-75.5 30q-87 25 -133 68t-46 121q0 89 61 136t154 47q51 0 97.5 -12.5t78.5 -33.5v-120h-47q-7 47 -40 84t-84 37q-30 0 -49 -15t-19 -42q0 -30 22 -45
t68 -30q93 -31 142.5 -71t49.5 -126q0 -90 -63.5 -139.5t-167.5 -49.5zM238 766h197v-10l-185 -153h-59z" />
    <glyph glyph-name="Scircumflex" unicode="&#x15c;" horiz-adv-x="592" 
d="M281 -10q-76 0 -140 19.5t-101 47.5l-12 175h59q19 -81 69 -135.5t125 -54.5q49 0 80 22t31 66q0 45 -34.5 70t-114.5 47q-104 28 -158 83t-54 147q0 110 75.5 172.5t188.5 62.5q71 0 127.5 -16.5t92.5 -43.5v-153h-49q-19 72 -60.5 117t-110.5 45q-43 0 -70.5 -23
t-27.5 -64q0 -46 34 -70.5t109 -45.5q99 -28 161.5 -77.5t62.5 -159.5q0 -120 -83.5 -175.5t-199.5 -55.5zM373 893l118 -152h-65l-121 65l-121 -65h-65l118 152h136z" />
    <glyph glyph-name="scircumflex" unicode="&#x15d;" horiz-adv-x="487" 
d="M231 -10q-65 0 -113.5 14t-82.5 37l-6 135h51q13 -60 52.5 -100.5t96.5 -40.5q34 0 57.5 16t23.5 47q0 37 -27.5 53t-75.5 30q-87 25 -133 68t-46 121q0 89 61 136t154 47q51 0 97.5 -12.5t78.5 -33.5v-120h-47q-7 47 -40 84t-84 37q-30 0 -49 -15t-19 -42q0 -30 22 -45
t68 -30q93 -31 142.5 -71t49.5 -126q0 -90 -63.5 -139.5t-167.5 -49.5zM321 766l118 -169h-65l-121 80l-121 -80h-65l118 169h136z" />
    <glyph glyph-name="Scedilla" unicode="&#x15e;" horiz-adv-x="592" 
d="M180 -233l-9 37q54 0 78.5 14t24.5 33q0 20 -21 25.5t-56 6.5l43 109q-63 4 -116 22.5t-84 42.5l-12 175h59q19 -81 69 -135.5t125 -54.5q49 0 80 22t31 66q0 45 -34.5 70t-114.5 47q-104 28 -158 83t-54 147q0 110 75.5 172.5t188.5 62.5q71 0 127.5 -16.5t92.5 -43.5
v-153h-49q-19 72 -60.5 117t-110.5 45q-43 0 -70.5 -23t-27.5 -64q0 -46 34 -70.5t109 -45.5q99 -28 161.5 -77.5t62.5 -159.5q0 -120 -83.5 -175.5t-199.5 -55.5h-2l-11 -28q48 0 77.5 -22t29.5 -62q0 -57 -60 -84t-135 -27z" />
    <glyph glyph-name="scedilla" unicode="&#x15f;" horiz-adv-x="487" 
d="M127 -233l-9 37q54 0 78.5 14t24.5 33q0 20 -21 25.5t-56 6.5l43 109q-49 4 -86.5 17t-65.5 32l-6 135h51q13 -60 52.5 -100.5t96.5 -40.5q34 0 57.5 16t23.5 47q0 37 -27.5 53t-75.5 30q-87 25 -133 68t-46 121q0 89 61 136t154 47q51 0 97.5 -12.5t78.5 -33.5v-120h-47
q-7 47 -40 84t-84 37q-30 0 -49 -15t-19 -42q0 -30 22 -45t68 -30q93 -31 142.5 -71t49.5 -126q0 -90 -63.5 -139.5t-167.5 -49.5h-5l-11 -28q48 0 77.5 -22t29.5 -62q0 -57 -60 -84t-135 -27z" />
    <glyph glyph-name="Scaron" unicode="&#x160;" horiz-adv-x="592" 
d="M281 -10q-76 0 -140 19.5t-101 47.5l-12 175h59q19 -81 69 -135.5t125 -54.5q49 0 80 22t31 66q0 45 -34.5 70t-114.5 47q-104 28 -158 83t-54 147q0 110 75.5 172.5t188.5 62.5q71 0 127.5 -16.5t92.5 -43.5v-153h-49q-19 72 -60.5 117t-110.5 45q-43 0 -70.5 -23
t-27.5 -64q0 -46 34 -70.5t109 -45.5q99 -28 161.5 -77.5t62.5 -159.5q0 -120 -83.5 -175.5t-199.5 -55.5zM490 894l-118 -152h-136l-118 152h65l121 -65l121 65h65z" />
    <glyph glyph-name="scaron" unicode="&#x161;" horiz-adv-x="487" 
d="M231 -10q-65 0 -113.5 14t-82.5 37l-6 135h51q13 -60 52.5 -100.5t96.5 -40.5q34 0 57.5 16t23.5 47q0 37 -27.5 53t-75.5 30q-87 25 -133 68t-46 121q0 89 61 136t154 47q51 0 97.5 -12.5t78.5 -33.5v-120h-47q-7 47 -40 84t-84 37q-30 0 -49 -15t-19 -42q0 -30 22 -45
t68 -30q93 -31 142.5 -71t49.5 -126q0 -90 -63.5 -139.5t-167.5 -49.5zM439 771l-118 -169h-136l-118 169h65l121 -80l121 80h65z" />
    <glyph glyph-name="Tcedilla" unicode="&#x162;" horiz-adv-x="723" 
d="M30 702h663l15 -261h-45q-57 121 -89.5 169.5t-78.5 48.5h-24v-552q0 -38 15 -47.5t64 -14.5v-45h-377v45q49 5 64 14.5t15 47.5v552h-24q-46 0 -78.5 -48.5t-89.5 -169.5h-45zM376 -158h-56q-22 6 -36 20.5t-14 41.5t22.5 45.5t62.5 18.5q46 0 72 -27.5t26 -68.5
q0 -51 -41.5 -86.5t-135.5 -35.5v40q50 0 74.5 16t25.5 36z" />
    <glyph glyph-name="tcedilla" unicode="&#x163;" horiz-adv-x="405" 
d="M268 682v-139h111v-57h-111v-331q0 -32 13 -47t38 -15q18 0 35.5 6.5t34.5 18.5l16 -25q-30 -50 -75 -76.5t-108 -26.5q-72 0 -117.5 39t-45.5 129v328h-54v37q63 22 120 64.5t99 94.5h44zM226 -158h-56q-22 6 -36 20.5t-14 41.5t22.5 45.5t62.5 18.5q46 0 72 -27.5
t26 -68.5q0 -51 -41.5 -86.5t-135.5 -35.5v40q50 0 74.5 16t25.5 36z" />
    <glyph glyph-name="Tcaron" unicode="&#x164;" horiz-adv-x="723" 
d="M30 702h663l15 -261h-45q-57 121 -89.5 169.5t-78.5 48.5h-24v-552q0 -38 15 -47.5t64 -14.5v-45h-377v45q49 5 64 14.5t15 47.5v552h-24q-46 0 -78.5 -48.5t-89.5 -169.5h-45zM547 894l-118 -152h-136l-118 152h65l121 -65l121 65h65z" />
    <glyph glyph-name="tcaron" unicode="&#x165;" horiz-adv-x="405" 
d="M268 682v-139h111v-57h-111v-331q0 -32 13 -47t38 -15q18 0 35.5 6.5t34.5 18.5l16 -25q-30 -50 -75 -76.5t-108 -26.5q-72 0 -117.5 39t-45.5 129v328h-54v37q63 22 120 64.5t99 94.5h44zM468 771l-119 -193h-47l11 205h155v-12z" />
    <glyph glyph-name="Tbar" unicode="&#x166;" horiz-adv-x="723" 
d="M30 702h663l15 -261h-45q-57 121 -89.5 169.5t-78.5 48.5h-24v-271h102v-68h-102v-213q0 -38 15 -47.5t64 -14.5v-45h-377v45q49 5 64 14.5t15 47.5v213h-102v68h102v271h-24q-46 0 -78.5 -48.5t-89.5 -169.5h-45z" />
    <glyph glyph-name="tbar" unicode="&#x167;" horiz-adv-x="415" 
d="M273 682v-139h111v-57h-111v-103h111v-57h-111v-171q0 -32 13 -47t38 -15q18 0 35.5 6.5t34.5 18.5l16 -25q-30 -50 -75 -76.5t-108 -26.5q-72 0 -117.5 39t-45.5 129v168h-54v57h54v103h-54v37q63 22 120 64.5t99 94.5h44z" />
    <glyph glyph-name="Utilde" unicode="&#x168;" horiz-adv-x="763" 
d="M303 590v-325q0 -84 33.5 -133.5t114.5 -49.5q62 0 108.5 41.5t46.5 145.5v321q0 38 -16 50.5t-76 16.5v45h234v-45q-49 -5 -59 -17t-10 -50v-341q0 -132 -83 -195.5t-202 -63.5q-149 0 -229.5 65.5t-80.5 193.5v341q0 38 -10 50t-59 17v45h357v-45q-49 -5 -59 -17
t-10 -50zM495 741q-49 0 -76.5 30t-59.5 30q-21 0 -36 -16t-29 -39l-40 22q25 64 52 101.5t69 37.5q49 0 76.5 -30t59.5 -30q21 0 36 16t29 39l40 -22q-25 -64 -52 -101.5t-69 -37.5z" />
    <glyph glyph-name="utilde" unicode="&#x169;" horiz-adv-x="669" 
d="M600 421v-302q0 -25 5 -38t27 -13h23v-44l-225 -34h-39l3 98q-25 -34 -68 -66t-112 -32q-67 0 -110.5 42t-43.5 129v237q0 21 -7 37t-28 23l-15 5v40l224 50h38l-6 -132v-242q0 -34 14.5 -53t48.5 -19q19 0 32.5 2.5t32.5 8.5v280q0 21 -7 37t-28 23l-15 5v40l224 50h38z
M400 602q-49 0 -76.5 30t-59.5 30q-21 0 -36 -16t-29 -39l-40 22q25 64 52 101.5t69 37.5q49 0 76.5 -30t59.5 -30q21 0 36 16t29 39l40 -22q-25 -64 -52 -101.5t-69 -37.5z" />
    <glyph glyph-name="Umacron" unicode="&#x16a;" horiz-adv-x="763" 
d="M303 590v-325q0 -84 33.5 -133.5t114.5 -49.5q62 0 108.5 41.5t46.5 145.5v321q0 38 -16 50.5t-76 16.5v45h234v-45q-49 -5 -59 -17t-10 -50v-341q0 -132 -83 -195.5t-202 -63.5q-149 0 -229.5 65.5t-80.5 193.5v341q0 38 -10 50t-59 17v45h357v-45q-49 -5 -59 -17
t-10 -50zM278 746v95h294v-95h-294z" />
    <glyph glyph-name="umacron" unicode="&#x16b;" horiz-adv-x="669" 
d="M600 421v-302q0 -25 5 -38t27 -13h23v-44l-225 -34h-39l3 98q-25 -34 -68 -66t-112 -32q-67 0 -110.5 42t-43.5 129v237q0 21 -7 37t-28 23l-15 5v40l224 50h38l-6 -132v-242q0 -34 14.5 -53t48.5 -19q19 0 32.5 2.5t32.5 8.5v280q0 21 -7 37t-28 23l-15 5v40l224 50h38z
M187 625v95h294v-95h-294z" />
    <glyph glyph-name="Ubreve" unicode="&#x16c;" horiz-adv-x="763" 
d="M303 590v-325q0 -84 33.5 -133.5t114.5 -49.5q62 0 108.5 41.5t46.5 145.5v321q0 38 -16 50.5t-76 16.5v45h234v-45q-49 -5 -59 -17t-10 -50v-341q0 -132 -83 -195.5t-202 -63.5q-149 0 -229.5 65.5t-80.5 193.5v341q0 38 -10 50t-59 17v45h357v-45q-49 -5 -59 -17
t-10 -50zM425 738q-72 0 -111 42t-39 114h51q7 -35 36.5 -47t62.5 -12t62.5 12t36.5 47h51q0 -72 -39 -114t-111 -42z" />
    <glyph glyph-name="ubreve" unicode="&#x16d;" horiz-adv-x="669" 
d="M600 421v-302q0 -25 5 -38t27 -13h23v-44l-225 -34h-39l3 98q-25 -34 -68 -66t-112 -32q-67 0 -110.5 42t-43.5 129v237q0 21 -7 37t-28 23l-15 5v40l224 50h38l-6 -132v-242q0 -34 14.5 -53t48.5 -19q19 0 32.5 2.5t32.5 8.5v280q0 21 -7 37t-28 23l-15 5v40l224 50h38z
M334 598q-72 0 -110.5 45.5t-38.5 124.5h50q6 -40 34 -55t65 -15t65 15t34 55h50q0 -79 -38.5 -124.5t-110.5 -45.5z" />
    <glyph glyph-name="Uring" unicode="&#x16e;" horiz-adv-x="763" 
d="M303 590v-325q0 -84 33.5 -133.5t114.5 -49.5q62 0 108.5 41.5t46.5 145.5v321q0 38 -16 50.5t-76 16.5v45h234v-45q-49 -5 -59 -17t-10 -50v-341q0 -132 -83 -195.5t-202 -63.5q-149 0 -229.5 65.5t-80.5 193.5v341q0 38 -10 50t-59 17v45h357v-45q-49 -5 -59 -17
t-10 -50zM376 829q0 -21 12.5 -35t36.5 -14t36.5 14t12.5 35q0 22 -12.5 36t-36.5 14t-36.5 -14t-12.5 -36zM317 829q0 44 30.5 74.5t77.5 30.5t77 -30.5t30 -74.5q0 -43 -30 -73.5t-77 -30.5t-77.5 30.5t-30.5 73.5z" />
    <glyph glyph-name="uring" unicode="&#x16f;" horiz-adv-x="669" 
d="M600 421v-302q0 -25 5 -38t27 -13h23v-44l-225 -34h-39l3 98q-25 -34 -68 -66t-112 -32q-67 0 -110.5 42t-43.5 129v237q0 21 -7 37t-28 23l-15 5v40l224 50h38l-6 -132v-242q0 -34 14.5 -53t48.5 -19q19 0 32.5 2.5t32.5 8.5v280q0 21 -7 37t-28 23l-15 5v40l224 50h38z
M285 684q0 -21 12.5 -35t36.5 -14t36.5 14t12.5 35q0 22 -12.5 36t-36.5 14t-36.5 -14t-12.5 -36zM226 684q0 44 30.5 74.5t77.5 30.5t77 -30.5t30 -74.5q0 -43 -30 -73.5t-77 -30.5t-77.5 30.5t-30.5 73.5z" />
    <glyph glyph-name="Uhungarumlaut" unicode="&#x170;" horiz-adv-x="763" 
d="M303 590v-325q0 -84 33.5 -133.5t114.5 -49.5q62 0 108.5 41.5t46.5 145.5v321q0 38 -16 50.5t-76 16.5v45h234v-45q-49 -5 -59 -17t-10 -50v-341q0 -132 -83 -195.5t-202 -63.5q-149 0 -229.5 65.5t-80.5 193.5v341q0 38 -10 50t-59 17v45h357v-45q-49 -5 -59 -17
t-10 -50zM348 890h162v-10l-149 -139h-61zM536 890h162v-10l-149 -139h-61z" />
    <glyph glyph-name="uhungarumlaut" unicode="&#x171;" horiz-adv-x="669" 
d="M600 421v-302q0 -25 5 -38t27 -13h23v-44l-225 -34h-39l3 98q-25 -34 -68 -66t-112 -32q-67 0 -110.5 42t-43.5 129v237q0 21 -7 37t-28 23l-15 5v40l224 50h38l-6 -132v-242q0 -34 14.5 -53t48.5 -19q19 0 32.5 2.5t32.5 8.5v280q0 21 -7 37t-28 23l-15 5v40l224 50h38z
M245 766h162v-10l-149 -153h-61zM433 766h162v-10l-149 -153h-61z" />
    <glyph glyph-name="Uogonek" unicode="&#x172;" horiz-adv-x="763" 
d="M303 590v-325q0 -84 33.5 -133.5t114.5 -49.5q62 0 108.5 41.5t46.5 145.5v321q0 38 -16 50.5t-76 16.5v45h234v-45q-49 -5 -59 -17t-10 -50v-341q0 -96 -46 -156t-119 -85q-31 -19 -47.5 -43.5t-16.5 -55.5q0 -21 11.5 -35.5t33.5 -14.5q18 0 30.5 5.5t28.5 15.5l17 -21
q-29 -37 -61 -56t-77 -19q-39 0 -67.5 22t-28.5 62q0 41 25 71t62 52q-7 0 -15 -0.5t-15 -0.5q-149 0 -229.5 65.5t-80.5 193.5v341q0 38 -10 50t-59 17v45h357v-45q-49 -5 -59 -17t-10 -50z" />
    <glyph glyph-name="uogonek" unicode="&#x173;" horiz-adv-x="669" 
d="M600 421v-302q0 -25 5 -38t27 -13h23v-44q-143 -19 -193 -41t-50 -76q0 -19 11.5 -33.5t33.5 -14.5q18 0 30.5 5.5t28.5 15.5l17 -21q-29 -37 -61 -56t-75 -19q-40 0 -69 23t-29 66q0 40 24 67.5t68 49.5l3 98q-25 -34 -68 -66t-112 -32q-67 0 -110.5 42t-43.5 129v237
q0 21 -7 37t-28 23l-15 5v40l224 50h38l-6 -132v-242q0 -34 14.5 -53t48.5 -19q19 0 32.5 2.5t32.5 8.5v280q0 21 -7 37t-28 23l-15 5v40l224 50h38z" />
    <glyph glyph-name="Wcircumflex" unicode="&#x174;" horiz-adv-x="1028" 
d="M661 -3l-133 385l-143 -385h-81l-241 623q-7 16 -22 24.5t-36 12.5v45h345v-45q-25 -3 -35.5 -12.5t-10.5 -25.5q0 -12 4.5 -27t10.5 -31l108 -287l71 193l-52 153q-6 16 -17 24.5t-32 12.5v45h345v-45q-37 -1 -51 -11.5t-14 -31.5q0 -13 4 -29.5t10 -36.5l86 -269
l93 273q5 16 9 31t4 27q0 20 -14 32.5t-50 14.5v45h204v-45q-21 -4 -36.5 -12.5t-21.5 -24.5l-222 -623h-82zM628 893l118 -152h-65l-121 65l-121 -65h-65l118 152h136z" />
    <glyph glyph-name="wcircumflex" unicode="&#x175;" horiz-adv-x="923" 
d="M708 236l82 202q4 10 6 18t2 14q0 15 -13.5 21.5t-41.5 9.5v42h175v-42q-25 -8 -34.5 -16t-16.5 -24l-200 -464h-68l-118 302l-142 -302h-68l-215 464q-7 16 -16.5 24t-34.5 16v42h318v-42q-22 -3 -32 -10t-10 -19q0 -7 2.5 -15.5t6.5 -18.5l90 -214l70 145l-36 92
q-6 16 -16 25t-29 15v42h316v-42q-31 -4 -45.5 -9.5t-14.5 -23.5q0 -6 1.5 -13.5t4.5 -16.5zM561 766l118 -169h-65l-121 80l-121 -80h-65l118 169h136z" />
    <glyph glyph-name="Ycircumflex" unicode="&#x176;" horiz-adv-x="727" 
d="M481 258v-151q0 -38 15 -47.5t64 -14.5v-45h-372v45q49 5 64 14.5t15 47.5v146l-204 367q-11 21 -23.5 27t-34.5 10v45h365v-45q-38 -1 -50.5 -9.5t-12.5 -26.5q0 -16 6 -31t18 -37l123 -210l103 208q9 19 17 38t8 32q0 18 -17 26.5t-49 9.5v45h206v-45q-21 -4 -35 -11.5
t-23 -25.5zM483 893l118 -152h-65l-121 65l-121 -65h-65l118 152h136z" />
    <glyph glyph-name="ycircumflex" unicode="&#x177;" horiz-adv-x="616" 
d="M387 202l94 234q4 10 6 16.5t2 13.5q0 16 -12.5 23t-52.5 12v42h187v-42q-25 -8 -34.5 -16t-16.5 -24l-232 -544q-29 -68 -62.5 -103.5t-87.5 -35.5q-31 0 -53 11t-33 29v81q20 -4 39 -7t43 -3q43 0 65.5 12.5t35.5 39.5l15 32l-234 488q-7 16 -16.5 24t-34.5 16v42h342
v-42q-40 -5 -52.5 -12t-12.5 -23q0 -7 2 -13l5 -15zM422 766l118 -169h-65l-121 80l-121 -80h-65l118 169h136z" />
    <glyph glyph-name="Ydieresis" unicode="&#x178;" horiz-adv-x="727" 
d="M481 258v-151q0 -38 15 -47.5t64 -14.5v-45h-372v45q49 5 64 14.5t15 47.5v146l-204 367q-11 21 -23.5 27t-34.5 10v45h365v-45q-38 -1 -50.5 -9.5t-12.5 -26.5q0 -16 6 -31t18 -37l123 -210l103 208q9 19 17 38t8 32q0 18 -17 26.5t-49 9.5v45h206v-45q-21 -4 -35 -11.5
t-23 -25.5zM221 823q0 36 26 62t63 26t63.5 -26t26.5 -62t-26.5 -62t-63.5 -26t-63 26t-26 62zM431 823q0 36 26.5 62t61.5 26q38 0 64.5 -26t26.5 -62t-26.5 -62t-64.5 -26q-35 0 -61.5 26t-26.5 62z" />
    <glyph glyph-name="Zacute" unicode="&#x179;" horiz-adv-x="643" 
d="M266 50h105q63 0 103 36.5t106 152.5h48l-37 -239h-576v39l339 613h-97q-72 0 -100.5 -38t-73.5 -136h-45l10 224h559v-39zM320 890h197v-10l-180 -139h-64z" />
    <glyph glyph-name="zacute" unicode="&#x17a;" horiz-adv-x="550" 
d="M15 0v38l280 457h-80q-38 0 -68.5 -38t-68.5 -118h-42l14 236h40l22 -32h415v-37l-274 -457h90q51 0 82.5 36t73.5 118h41l-24 -203h-501zM286 766h197v-10l-185 -153h-59z" />
    <glyph glyph-name="Zdotaccent" unicode="&#x17b;" horiz-adv-x="643" 
d="M266 50h105q63 0 103 36.5t106 152.5h48l-37 -239h-576v39l339 613h-97q-72 0 -100.5 -38t-73.5 -136h-45l10 224h559v-39zM333 737q-50 0 -78 29.5t-28 69.5t28 69.5t78 29.5q49 0 77.5 -29.5t28.5 -69.5t-28.5 -69.5t-77.5 -29.5z" />
    <glyph glyph-name="zdotaccent" unicode="&#x17c;" horiz-adv-x="550" 
d="M15 0v38l280 457h-80q-38 0 -68.5 -38t-68.5 -118h-42l14 236h40l22 -32h415v-37l-274 -457h90q51 0 82.5 36t73.5 118h41l-24 -203h-501zM301 594q-50 0 -78 29.5t-28 69.5t28 69.5t78 29.5q49 0 77.5 -29.5t28.5 -69.5t-28.5 -69.5t-77.5 -29.5z" />
    <glyph glyph-name="Zcaron" unicode="&#x17d;" horiz-adv-x="643" 
d="M266 50h105q63 0 103 36.5t106 152.5h48l-37 -239h-576v39l339 613h-97q-72 0 -100.5 -38t-73.5 -136h-45l10 224h559v-39zM519 894l-118 -152h-136l-118 152h65l121 -65l121 65h65z" />
    <glyph glyph-name="zcaron" unicode="&#x17e;" horiz-adv-x="550" 
d="M15 0v38l280 457h-80q-38 0 -68.5 -38t-68.5 -118h-42l14 236h40l22 -32h415v-37l-274 -457h90q51 0 82.5 36t73.5 118h41l-24 -203h-501zM487 771l-118 -169h-136l-118 169h65l121 -80l121 80h65z" />
    <glyph glyph-name="florin" unicode="&#x192;" horiz-adv-x="554" 
d="M59 347l4 45h88v1q17 157 79 238t181 81q54 0 98.5 -20t44.5 -73q0 -22 -13.5 -40.5t-38.5 -26.5h-59q0 43 -5.5 84t-36.5 41q-17 0 -26 -12t-12 -39l-26 -234h115l-4 -45h-116l-22 -207q-17 -157 -79 -238t-181 -81q-54 0 -98.5 20t-44.5 73q0 22 13.5 40.5t38.5 26.5
h59q0 -43 5.5 -84t36.5 -41q17 0 26 12t12 39l48 440h-87z" />
    <glyph glyph-name="Aringacute" unicode="&#x1fa;" horiz-adv-x="773" 
d="M242 816q0 40 32 67t81 27t81 -27t32 -67q0 -39 -32 -66t-81 -27t-81 27t-32 66zM358 1050h197v-10l-174 -110h-64zM299 816q0 -19 15.5 -32.5t40.5 -13.5t40.5 13.5t15.5 32.5q0 20 -15.5 33.5t-40.5 13.5t-40.5 -13.5t-15.5 -33.5zM461 129l-32 82h-247l-30 -82
q-4 -10 -6 -19.5t-2 -16.5q0 -25 21 -35t59 -13v-45h-219v45q20 4 35 10.5t23 26.5l203 533l-35 87h233l245 -620q7 -19 22 -26t37 -11v-45h-375v45q34 1 55 11.5t21 35.5q0 7 -2 16.5t-6 20.5zM302 536l-99 -267h203z" />
    <glyph glyph-name="aringacute" unicode="&#x1fb;" horiz-adv-x="568" 
d="M170 664q0 40 32 67t81 27t81 -27t32 -67q0 -39 -32 -66t-81 -27t-81 27t-32 66zM284 901h197v-10l-174 -110h-64zM227 664q0 -19 15.5 -32.5t40.5 -13.5t40.5 13.5t15.5 32.5q0 20 -15.5 33.5t-40.5 13.5t-40.5 -13.5t-15.5 -33.5zM276 98q8 0 15 1.5t14 3.5v185
l-40 -15q-24 -9 -39 -26t-15 -61q0 -37 14.5 -62.5t50.5 -25.5zM507 375v-265q0 -15 4 -28t21 -13q10 0 18.5 2t12.5 3l7 -30q-26 -24 -60 -39t-79 -15q-46 0 -78 21.5t-45 61.5q-21 -32 -57 -55.5t-91 -23.5q-64 0 -105.5 35t-41.5 101t39 98t91 50l162 56v110
q0 30 -9 48.5t-34 18.5q-26 0 -37 -21.5t-11 -55.5q0 -18 3 -36.5t7 -37.5l-124 -16q-22 7 -37 26t-15 47q0 71 65 103.5t158 32.5q109 0 172.5 -38.5t63.5 -139.5z" />
    <glyph glyph-name="AEacute" unicode="&#x1fc;" horiz-adv-x="1049" 
d="M63 82l337 545q-13 13 -35.5 20.5t-56.5 9.5v45h689l5 -199h-42q-40 84 -71.5 116.5t-103.5 32.5h-86v-260h83q35 0 47.5 20.5t18.5 72.5h47v-246h-47q-6 52 -18.5 72.5t-47.5 20.5h-83v-215q0 -40 19 -53.5t58 -13.5h22q70 0 101 37t86 140h50l-33 -227h-591v45
q49 5 59 17t10 50v137h-237l-74 -120q-7 -13 -11 -22t-4 -19q0 -21 22 -31t65 -12v-45h-236v45q20 4 33.5 11t24.5 26zM480 633l-201 -326h201v326zM627 890h197v-10l-180 -139h-64z" />
    <glyph glyph-name="aeacute" unicode="&#x1fd;" horiz-adv-x="808" 
d="M568 553q109 0 165.5 -63t56.5 -161v-25h-308q0 -78 38.5 -129t109.5 -51q42 0 78 16.5t64 53.5l21 -13q-21 -87 -80.5 -139t-157.5 -52q-63 0 -116.5 23t-87.5 67q-36 -40 -73.5 -63t-111.5 -23q-69 0 -111 35t-42 101t39 98t91 50l160 55q2 11 5 21.5t6 20.5
q2 68 -14 102t-42 34q-23 0 -33.5 -21.5t-10.5 -55.5q0 -18 3 -36.5t7 -37.5l-124 -16q-22 7 -37 26t-15 47q0 71 65 103.5t158 32.5q47 0 84 -10t60 -35q33 22 71.5 33.5t81.5 11.5zM551 509q-37 0 -51 -43t-17 -113h132q0 74 -14 115t-50 41zM289 98q9 0 19.5 3t22.5 8
q-16 31 -25.5 68.5t-9.5 82.5v12.5t1 12.5l-20 -8q-33 -12 -49.5 -29.5t-16.5 -61.5q0 -37 16 -62.5t62 -25.5zM404 766h197v-10l-185 -153h-59z" />
    <glyph glyph-name="Oslashacute" unicode="&#x1fe;" horiz-adv-x="758" 
d="M369 -10q-56 0 -103 12.5t-85 34.5l-74 -97l-42 32l73 95q-56 49 -84.5 119.5t-28.5 150.5q0 172 102.5 273.5t261.5 101.5q61 0 111.5 -15t90.5 -42l70 91l42 -32l-71 -92q50 -48 75.5 -115t25.5 -142q0 -172 -102.5 -273.5t-261.5 -101.5zM255 366q0 -37 2 -71.5
t6 -65.5l224 291q-14 63 -41.5 101.5t-71.5 38.5q-70 0 -94.5 -95t-24.5 -199zM384 42q70 0 94.5 95t24.5 199q0 29 -1.5 57.5t-3.5 54.5l-222 -288q14 -54 41 -86t67 -32zM376 890h197v-10l-180 -139h-64z" />
    <glyph glyph-name="oslashacute" unicode="&#x1ff;" horiz-adv-x="620" 
d="M310 -10q-43 0 -81 8.5t-70 24.5l-61 -83l-38 27l59 81q-46 35 -72.5 90t-26.5 124q0 125 81 208t209 83q43 0 82 -9t71 -26l57 78l38 -27l-56 -76q46 -35 72 -89t26 -123q0 -125 -81 -208t-209 -83zM239 310q0 -26 0.5 -50t1.5 -45l131 179q-8 54 -24 84.5t-43 30.5
q-40 0 -53 -53t-13 -146zM315 34q40 0 53 53t13 146q0 24 -1 47t-2 43l-130 -178q8 -53 24 -82t43 -29zM295 766h197v-10l-185 -153h-59z" />
    <glyph glyph-name="Scommaaccent" unicode="&#x218;" horiz-adv-x="592" 
d="M281 -10q-76 0 -140 19.5t-101 47.5l-12 175h59q19 -81 69 -135.5t125 -54.5q49 0 80 22t31 66q0 45 -34.5 70t-114.5 47q-104 28 -158 83t-54 147q0 110 75.5 172.5t188.5 62.5q71 0 127.5 -16.5t92.5 -43.5v-153h-49q-19 72 -60.5 117t-110.5 45q-43 0 -70.5 -23
t-27.5 -64q0 -46 34 -70.5t109 -45.5q99 -28 161.5 -77.5t62.5 -159.5q0 -120 -83.5 -175.5t-199.5 -55.5zM305 -158h-56q-22 6 -36 20.5t-14 41.5t22.5 45.5t62.5 18.5q46 0 72 -27.5t26 -68.5q0 -51 -41.5 -86.5t-135.5 -35.5v40q50 0 74.5 16t25.5 36z" />
    <glyph glyph-name="scommaaccent" unicode="&#x219;" horiz-adv-x="487" 
d="M231 -10q-65 0 -113.5 14t-82.5 37l-6 135h51q13 -60 52.5 -100.5t96.5 -40.5q34 0 57.5 16t23.5 47q0 37 -27.5 53t-75.5 30q-87 25 -133 68t-46 121q0 89 61 136t154 47q51 0 97.5 -12.5t78.5 -33.5v-120h-47q-7 47 -40 84t-84 37q-30 0 -49 -15t-19 -42q0 -30 22 -45
t68 -30q93 -31 142.5 -71t49.5 -126q0 -90 -63.5 -139.5t-167.5 -49.5zM256 -158h-56q-22 6 -36 20.5t-14 41.5t22.5 45.5t62.5 18.5q46 0 72 -27.5t26 -68.5q0 -51 -41.5 -86.5t-135.5 -35.5v40q50 0 74.5 16t25.5 36z" />
    <glyph glyph-name="uni0237" unicode="&#x237;" horiz-adv-x="315" 
d="M59 428l-53 34v31l223 60h36v-442q0 -89 -21 -136t-59 -81q-46 -41 -87 -62t-96 -43l-17 22l41 63q24 37 28.5 85.5t4.5 106.5v362z" />
    <glyph glyph-name="circumflex" unicode="&#x2c6;" 
d="M318 766l118 -169h-65l-121 80l-121 -80h-65l118 169h136z" />
    <glyph glyph-name="caron" unicode="&#x2c7;" 
d="M436 771l-118 -169h-136l-118 169h65l121 -80l121 80h65z" />
    <glyph glyph-name="breve" unicode="&#x2d8;" 
d="M258 598q-72 0 -110.5 45.5t-38.5 124.5h50q6 -40 34 -55t65 -15t65 15t34 55h50q0 -79 -38.5 -124.5t-110.5 -45.5z" />
    <glyph glyph-name="dotaccent" unicode="&#x2d9;" 
d="M251 594q-50 0 -78 29.5t-28 69.5t28 69.5t78 29.5q49 0 77.5 -29.5t28.5 -69.5t-28.5 -69.5t-77.5 -29.5z" />
    <glyph glyph-name="ring" unicode="&#x2da;" 
d="M212 684q0 -21 12.5 -35t36.5 -14t36.5 14t12.5 35q0 22 -12.5 36t-36.5 14t-36.5 -14t-12.5 -36zM153 684q0 44 30.5 74.5t77.5 30.5t77 -30.5t30 -74.5q0 -43 -30 -73.5t-77 -30.5t-77.5 30.5t-30.5 73.5z" />
    <glyph glyph-name="ogonek" unicode="&#x2db;" 
d="M327 38l9 -17q-43 -22 -65 -49t-22 -63q0 -21 11.5 -35.5t33.5 -14.5q18 0 30.5 5.5t28.5 15.5l17 -21q-29 -37 -61 -56t-77 -19q-39 0 -67.5 22t-28.5 62q0 66 61 105.5t130 64.5z" />
    <glyph glyph-name="tilde" unicode="&#x2dc;" 
d="M310 602q-49 0 -76.5 30t-59.5 30q-21 0 -36 -16t-29 -39l-40 22q25 64 52 101.5t69 37.5q49 0 76.5 -30t59.5 -30q21 0 36 16t29 39l40 -22q-25 -64 -52 -101.5t-69 -37.5z" />
    <glyph glyph-name="hungarumlaut" unicode="&#x2dd;" 
d="M112 766h162v-10l-149 -153h-61zM300 766h162v-10l-149 -153h-61z" />
    <glyph glyph-name="pi" unicode="&#x3c0;" horiz-adv-x="650" 
d="M351 179l31 243h-120q0 -152 -9 -238t-31 -184h-191v47q42 62 81 148t39 227h-121v128h590l-17 -128h-80v-295q0 -25 11.5 -38.5t30.5 -13.5q9 0 20.5 1.5t21.5 4.5l8 -31q-25 -24 -64 -42t-81 -18q-57 0 -90 30.5t-33 96.5q0 15 1 29t3 33z" />
    <glyph glyph-name="Wgrave" unicode="&#x1e80;" horiz-adv-x="1028" 
d="M661 -3l-133 385l-143 -385h-81l-241 623q-7 16 -22 24.5t-36 12.5v45h345v-45q-25 -3 -35.5 -12.5t-10.5 -25.5q0 -12 4.5 -27t10.5 -31l108 -287l71 193l-52 153q-6 16 -17 24.5t-32 12.5v45h345v-45q-37 -1 -51 -11.5t-14 -31.5q0 -13 4 -29.5t10 -36.5l86 -269
l93 273q5 16 9 31t4 27q0 20 -14 32.5t-50 14.5v45h204v-45q-21 -4 -36.5 -12.5t-21.5 -24.5l-222 -623h-82zM370 890h197l47 -149h-64l-180 139v10z" />
    <glyph glyph-name="wgrave" unicode="&#x1e81;" horiz-adv-x="923" 
d="M708 236l82 202q4 10 6 18t2 14q0 15 -13.5 21.5t-41.5 9.5v42h175v-42q-25 -8 -34.5 -16t-16.5 -24l-200 -464h-68l-118 302l-142 -302h-68l-215 464q-7 16 -16.5 24t-34.5 16v42h318v-42q-22 -3 -32 -10t-10 -19q0 -7 2.5 -15.5t6.5 -18.5l90 -214l70 145l-36 92
q-6 16 -16 25t-29 15v42h316v-42q-31 -4 -45.5 -9.5t-14.5 -23.5q0 -6 1.5 -13.5t4.5 -16.5zM307 766h197l47 -163h-59l-185 153v10z" />
    <glyph glyph-name="Wacute" unicode="&#x1e82;" horiz-adv-x="1028" 
d="M661 -3l-133 385l-143 -385h-81l-241 623q-7 16 -22 24.5t-36 12.5v45h345v-45q-25 -3 -35.5 -12.5t-10.5 -25.5q0 -12 4.5 -27t10.5 -31l108 -287l71 193l-52 153q-6 16 -17 24.5t-32 12.5v45h345v-45q-37 -1 -51 -11.5t-14 -31.5q0 -13 4 -29.5t10 -36.5l86 -269
l93 273q5 16 9 31t4 27q0 20 -14 32.5t-50 14.5v45h204v-45q-21 -4 -36.5 -12.5t-21.5 -24.5l-222 -623h-82zM547 890h197v-10l-180 -139h-64z" />
    <glyph glyph-name="wacute" unicode="&#x1e83;" horiz-adv-x="923" 
d="M708 236l82 202q4 10 6 18t2 14q0 15 -13.5 21.5t-41.5 9.5v42h175v-42q-25 -8 -34.5 -16t-16.5 -24l-200 -464h-68l-118 302l-142 -302h-68l-215 464q-7 16 -16.5 24t-34.5 16v42h318v-42q-22 -3 -32 -10t-10 -19q0 -7 2.5 -15.5t6.5 -18.5l90 -214l70 145l-36 92
q-6 16 -16 25t-29 15v42h316v-42q-31 -4 -45.5 -9.5t-14.5 -23.5q0 -6 1.5 -13.5t4.5 -16.5zM478 766h197v-10l-185 -153h-59z" />
    <glyph glyph-name="Wdieresis" unicode="&#x1e84;" horiz-adv-x="1028" 
d="M661 -3l-133 385l-143 -385h-81l-241 623q-7 16 -22 24.5t-36 12.5v45h345v-45q-25 -3 -35.5 -12.5t-10.5 -25.5q0 -12 4.5 -27t10.5 -31l108 -287l71 193l-52 153q-6 16 -17 24.5t-32 12.5v45h345v-45q-37 -1 -51 -11.5t-14 -31.5q0 -13 4 -29.5t10 -36.5l86 -269
l93 273q5 16 9 31t4 27q0 20 -14 32.5t-50 14.5v45h204v-45q-21 -4 -36.5 -12.5t-21.5 -24.5l-222 -623h-82zM366 823q0 36 26 62t63 26t63.5 -26t26.5 -62t-26.5 -62t-63.5 -26t-63 26t-26 62zM576 823q0 36 26.5 62t61.5 26q38 0 64.5 -26t26.5 -62t-26.5 -62t-64.5 -26
q-35 0 -61.5 26t-26.5 62z" />
    <glyph glyph-name="wdieresis" unicode="&#x1e85;" horiz-adv-x="923" 
d="M708 236l82 202q4 10 6 18t2 14q0 15 -13.5 21.5t-41.5 9.5v42h175v-42q-25 -8 -34.5 -16t-16.5 -24l-200 -464h-68l-118 302l-142 -302h-68l-215 464q-7 16 -16.5 24t-34.5 16v42h318v-42q-22 -3 -32 -10t-10 -19q0 -7 2.5 -15.5t6.5 -18.5l90 -214l70 145l-36 92
q-6 16 -16 25t-29 15v42h316v-42q-31 -4 -45.5 -9.5t-14.5 -23.5q0 -6 1.5 -13.5t4.5 -16.5zM299 691q0 36 26 62t63 26t63.5 -26t26.5 -62t-26.5 -62t-63.5 -26t-63 26t-26 62zM509 691q0 36 26.5 62t61.5 26q38 0 64.5 -26t26.5 -62t-26.5 -62t-64.5 -26q-35 0 -61.5 26
t-26.5 62z" />
    <glyph glyph-name="Ygrave" unicode="&#x1ef2;" horiz-adv-x="727" 
d="M481 258v-151q0 -38 15 -47.5t64 -14.5v-45h-372v45q49 5 64 14.5t15 47.5v146l-204 367q-11 21 -23.5 27t-34.5 10v45h365v-45q-38 -1 -50.5 -9.5t-12.5 -26.5q0 -16 6 -31t18 -37l123 -210l103 208q9 19 17 38t8 32q0 18 -17 26.5t-49 9.5v45h206v-45q-21 -4 -35 -11.5
t-23 -25.5zM225 890h197l47 -149h-64l-180 139v10z" />
    <glyph glyph-name="ygrave" unicode="&#x1ef3;" horiz-adv-x="616" 
d="M387 202l94 234q4 10 6 16.5t2 13.5q0 16 -12.5 23t-52.5 12v42h187v-42q-25 -8 -34.5 -16t-16.5 -24l-232 -544q-29 -68 -62.5 -103.5t-87.5 -35.5q-31 0 -53 11t-33 29v81q20 -4 39 -7t43 -3q43 0 65.5 12.5t35.5 39.5l15 32l-234 488q-7 16 -16.5 24t-34.5 16v42h342
v-42q-40 -5 -52.5 -12t-12.5 -23q0 -7 2 -13l5 -15zM168 766h197l47 -163h-59l-185 153v10z" />
    <glyph glyph-name="endash" unicode="&#x2013;" horiz-adv-x="540" 
d="M510 272h-480v66h480v-66z" />
    <glyph glyph-name="emdash" unicode="&#x2014;" horiz-adv-x="960" 
d="M930 338v-66h-900v66h900z" />
    <glyph glyph-name="quoteleft" unicode="&#x2018;" horiz-adv-x="299" 
d="M138 629h42q34 -8 56.5 -30.5t22.5 -63.5q0 -45 -30.5 -71t-73.5 -26q-52 0 -83.5 37t-31.5 96q0 86 56.5 134.5t162.5 51.5v-45q-53 -7 -84.5 -24.5t-36.5 -58.5z" />
    <glyph glyph-name="quoteright" unicode="&#x2019;" horiz-adv-x="299" 
d="M161 561h-42q-34 8 -56.5 30.5t-22.5 63.5q0 45 30.5 71t73.5 26q52 0 83.5 -37t31.5 -96q0 -86 -56.5 -134.5t-162.5 -51.5v45q53 7 84.5 24.5t36.5 58.5z" />
    <glyph glyph-name="quotesinglbase" unicode="&#x201a;" horiz-adv-x="299" 
d="M161 0h-42q-34 8 -56.5 30.5t-22.5 63.5q0 45 30.5 71t73.5 26q52 0 83.5 -37t31.5 -96q0 -86 -56.5 -134.5t-162.5 -51.5v45q53 7 84.5 24.5t36.5 58.5z" />
    <glyph glyph-name="quotedblleft" unicode="&#x201c;" horiz-adv-x="546" 
d="M385 629h42q34 -8 56.5 -30.5t22.5 -63.5q0 -45 -30.5 -71t-73.5 -26q-52 0 -83.5 37t-31.5 96q0 86 56.5 134.5t162.5 51.5v-45q-53 -7 -84.5 -24.5t-36.5 -58.5zM138 629h42q34 -8 56.5 -30.5t22.5 -63.5q0 -45 -30.5 -71t-73.5 -26q-52 0 -83.5 37t-31.5 96
q0 86 56.5 134.5t162.5 51.5v-45q-53 -7 -84.5 -24.5t-36.5 -58.5z" />
    <glyph glyph-name="quotedblright" unicode="&#x201d;" horiz-adv-x="546" 
d="M161 561h-42q-34 8 -56.5 30.5t-22.5 63.5q0 45 30.5 71t73.5 26q52 0 83.5 -37t31.5 -96q0 -86 -56.5 -134.5t-162.5 -51.5v45q53 7 84.5 24.5t36.5 58.5zM408 561h-42q-34 8 -56.5 30.5t-22.5 63.5q0 45 30.5 71t73.5 26q52 0 83.5 -37t31.5 -96q0 -86 -56.5 -134.5
t-162.5 -51.5v45q53 7 84.5 24.5t36.5 58.5z" />
    <glyph glyph-name="quotedblbase" unicode="&#x201e;" horiz-adv-x="546" 
d="M161 0h-42q-34 8 -56.5 30.5t-22.5 63.5q0 45 30.5 71t73.5 26q52 0 83.5 -37t31.5 -96q0 -86 -56.5 -134.5t-162.5 -51.5v45q53 7 84.5 24.5t36.5 58.5zM408 0h-42q-34 8 -56.5 30.5t-22.5 63.5q0 45 30.5 71t73.5 26q52 0 83.5 -37t31.5 -96q0 -86 -56.5 -134.5
t-162.5 -51.5v45q53 7 84.5 24.5t36.5 58.5z" />
    <glyph glyph-name="dagger" unicode="&#x2020;" horiz-adv-x="384" 
d="M204 575q0 -34 20 -59.5t40 -36.5v-9q-20 -29 -41 -124t-24 -208h-14q-3 113 -24 208t-41 124v9q20 11 40 36.5t20 59.5q-37 0 -59 -22.5t-53 -22.5q-18 0 -33 14t-15 42t15 42t33 14q31 0 53 -22.5t59 -22.5q0 37 -22 59.5t-22 53.5q0 18 14 33t42 15t42 -15t14 -33
q0 -31 -22 -53.5t-22 -59.5q37 0 59 22.5t53 22.5q18 0 33 -14t15 -42t-15 -42t-33 -14q-31 0 -53 22.5t-59 22.5z" />
    <glyph glyph-name="daggerdbl" unicode="&#x2021;" horiz-adv-x="404" 
d="M191 450q0 22 -15.5 36.5t-45.5 16.5v9q20 11 40 31.5t20 54.5q-37 0 -59 -22.5t-53 -22.5q-18 0 -33 14t-15 42t15 42t33 14q31 0 53 -22.5t59 -22.5q0 37 -22 48t-22 42q0 18 14 33t42 15t42 -15t14 -33q0 -31 -22 -42t-22 -48q37 0 59 22.5t53 22.5q18 0 33 -14
t15 -42t-15 -42t-33 -14q-31 0 -53 22.5t-59 22.5q0 -34 20 -54.5t40 -31.5v-9q-30 -2 -45.5 -16.5t-15.5 -36.5t15.5 -36.5t45.5 -16.5v-9q-20 -11 -40 -31.5t-20 -54.5q37 0 59 22.5t53 22.5q18 0 33 -14t15 -42t-15 -42t-33 -14q-31 0 -53 22.5t-59 22.5q0 -37 22 -48
t22 -42q0 -18 -14 -33t-42 -15t-42 15t-14 33q0 31 22 42t22 48q-37 0 -59 -22.5t-53 -22.5q-18 0 -33 14t-15 42t15 42t33 14q31 0 53 -22.5t59 -22.5q0 34 -20 54.5t-40 31.5v9q30 2 45.5 16.5t15.5 36.5z" />
    <glyph glyph-name="bullet" unicode="&#x2022;" horiz-adv-x="382" 
d="M30 309q0 68 47.5 116.5t113.5 48.5t113.5 -48.5t47.5 -116.5q0 -66 -47.5 -115t-113.5 -49t-113.5 49t-47.5 115z" />
    <glyph glyph-name="ellipsis" unicode="&#x2026;" horiz-adv-x="846" 
d="M30 101q0 49 32.5 80.5t78.5 31.5t78.5 -31.5t32.5 -80.5t-32.5 -80t-78.5 -31t-78.5 31t-32.5 80zM312 101q0 49 32.5 80.5t78.5 31.5t78.5 -31.5t32.5 -80.5t-32.5 -80t-78.5 -31t-78.5 31t-32.5 80zM594 101q0 49 32.5 80.5t78.5 31.5t78.5 -31.5t32.5 -80.5
t-32.5 -80t-78.5 -31t-78.5 31t-32.5 80z" />
    <glyph glyph-name="perthousand" unicode="&#x2030;" horiz-adv-x="1182" 
d="M767 165q0 -87 -53 -131t-122 -44t-122 44t-53 131t53 131t122 44t122 -44t53 -131zM153 -10l439 722h57l-439 -722h-57zM35 537q0 87 53 131t122 44t122 -44t53 -131t-53 -131t-122 -44t-122 44t-53 131zM646 165q0 57 -11.5 97.5t-42.5 40.5t-42.5 -40.5t-11.5 -97.5
t11.5 -97.5t42.5 -40.5t42.5 40.5t11.5 97.5zM156 537q0 -57 11.5 -97.5t42.5 -40.5t42.5 40.5t11.5 97.5t-11.5 97.5t-42.5 40.5t-42.5 -40.5t-11.5 -97.5zM1026 165q0 57 -11.5 97.5t-42.5 40.5t-42.5 -40.5t-11.5 -97.5t11.5 -97.5t42.5 -40.5t42.5 40.5t11.5 97.5z
M1147 165q0 -87 -53 -131t-122 -44t-122 44t-53 131t53 131t122 44t122 -44t53 -131z" />
    <glyph glyph-name="guilsinglleft" unicode="&#x2039;" horiz-adv-x="277" 
d="M20 273v6l187 202h50l-82 -205l82 -205h-50z" />
    <glyph glyph-name="guilsinglright" unicode="&#x203a;" horiz-adv-x="277" 
d="M257 279v-6l-187 -202h-50l82 205l-82 205h50z" />
    <glyph glyph-name="fraction" unicode="&#x2044;" horiz-adv-x="283" 
d="M-109 -10l438 722h58l-439 -722h-57z" />
    <glyph glyph-name="Euro" unicode="&#x20ac;" horiz-adv-x="689" 
d="M24 393v48h85q28 124 116.5 197.5t210.5 73.5q66 0 116.5 -15.5t88.5 -47.5v-166h-56q-11 74 -43 127.5t-93 53.5q-63 0 -94 -68t-39 -155h171l-8 -48h-166v-27v-24t1 -23h148l-8 -49h-138q8 -97 38.5 -162t99.5 -65q61 0 95.5 47.5t66.5 146.5h52l-13 -192
q-40 -28 -102 -41.5t-116 -13.5q-143 0 -230 75.5t-105 204.5h-78v49h74v18q0 14 1 28.5t2 27.5h-77z" />
    <glyph glyph-name="uni2117" unicode="&#x2117;" horiz-adv-x="776" 
d="M436 304h-52v-77q0 -22 10.5 -29.5t46.5 -8.5v-35h-216v35q28 1 34.5 8.5t6.5 29.5v253q0 22 -6.5 28.5t-34.5 7.5v35h209q83 0 121 -38t38 -83q0 -57 -39 -91.5t-118 -34.5zM384 513v-176h15q42 0 60.5 26t18.5 65q0 34 -19.5 59.5t-59.5 25.5h-15zM72 351
q0 -132 88.5 -227t227.5 -95t227.5 95t88.5 227t-88.5 227t-227.5 95t-227.5 -95t-88.5 -227zM30 351q0 149 101 255t257 106t257 -106t101 -255t-101 -255t-257 -106t-257 106t-101 255z" />
    <glyph glyph-name="trademark" unicode="&#x2122;" horiz-adv-x="895" 
d="M361 702l6 -116h-30q-15 39 -29.5 64t-45.5 25h-7v-242q0 -20 9.5 -26.5t32.5 -7.5v-29h-187v29q23 1 31.5 7.5t8.5 26.5v242h-6q-31 0 -46 -25t-30 -64h-30l7 116h316zM610 507l56 161q4 11 5.5 19t1.5 15h143v-32q-24 0 -32.5 -10t-8.5 -30l30 -200q3 -18 12 -24t29 -7
v-29h-186v29q25 1 35.5 7t10.5 25q0 3 -1 15t-2 25l-23 135l-79 -236h-49l-81 236l-20 -135q-2 -13 -3 -25t-1 -15q0 -19 10 -25t36 -7v-29h-128v29q22 1 30 6.5t11 24.5l30 200q0 20 -8.5 30t-30.5 10v32h147q1 -7 2.5 -14.5t5.5 -18.5z" />
    <glyph glyph-name="Omega" unicode="&#x2126;" horiz-adv-x="736" 
d="M368 668q-64 0 -90.5 -75t-26.5 -193q0 -113 26.5 -186t58.5 -124v-90h-271l-25 198h34q33 -59 54 -73.5t88 -14.5h73q-90 26 -162 104.5t-72 185.5q0 128 84 220t229 92t229 -92t84 -220q0 -107 -72 -185.5t-162 -104.5h73q67 0 88 14.5t54 73.5h34l-25 -198h-271v90
q32 51 58.5 124t26.5 186q0 118 -26.5 193t-90.5 75z" />
    <glyph glyph-name="uni2153" unicode="&#x2153;" horiz-adv-x="798" 
d="M202 712h36v-329q0 -26 12 -32t52 -9v-36h-262v36q48 3 57 9t9 32v210h-66v34l25 5q51 10 82 29.5t55 50.5zM151 -10l438 722h58l-439 -722h-57zM628 217q57 -1 93.5 -28t36.5 -77q0 -59 -51 -89.5t-122 -30.5q-74 0 -107.5 24.5t-33.5 58.5q0 20 9.5 31.5t19.5 15.5h72
q-3 -9 -4 -15.5t-1 -14.5q0 -31 13 -50t37 -19q22 0 34.5 19t12.5 53q0 37 -17.5 58.5t-58.5 21.5h-14l-8 23q43 17 56 33t13 39q0 19 -11 33t-38 14t-44.5 -13t-29.5 -28l-26 20q20 40 60.5 72.5t102.5 32.5q51 0 82 -24t31 -67q0 -42 -32.5 -64.5t-74.5 -28.5z" />
    <glyph glyph-name="uni2154" unicode="&#x2154;" horiz-adv-x="853" 
d="M206 -10l438 722h58l-439 -722h-57zM683 217q57 -1 93.5 -28t36.5 -77q0 -59 -51 -89.5t-122 -30.5q-74 0 -107.5 24.5t-33.5 58.5q0 20 9.5 31.5t19.5 15.5h72q-3 -9 -4 -15.5t-1 -14.5q0 -31 13 -50t37 -19q22 0 34.5 19t12.5 53q0 37 -17.5 58.5t-58.5 21.5h-14l-8 23
q43 17 56 33t13 39q0 19 -11 33t-38 14t-44.5 -13t-29.5 -28l-26 20q20 40 60.5 72.5t102.5 32.5q51 0 82 -24t31 -67q0 -42 -32.5 -64.5t-74.5 -28.5zM160 402h109q22 0 32 8.5t26 30.5h22l-11 -139h-308v28l117 108q32 30 47.5 57.5t15.5 58.5q0 29 -16 47t-47 18
q-29 0 -50.5 -13t-35.5 -30l-23 20q21 44 63 78t105 34q58 0 92.5 -30.5t34.5 -84.5q0 -65 -52 -109t-121 -82z" />
    <glyph glyph-name="uni215B" unicode="&#x215b;" horiz-adv-x="841" 
d="M202 712h41v-329q0 -26 12 -32t52 -9v-36h-267v36q48 3 57 9t9 32v210h-66v34l25 5q51 10 82 29.5t55 50.5zM151 -10l438 722h58l-439 -722h-57zM784 314q0 -34 -27 -52t-64 -19q51 -17 79.5 -50.5t28.5 -73.5q0 -68 -52 -98.5t-116 -30.5q-67 0 -119.5 24t-52.5 73
q0 34 26 53t66 24q-34 15 -57 42.5t-23 67.5q0 63 45.5 97.5t114.5 34.5t110 -25.5t41 -66.5zM653 126l-79 29q-8 -12 -13.5 -26t-5.5 -31q0 -36 23.5 -54.5t57.5 -18.5q28 0 46 13.5t18 35.5t-12 32t-35 20zM615 272l54 -19q11 10 16.5 22.5t5.5 30.5q0 29 -16.5 47
t-45.5 18q-26 0 -41 -15t-15 -36q0 -19 11.5 -30t30.5 -18z" />
    <glyph glyph-name="uni215C" unicode="&#x215c;" horiz-adv-x="867" 
d="M810 314q0 -34 -27 -52t-64 -19q51 -17 79.5 -50.5t28.5 -73.5q0 -68 -52 -98.5t-116 -30.5q-67 0 -119.5 24t-52.5 73q0 34 26 53t66 24q-34 15 -57 42.5t-23 67.5q0 63 45.5 97.5t114.5 34.5t110 -25.5t41 -66.5zM679 126l-79 29q-8 -12 -13.5 -26t-5.5 -31
q0 -36 23.5 -54.5t57.5 -18.5q28 0 46 13.5t18 35.5t-12 32t-35 20zM641 272l54 -19q11 10 16.5 22.5t5.5 30.5q0 29 -16.5 47t-45.5 18q-26 0 -41 -15t-15 -36q0 -19 11.5 -30t30.5 -18zM177 -10l438 722h58l-439 -722h-57zM224 528q57 -1 93.5 -28t36.5 -77
q0 -59 -51 -89.5t-122 -30.5q-74 0 -107.5 24.5t-33.5 58.5q0 20 9 31.5t19 15.5h73q-3 -9 -4 -15.5t-1 -14.5q0 -31 13 -50t37 -19q22 0 36.5 17.5t14.5 54.5t-19.5 58.5t-60.5 21.5h-14l-8 23q43 17 58.5 32.5t15.5 37.5q0 20 -13.5 34.5t-40.5 14.5t-44.5 -13t-29.5 -28
l-26 20q20 40 60.5 72.5t102.5 32.5q51 0 82 -24t31 -67q0 -42 -32.5 -64.5t-74.5 -28.5z" />
    <glyph glyph-name="uni215D" unicode="&#x215d;" horiz-adv-x="862" 
d="M172 -10l438 722h58l-439 -722h-57zM341 727l-22 -131h-185l-6 -35q98 0 158.5 -26.5t60.5 -107.5q0 -57 -41 -91t-107 -34q-69 0 -111.5 23t-42.5 59q0 18 11.5 31.5t22.5 17.5h67q-3 -9 -4 -15.5t-1 -15.5q0 -31 14 -49.5t44 -18.5q25 0 40 14.5t15 39.5q0 44 -42.5 64
t-132.5 20l39 230h155q18 0 24.5 4.5t14.5 20.5h29zM805 314q0 -34 -27 -52t-64 -19q51 -17 79.5 -50.5t28.5 -73.5q0 -68 -52 -98.5t-116 -30.5q-67 0 -119.5 24t-52.5 73q0 34 26 53t66 24q-34 15 -57 42.5t-23 67.5q0 63 45.5 97.5t114.5 34.5t110 -25.5t41 -66.5z
M674 126l-79 29q-8 -12 -13.5 -26t-5.5 -31q0 -36 23.5 -54.5t57.5 -18.5q28 0 46 13.5t18 35.5t-12 32t-35 20zM636 272l54 -19q11 10 16.5 22.5t5.5 30.5q0 29 -16.5 47t-45.5 18q-26 0 -41 -15t-15 -36q0 -19 11.5 -30t30.5 -18z" />
    <glyph glyph-name="uni215E" unicode="&#x215e;" horiz-adv-x="776" 
d="M269 585h-137q-22 0 -37 -14t-26 -47h-39l33 178h301v-34l-200 -362h-81zM86 -10l438 722h58l-439 -722h-57zM719 314q0 -34 -27 -52t-64 -19q51 -17 79.5 -50.5t28.5 -73.5q0 -68 -52 -98.5t-116 -30.5q-67 0 -119.5 24t-52.5 73q0 34 26 53t66 24q-34 15 -57 42.5
t-23 67.5q0 63 45.5 97.5t114.5 34.5t110 -25.5t41 -66.5zM588 126l-79 29q-8 -12 -13.5 -26t-5.5 -31q0 -36 23.5 -54.5t57.5 -18.5q28 0 46 13.5t18 35.5t-12 32t-35 20zM550 272l54 -19q11 10 16.5 22.5t5.5 30.5q0 29 -16.5 47t-45.5 18q-26 0 -41 -15t-15 -36
q0 -19 11.5 -30t30.5 -18z" />
    <glyph glyph-name="partialdiff" unicode="&#x2202;" horiz-adv-x="618" 
d="M287 552q21 0 43 -6t34 -18q-29 81 -87 139t-168 84l21 37q263 -25 365.5 -161t102.5 -295q0 -153 -75 -247.5t-219 -94.5q-128 0 -206 80t-78 196q0 131 81.5 208.5t185.5 77.5zM315 34q40 0 53 53t13 146q0 128 -16.5 202t-59.5 74q-40 0 -53 -53t-13 -146
q0 -128 16.5 -202t59.5 -74z" />
    <glyph glyph-name="Delta" unicode="&#x2206;" horiz-adv-x="682" 
d="M662 0h-642v41l295 661h45l302 -661v-41zM265 442l-173 -384h346z" />
    <glyph glyph-name="product" unicode="&#x220f;" horiz-adv-x="828" 
d="M514 650h-200v-735q0 -38 10 -50t59 -17v-45h-357v45q49 5 59 17t10 50v675q0 38 -10 50t-59 17v45h776v-45q-49 -5 -59 -17t-10 -50v-675q0 -38 10 -50t59 -17v-45h-357v45q49 5 59 17t10 50v735z" />
    <glyph glyph-name="summation" unicode="&#x2211;" horiz-adv-x="625" 
d="M156 -33h224q60 0 98.5 12.5t80.5 81.5h46l-47 -258h-548v52l266 365l-253 422v60h555v-192h-45q-36 73 -64.5 107.5t-99.5 34.5h-128l185 -310v-14z" />
    <glyph glyph-name="minus" unicode="&#x2212;" horiz-adv-x="576" 
d="M66 333v72h444v-72h-444z" />
    <glyph glyph-name="radical" unicode="&#x221a;" horiz-adv-x="607" 
d="M374 267l173 445h60l-280 -712h-77l-145 444q-10 30 -22.5 42t-37.5 15l-25 3v46h270z" />
    <glyph glyph-name="infinity" unicode="&#x221e;" horiz-adv-x="762" 
d="M350 348l-46 54q-22 25 -45 37t-51 12q-38 0 -67 -27t-29 -76t29 -76.5t67 -27.5q28 0 51.5 11.5t44.5 36.5zM381 289l-32 -38q-29 -34 -64 -53.5t-83 -19.5q-66 0 -114 45.5t-48 124.5t48 124.5t114 45.5q48 0 83.5 -19.5t63.5 -53.5l32 -38l32 38q28 34 63.5 53.5
t83.5 19.5q66 0 114 -45.5t48 -124.5t-48 -124.5t-114 -45.5q-48 0 -83.5 19.5t-63.5 53.5zM464 402l-46 -54l46 -56q21 -25 44.5 -36.5t51.5 -11.5q38 0 67 27.5t29 76.5t-29 76t-67 27q-28 0 -51 -12t-45 -37z" />
    <glyph glyph-name="integral" unicode="&#x222b;" horiz-adv-x="457" 
d="M293 622v-565q0 -140 -64.5 -196.5t-164.5 -56.5q-66 0 -108 25t-42 71q0 23 10.5 38.5t24.5 25.5h92v-64q0 -20 5 -37.5t24 -17.5q18 0 23 16t5 33v565q0 140 64.5 196.5t164.5 56.5q66 0 108 -25t42 -71q0 -23 -10.5 -38.5t-24.5 -25.5h-92v64q0 20 -5 37.5t-24 17.5
q-18 0 -23 -16t-5 -33z" />
    <glyph glyph-name="approxequal" unicode="&#x2248;" horiz-adv-x="586" 
d="M71 383v73q33 22 63 31.5t57 9.5q57 0 101.5 -20t101.5 -20q28 0 58 9.5t64 31.5v-73q-34 -22 -64 -31.5t-58 -9.5q-57 0 -101.5 20t-101.5 20q-27 0 -57 -9.5t-63 -31.5zM71 246v72q33 22 63 31.5t57 9.5q57 0 101.5 -19.5t101.5 -19.5q28 0 58 9t64 31v-73
q-34 -22 -64 -31t-58 -9q-57 0 -101.5 19t-101.5 19q-27 0 -57 -9t-63 -30z" />
    <glyph glyph-name="notequal" unicode="&#x2260;" horiz-adv-x="586" 
d="M71 408v69h263l74 104h75l-74 -104h107v-69h-157l-56 -79h213v-68h-262l-74 -104h-75l74 104h-108v68h157l56 79h-213z" />
    <glyph glyph-name="lessequal" unicode="&#x2264;" horiz-adv-x="448" 
d="M54 401v9l318 172v-82l-182 -94l182 -95v-82zM54 128v71h318v-71h-318z" />
    <glyph glyph-name="greaterequal" unicode="&#x2265;" horiz-adv-x="448" 
d="M394 410v-9l-318 -172v82l183 95l-183 94v82zM394 199v-71h-318v71h318z" />
    <glyph glyph-name="lozenge" unicode="&#x25ca;" horiz-adv-x="578" 
d="M36 351l205 351h95l206 -351l-206 -351h-95zM457 351l-168 293l-169 -293l169 -292z" />
    <glyph glyph-name="i.dot" horiz-adv-x="350" 
d="M281 553v-475q0 -22 12.5 -28t40.5 -8v-42h-312v42q28 2 40.5 8t12.5 28v350l-53 34v31l223 60h36zM182 594q-50 0 -78 29.5t-28 69.5t28 69.5t78 29.5q49 0 77.5 -29.5t28.5 -69.5t-28.5 -69.5t-77.5 -29.5z" />
    <glyph glyph-name="space_uni0326" 
d="M259 -158h-56q-22 6 -36 20.5t-14 41.5t22.5 45.5t62.5 18.5q46 0 72 -27.5t26 -68.5q0 -51 -41.5 -86.5t-135.5 -35.5v40q50 0 74.5 16t25.5 36z" />
    <glyph glyph-name="space_uni0326.alt" 
d="M230 715h56q22 -6 36 -20.5t14 -41.5t-22.5 -45.5t-62.5 -18.5q-46 0 -72 27.5t-26 68.5q0 51 41.5 86.5t135.5 35.5v-40q-50 0 -74.5 -16t-25.5 -36z" />
    <glyph glyph-name="space_dotbelowcomb" 
d="M251 -212q-48 0 -75.5 28.5t-27.5 66.5t27.5 66.5t75.5 28.5t75 -28.5t27 -66.5t-27 -66.5t-75 -28.5z" />
    <glyph glyph-name="caron.Slovak" 
d="M360 771l-119 -193h-47l11 205h155v-12z" />
    <glyph glyph-name="cedilla.alt" 
d="M148 -233l-9 37q54 0 78.5 14t24.5 33q0 20 -21 25.5t-56 6.5l32 79h35q51 0 81 -22t30 -62q0 -57 -60 -84t-135 -27z" />
    <glyph glyph-name="grave.cap" 
d="M114 890h197l47 -149h-64l-180 139v10z" />
    <glyph glyph-name="acute.cap" 
d="M161 890h197v-10l-180 -139h-64z" />
    <glyph glyph-name="circumflex.cap" 
d="M318 893l118 -152h-65l-121 65l-121 -65h-65l118 152h136z" />
    <glyph glyph-name="tilde.cap" 
d="M310 741q-49 0 -76.5 30t-59.5 30q-21 0 -36 -16t-29 -39l-40 22q25 64 52 101.5t69 37.5q49 0 76.5 -30t59.5 -30q21 0 36 16t29 39l40 -22q-25 -64 -52 -101.5t-69 -37.5z" />
    <glyph glyph-name="macron.cap" 
d="M110 746v95h294v-95h-294z" />
    <glyph glyph-name="breve.cap" 
d="M259 738q-72 0 -111 42t-39 114h51q7 -35 36.5 -47t62.5 -12t62.5 12t36.5 47h51q0 -72 -39 -114t-111 -42z" />
    <glyph glyph-name="dotaccent.cap" 
d="M251 737q-50 0 -78 29.5t-28 69.5t28 69.5t78 29.5q49 0 77.5 -29.5t28.5 -69.5t-28.5 -69.5t-77.5 -29.5z" />
    <glyph glyph-name="dieresis.cap" 
d="M61 823q0 36 26 62t63 26t63.5 -26t26.5 -62t-26.5 -62t-63.5 -26t-63 26t-26 62zM271 823q0 36 26.5 62t61.5 26q38 0 64.5 -26t26.5 -62t-26.5 -62t-64.5 -26q-35 0 -61.5 26t-26.5 62z" />
    <glyph glyph-name="ring.cap" 
d="M212 829q0 -21 12.5 -35t36.5 -14t36.5 14t12.5 35q0 22 -12.5 36t-36.5 14t-36.5 -14t-12.5 -36zM153 829q0 44 30.5 74.5t77.5 30.5t77 -30.5t30 -74.5q0 -43 -30 -73.5t-77 -30.5t-77.5 30.5t-30.5 73.5z" />
    <glyph glyph-name="hungarumlaut.cap" 
d="M112 890h162v-10l-149 -139h-61zM300 890h162v-10l-149 -139h-61z" />
    <glyph glyph-name="caron.cap" 
d="M436 894l-118 -152h-136l-118 152h65l121 -65l121 65h65z" />
    <glyph glyph-name="exclamdown.cap" horiz-adv-x="305" 
d="M51 609q0 42 30 72.5t71 30.5q43 0 72.5 -30.5t29.5 -72.5q0 -44 -29.5 -75t-72.5 -31q-41 0 -71 31t-30 75zM119 461h67l88 -461h-243z" />
    <glyph glyph-name="questiondown.cap" horiz-adv-x="477" 
d="M173 102q0 -31 16 -50t47 -19q40 0 54.5 30t14.5 67q0 22 -2 34t-4 27h119q22 -10 33 -28t11 -41q0 -60 -61.5 -96t-162.5 -36q-110 0 -169 45t-59 126q0 64 34.5 108t103.5 83q43 25 61 46t18 56v9h29q41 -14 64.5 -42t23.5 -70q0 -32 -19 -64t-58 -60
q-38 -28 -66 -56.5t-28 -68.5zM346 609q0 -44 -29.5 -75t-71.5 -31q-43 0 -72.5 31t-29.5 75q0 42 29.5 72.5t72.5 30.5q42 0 71.5 -30.5t29.5 -72.5z" />
    <glyph glyph-name="guilsinglleft.cap" horiz-adv-x="277" 
d="M20 348v6l187 202h50l-82 -205l82 -205h-50z" />
    <glyph glyph-name="guilsinglright.cap" horiz-adv-x="277" 
d="M257 354v-6l-187 -202h-50l82 205l-82 205h50z" />
    <glyph glyph-name="guillemotleft.cap" horiz-adv-x="474" 
d="M20 348v6l187 202h50l-82 -205l82 -205h-50zM217 348v6l187 202h50l-82 -205l82 -205h-50z" />
    <glyph glyph-name="guillemotright.cap" horiz-adv-x="474" 
d="M454 354v-6l-187 -202h-50l82 205l-82 205h50zM257 354v-6l-187 -202h-50l82 205l-82 205h50z" />
    <glyph glyph-name="slash.cap" horiz-adv-x="357" 
d="M352 770l-260 -871h-87l260 871h87z" />
    <glyph glyph-name="backslash.cap" horiz-adv-x="357" 
d="M265 -101l-260 871h87l260 -871h-87z" />
    <glyph glyph-name="bar.cap" horiz-adv-x="202" 
d="M142 770v-871h-82v871h82z" />
    <glyph glyph-name="brokenbar.cap" horiz-adv-x="202" 
d="M142 770v-371h-82v371h82zM142 270v-371h-82v371h82z" />
    <glyph glyph-name="periodcentered.cap" horiz-adv-x="275" 
d="M30 345q0 47 31.5 77.5t75.5 30.5q45 0 76.5 -30.5t31.5 -77.5t-31.5 -77t-76.5 -30q-44 0 -75.5 30t-31.5 77z" />
    <glyph glyph-name="bullet.cap" horiz-adv-x="382" 
d="M30 349q0 68 47.5 116.5t113.5 48.5t113.5 -48.5t47.5 -116.5q0 -66 -47.5 -115t-113.5 -49t-113.5 49t-47.5 115z" />
    <glyph glyph-name="hyphen.cap" horiz-adv-x="320" 
d="M290 307h-260v86h260v-86z" />
    <glyph glyph-name="endash.cap" horiz-adv-x="540" 
d="M510 312h-480v66h480v-66z" />
    <glyph glyph-name="emdash.cap" horiz-adv-x="960" 
d="M930 378v-66h-900v66h900z" />
    <glyph glyph-name="parenleft.cap" horiz-adv-x="378" 
d="M207 334q0 -108 35 -223.5t116 -212.5h-59q-110 79 -174.5 196.5t-64.5 239.5t64.5 239.5t174.5 196.5h59q-81 -97 -116 -212.5t-35 -223.5z" />
    <glyph glyph-name="parenright.cap" horiz-adv-x="378" 
d="M171 334q0 108 -35 223.5t-116 212.5h59q110 -79 174.5 -196.5t64.5 -239.5t-64.5 -239.5t-174.5 -196.5h-59q81 97 116 212.5t35 223.5z" />
    <glyph glyph-name="bracketleft.cap" horiz-adv-x="342" 
d="M209 668v-667q0 -39 21.5 -47.5t81.5 -12.5v-42h-227v871h227v-42q-60 -4 -81.5 -12.5t-21.5 -47.5z" />
    <glyph glyph-name="bracketright.cap" horiz-adv-x="342" 
d="M133 1v667q0 39 -21.5 47.5t-81.5 12.5v42h227v-871h-227v42q60 4 81.5 12.5t21.5 47.5z" />
    <glyph glyph-name="braceleft.cap" horiz-adv-x="373" 
d="M50 324v20q36 7 59.5 29.5t23.5 70.5v198q0 59 48.5 93.5t166.5 34.5v-31q-35 -4 -60 -26t-25 -72v-185q0 -58 -34 -85t-87 -37q53 -10 87 -37t34 -85v-183q0 -50 25 -72t60 -26v-31q-118 0 -166.5 34.5t-48.5 93.5v196q0 48 -23.5 70.5t-59.5 29.5z" />
    <glyph glyph-name="braceright.cap" horiz-adv-x="383" 
d="M333 344v-20q-36 -7 -59.5 -29.5t-23.5 -70.5v-196q0 -59 -48.5 -93.5t-166.5 -34.5v31q35 4 60 26t25 72v183q0 58 34 85t87 37q-53 10 -87 37t-34 85v185q0 50 -25 72t-60 26v31q118 0 166.5 -34.5t48.5 -93.5v-198q0 -48 23.5 -70.5t59.5 -29.5z" />
    <glyph glyph-name="at.cap" horiz-adv-x="894" 
d="M610 139q-80 0 -103 48t-12 108q-37 -66 -77 -111t-97 -45q-44 0 -74.5 34.5t-30.5 94.5q0 101 73.5 193.5t185.5 92.5q36 0 61.5 -14t35.5 -28l78 32h46l-35 -94l-57 -198q-8 -29 -2 -51.5t31 -22.5q49 0 92 68.5t43 184.5q0 107 -76 194t-210 87q-162 0 -257 -114.5
t-95 -276.5q0 -171 102 -254t241 -83q82 0 144.5 19t125.5 57l14 -21q-54 -50 -131 -78t-175 -28q-161 0 -286 98t-125 287q0 181 126 309t316 128q175 0 273.5 -99t98.5 -225q0 -159 -84 -225.5t-160 -66.5zM389 236q41 0 82.5 77.5t60.5 172.5q-5 14 -15 22.5t-25 8.5
q-55 0 -94 -81t-39 -150q0 -23 7 -36.5t23 -13.5z" />
    </font>
</defs>
</svg>
