<?xml version="1.0" standalone="no"?>
<!DOCTYPE svg PUBLIC "-//W3C//DTD SVG 20010904//EN"
 "http://www.w3.org/TR/2001/REC-SVG-20010904/DTD/svg10.dtd">
<svg version="1.0" xmlns="http://www.w3.org/2000/svg"
 width="512.000000pt" height="512.000000pt" viewBox="0 0 512.000000 512.000000"
 preserveAspectRatio="xMidYMid meet">
<metadata>
Created by potrace 1.11, written by Peter Selinger 2001-2013
</metadata>
<g transform="translate(0.000000,512.000000) scale(0.100000,-0.100000)"
fill="#000000" stroke="none">
<path d="M1947 4534 c-1 -2 -32 -4 -67 -5 -68 -2 -153 -11 -280 -30 -86 -13
-89 -13 -150 -28 -25 -7 -56 -14 -69 -17 -64 -13 -247 -82 -348 -129 -365
-173 -641 -445 -815 -805 -60 -124 -105 -250 -139 -388 -28 -116 -30 -129 -44
-242 -24 -189 -24 -486 -1 -650 14 -93 17 -117 21 -130 2 -8 7 -31 10 -50 13
-74 48 -197 84 -294 165 -438 475 -783 881 -979 102 -49 262 -112 313 -122 10
-2 27 -7 37 -10 26 -8 79 -19 200 -41 179 -32 515 -36 725 -9 184 24 403 80
578 149 157 61 347 153 347 168 1 7 2 286 4 619 4 668 4 670 66 736 38 40 101
77 160 94 65 18 69 24 68 85 l-2 54 -780 -2 -781 -3 -2 -57 -1 -58 36 -9 c20
-4 64 -14 97 -21 186 -39 235 -59 290 -117 56 -60 64 -103 65 -387 5 -873 5
-878 -14 -934 -32 -94 -95 -132 -273 -163 -63 -11 -237 -8 -308 6 -368 70
-645 313 -798 700 -59 148 -109 364 -132 565 -3 30 -8 66 -10 80 -29 190 -23
737 11 985 4 28 8 59 10 70 1 11 5 34 8 50 3 17 7 44 10 60 4 24 46 187 59
230 43 143 130 320 213 436 73 101 177 200 276 260 74 46 235 116 286 125 15
3 43 9 62 14 85 22 330 31 425 16 64 -11 176 -46 225 -71 101 -52 134 -102
336 -508 86 -174 162 -317 168 -318 6 0 40 -1 76 -2 l65 -2 -1 100 c-1 55 -5
219 -10 365 -4 146 -7 284 -8 307 0 40 -2 42 -57 72 -182 98 -487 193 -689
215 -30 4 -77 9 -105 12 -54 6 -323 12 -328 8z"/>
<path d="M3715 4430 c-29 -5 -30 -7 -29 -57 0 -29 2 -54 5 -57 2 -2 36 -13 74
-26 79 -25 156 -70 178 -103 42 -66 41 -19 42 -1617 2 -1419 1 -1529 -15
-1579 -29 -87 -84 -131 -205 -166 -33 -10 -65 -21 -70 -25 -6 -5 -10 -32 -9
-62 l0 -53 709 0 709 0 1 53 c1 29 -4 56 -9 61 -6 4 -42 18 -80 30 -100 32
-153 72 -184 140 l-27 56 1 1525 c0 1423 1 1528 17 1576 28 81 87 127 212 167
l70 22 0 58 c1 33 -4 57 -10 58 -44 4 -1357 3 -1380 -1z"/>
</g>
</svg>
